<?xml version="1.0" encoding="utf-8"?>
<!-- Generator: Adobe Illustrator 24.1.3, SVG Export Plug-In . SVG Version: 6.00 Build 0)  -->
<svg version="1.1" xmlns="http://www.w3.org/2000/svg" xmlns:xlink="http://www.w3.org/1999/xlink" x="0px" y="0px"
	 viewBox="0 0 456.66 397.02" style="enable-background:new 0 0 456.66 397.02;" xml:space="preserve">
<style type="text/css">
	.st0{fill:none;stroke:#FFFFFF;stroke-width:4;stroke-linecap:round;}
	.st1{fill:none;stroke:#242D3C;stroke-width:4;stroke-linecap:round;}
	.st2{fill:none;stroke:#FFFFFF;stroke-width:4;stroke-linecap:round;stroke-linejoin:round;}
	.st3{fill:none;stroke:#6adfbe;stroke-width:4;stroke-linecap:round;stroke-linejoin:round;}
	.st4{fill:#6adfbe;opacity:0.2}
	.st5{fill:#6adfbe;opacity:0.6}
	.st6{fill:#FFFFFF;}
	.st7{fill:#F15525;}
	.st8{fill:#D6D5D3;}
	.st9{fill:#E33B0F;}
	.st10{fill:#FF8643;}
	.st11{fill:#242D3C;}
	.st12{fill:#10191F;}
	.st13{fill:#FEC940;}
	.st14{fill:#EFA630;}
</style>
<g id="Background">
</g>
<g id="Name">
</g>
<g id="Lines">
</g>
<g id="Back_cloud">
</g>
<g id="Airship_1_">
</g>
<g id="Top_Cloud">
	<g>
		<path class="st0" d="M127.94,68.36c4.25,4.25,11.14,4.25,15.39,0c4.25-4.25,11.14-4.25,15.39,0c4.25,4.25,11.14,4.25,15.39,0
			c4.25-4.25,11.14-4.25,15.39,0"/>
		<path class="st1" d="M368.34,146.06c4.25,4.25,11.14,4.25,15.39,0c4.25-4.25,11.14-4.25,15.39,0c4.25,4.25,11.14,4.25,15.39,0
			c4.25-4.25,11.14-4.25,15.39,0"/>
		<line class="st1" x1="104.64" y1="288.18" x2="61.72" y2="288.18"/>
		<line class="st0" x1="342.59" y1="73.2" x2="299.66" y2="73.2"/>
		<line class="st0" x1="49.51" y1="306.32" x2="27.47" y2="306.32"/>
		<line class="st1" x1="413.01" y1="251.2" x2="403.68" y2="251.2"/>
		<line class="st1" x1="433.83" y1="251.2" x2="424.51" y2="251.2"/>
		<line class="st1" x1="454.66" y1="251.2" x2="445.33" y2="251.2"/>
		<line class="st1" x1="147.01" y1="364.2" x2="137.68" y2="364.2"/>
		<line class="st1" x1="167.83" y1="364.2" x2="158.51" y2="364.2"/>
		<line class="st1" x1="188.66" y1="364.2" x2="179.33" y2="364.2"/>
		<line class="st1" x1="370.8" y1="98.2" x2="327.19" y2="98.2"/>
		<g>
			<line class="st2" x1="392.41" y1="286.45" x2="392.41" y2="290.87"/>
			<line class="st2" x1="388.08" y1="295.2" x2="383.66" y2="295.2"/>
			<line class="st2" x1="392.41" y1="303.95" x2="392.41" y2="299.53"/>
			<line class="st2" x1="396.75" y1="295.2" x2="401.16" y2="295.2"/>
		</g>
		<g>
			<line class="st3" x1="14.16" y1="140.92" x2="14.16" y2="165.2"/>
			<line class="st3" x1="2" y1="153.08" x2="26.33" y2="153.08"/>
		</g>
		<path class="st2" d="M132.06,322.6c0-4.01,3.25-7.27,7.27-7.27s7.27,3.25,7.27,7.27c0,4.01-3.25,7.27-7.27,7.27
			S132.06,326.62,132.06,322.6z"/>
		<g>
			<line class="st3" x1="310.16" y1="370.74" x2="310.16" y2="395.02"/>
			<line class="st3" x1="298" y1="382.9" x2="322.33" y2="382.9"/>
		</g>
		<g>
			<line class="st3" x1="231.92" y1="2" x2="231.92" y2="26.28"/>
			<line class="st3" x1="219.75" y1="14.16" x2="244.08" y2="14.16"/>
		</g>
		<path class="st4" d="M345.28,334.16c3.32,0,6.4,1.06,8.9,2.87l0.01,0c2.46-6.5,8.73-11.13,16.09-11.13
			c8.3,0,15.22,5.87,16.86,13.69c1.49-0.6,3.13-0.94,4.84-0.94c7.17,0,12.99,5.82,12.99,12.99s-5.81,12.99-12.99,12.99l-46.7,0.03
			c-8.42,0-15.25-6.83-15.25-15.25C330.03,340.99,336.86,334.16,345.28,334.16z"/>
		<path class="st5" d="M339.48,284.25c-6.45,0-12.43,2.07-17.29,5.57l-0.02,0c-4.78-12.64-16.97-21.64-31.28-21.64
			c-16.13,0-29.59,11.41-32.76,26.6c-2.91-1.17-6.08-1.82-9.41-1.82c-13.95,0-25.25,11.31-25.25,25.25
			c0,13.94,11.3,25.25,25.25,25.25l90.76,0.05c16.36,0,29.63-13.27,29.63-29.64C369.12,297.52,355.85,284.25,339.48,284.25z"/>
		<g>
			<g>
				<g>
					<path class="st6" d="M291.53,247.28c37.42-9.32,65.16-25.39,74.81-44.51h-74.81V247.28z"/>
					<path class="st6" d="M366.33,202.77c-9.65-36.28-37.38-66.8-74.81-84.47v39.96C328.95,167.57,356.69,183.65,366.33,202.77z"/>
					<path class="st6" d="M216.72,149.6v-47.72c-27.17,0-52.68,5.97-74.8,16.41v39.96C164.04,152.75,189.55,149.6,216.72,149.6z"/>
					<path class="st6" d="M291.53,202.77v-44.51c-22.13-5.51-47.63-8.65-74.81-8.65v53.16H291.53z"/>
					<path class="st6" d="M141.92,202.77v44.51c22.13,5.5,47.63,8.65,74.8,8.65v-53.16H141.92z"/>
					<path class="st6" d="M216.72,255.92v47.73c27.17,0,52.68-5.97,74.81-16.42v-39.96C269.4,252.78,243.89,255.92,216.72,255.92z"
						/>
					<path class="st6" d="M141.92,158.26c-37.43,9.31-65.16,25.39-74.81,44.51h74.81V158.26z"/>
					<path class="st6" d="M67.11,202.77c9.65,36.28,37.38,66.79,74.81,84.47v-39.96C104.49,237.96,76.76,221.88,67.11,202.77z"/>
				</g>
				<path class="st7" d="M366.33,202.77c-9.65-19.12-37.38-35.2-74.81-44.51v44.51H366.33z M291.53,118.29
					c-22.13-10.45-47.63-16.41-74.81-16.41v47.72c27.17,0,52.68,3.14,74.81,8.65V118.29z M216.72,202.77v53.16
					c27.17,0,52.68-3.14,74.81-8.65v-44.51H216.72z M216.72,202.77V149.6c-27.17,0-52.68,3.14-74.8,8.65v44.51H216.72z
					 M291.53,247.28v39.96c37.42-17.67,65.16-48.19,74.81-84.47C356.69,221.88,328.95,237.96,291.53,247.28z M141.92,287.23
					c22.13,10.45,47.63,16.42,74.8,16.42v-47.73c-27.17,0-52.68-3.14-74.8-8.65V287.23z M141.92,158.26v-39.96
					c-37.43,17.67-65.16,48.19-74.81,84.47C76.76,183.65,104.49,167.57,141.92,158.26z M67.11,202.77
					c9.65,19.12,37.38,35.19,74.81,44.51v-44.51H67.11z"/>
				<path class="st8" d="M291.53,267.75c-22.13,8.04-47.63,12.63-74.81,12.63c-27.17,0-52.68-4.59-74.8-12.63
					c-37.43-13.6-65.16-37.07-74.81-64.98c9.65,36.28,37.38,66.79,74.81,84.47c22.13,10.45,47.63,16.42,74.8,16.42
					c27.17,0,52.68-5.97,74.81-16.42c37.42-17.67,65.16-48.19,74.81-84.47C356.69,230.67,328.95,254.15,291.53,267.75z"/>
				<path class="st9" d="M141.92,287.23c22.13,10.45,47.63,16.42,74.8,16.42v-23.27c-27.17,0-52.68-4.59-74.8-12.63V287.23z
					 M291.53,267.75v19.49c37.42-17.67,65.16-48.19,74.81-84.47C356.69,230.67,328.95,254.15,291.53,267.75z"/>
				<path class="st10" d="M216.72,101.88v23.28c27.17,0,52.68,4.59,74.81,12.63v-19.49C269.4,107.85,243.89,101.88,216.72,101.88z
					 M67.11,202.77c9.65-27.91,37.38-51.39,74.81-64.98v-19.49C104.49,135.97,76.76,166.48,67.11,202.77z"/>
			</g>
			<g>
				<path class="st11" d="M198.65,303.65c-14.67,0-26.56,12.67-26.56,27.34h98.6c14.67,0,26.56-12.67,26.56-27.34H198.65z"/>
				<path class="st12" d="M270.69,317.18h-72.04l-26.56,13.81h26.56h72.04c14.67,0,26.56-12.67,26.56-27.34
					C288.62,318.42,270.69,317.18,270.69,317.18z"/>
			</g>
			<g>
				<path class="st13" d="M415.87,164.71c-43.19,0-49.54,31.28-49.54,38.06c0,6.78,6.34,38.06,49.54,38.06
					c0-15.1-18.92-38.06-18.92-38.06S415.87,179.81,415.87,164.71z"/>
				<path class="st14" d="M415.87,240.82c0-15.1-18.92-38.06-18.92-38.06h-30.62C366.33,209.55,372.68,240.82,415.87,240.82z"/>
			</g>
			<path class="st6" d="M238.32,317.09c0,2.03-1.64,3.68-3.68,3.68c-2.03,0-3.68-1.65-3.68-3.68c0-2.03,1.65-3.68,3.68-3.68
				C236.68,313.41,238.32,315.06,238.32,317.09z"/>
			<path class="st6" d="M257.22,317.09c0,2.03-1.64,3.68-3.68,3.68c-2.03,0-3.68-1.65-3.68-3.68c0-2.03,1.64-3.68,3.68-3.68
				C255.57,313.41,257.22,315.06,257.22,317.09z"/>
		</g>
		<path class="st5" d="M51.67,95.55c3.23,0,6.31,0.64,9.13,1.78v0l0,0c0-15.16,12.29-27.44,27.44-27.44
			c9.52,0,17.88,4.85,22.8,12.21c2.33-0.76,4.82-1.17,7.41-1.17c13.19,0,23.88,10.69,23.88,23.88c0,0.31-0.02,0.61-0.03,0.91h0
			c1.27-0.26,2.58-0.4,3.93-0.4c10.71,0,19.39,8.69,19.39,19.4c0,10.71-8.68,19.4-19.39,19.4l-94.56,0.05
			c-13.43,0-24.31-10.89-24.31-24.31C27.36,106.43,38.24,95.55,51.67,95.55z"/>
	</g>
</g>
</svg>
