<?xml version="1.0" encoding="utf-8"?>
<!-- Generator: Adobe Illustrator 24.1.3, SVG Export Plug-In . SVG Version: 6.00 Build 0)  -->
<svg version="1.1" xmlns="http://www.w3.org/2000/svg" xmlns:xlink="http://www.w3.org/1999/xlink" x="0px" y="0px"
	 viewBox="0 0 378.75 362.23" style="enable-background:new 0 0 378.75 362.23;" xml:space="preserve">
<style type="text/css">
	.st0{fill:#6ADFBE;}
	.st1{fill:#434d4d;}
	.st2{fill:none;stroke:#434d4d;stroke-width:4;stroke-linecap:round;}
	.st3{fill:none;stroke:#434d4d;stroke-width:4;stroke-linecap:round;stroke-linejoin:round;}
	.st4{fill:#6ADFBE;stroke:#6ADFBE;stroke-miterlimit:10;}
</style>
<g id="Background">
</g>
<g id="Circles_on_background">
</g>
<g id="Banner_1_">
	<g id="Fill_1_">
	</g>
	<g id="Stroke_1_">
	</g>
</g>
<g id="Planet">
	<g id="Fill_2_">
	</g>
	<g id="Shadow">
	</g>
	<g id="Stroke_2_">
	</g>
</g>
<g id="Spaceship">
	<g id="Fill">
	</g>
	<g id="Stroke">
	</g>
</g>
<g id="Lines">
	<path class="st0" d="M264.45,106.7h5.52c3.05,0,5.52,2.52,5.52,5.63h5.52c0-6.2-4.95-11.25-11.05-11.25v-5.63h-5.52v5.63
		c-6.09,0-11.05,5.05-11.05,11.25c0,6.2,4.95,11.25,11.05,11.25h5.52c3.05,0,5.52,2.52,5.52,5.63s-2.48,5.63-5.52,5.63h-5.52
		c-3.05,0-5.52-2.52-5.52-5.63h-5.52c0,6.2,4.95,11.25,11.05,11.25v5.63h5.52v-5.63c6.09,0,11.05-5.05,11.05-11.25
		s-4.95-11.25-11.05-11.25h-5.52c-3.05,0-5.52-2.52-5.52-5.63C258.93,109.22,261.4,106.7,264.45,106.7z"/>
	<path class="st1" d="M232.34,159.44l5.23-5.94c-9.37-8.27-14.75-20.17-14.75-32.67c0-24.01,19.54-43.55,43.55-43.55
		c24.01,0,43.55,19.54,43.55,43.55c0,12.49-5.37,24.39-14.75,32.66l5.24,5.93c11.07-9.77,17.42-23.84,17.42-38.6
		c0-28.38-23.09-51.47-51.47-51.47c-28.38,0-51.47,23.09-51.47,51.47C214.9,135.6,221.26,149.67,232.34,159.44z"/>
	<path class="st1" d="M89.55,159.2l5.28-5.9c-9.23-8.26-14.53-20.1-14.53-32.47c0-24.01,19.54-43.55,43.55-43.55
		s43.55,19.54,43.55,43.55c0,12.49-5.37,24.39-14.75,32.66l5.24,5.93c11.07-9.77,17.42-23.84,17.42-38.6
		c0-28.38-23.09-51.47-51.47-51.47s-51.47,23.09-51.47,51.47C72.38,135.46,78.64,149.44,89.55,159.2z"/>
	<path class="st0" d="M214.9,168.34c0,19.64,15.98,35.63,35.63,35.63h3.96v15.84h-35.3v7.92h90.73v7.92h-90.73v7.92h90.73
		c4.37,0,7.92-3.55,7.92-7.92v-7.92c0-4.37-3.55-7.92-7.92-7.92h-31.67v-15.84h3.96c19.65,0,35.63-15.99,35.63-35.63v-3.96H214.9
		V168.34z M270.33,219.81h-7.92v-15.84h7.92V219.81z M309.64,172.3c-1.93,13.41-13.49,23.75-27.43,23.75h-31.67
		c-13.94,0-25.5-10.34-27.43-23.75H309.64z"/>
	<path class="st0" d="M230.74,267.32h-19.79v-39.59c0-6.55-5.33-11.88-11.88-11.88h-7.92c-6.55,0-11.88,5.33-11.88,11.88v39.59
		h-19.79c-10.91,0-19.79,8.88-19.79,19.79v27.71h110.85v-27.71C250.53,276.2,241.65,267.32,230.74,267.32z M187.19,227.73
		c0-2.19,1.77-3.96,3.96-3.96h7.92c2.19,0,3.96,1.77,3.96,3.96v39.59h-15.84V227.73z M242.62,306.91H147.6v-19.8
		c0-6.55,5.33-11.88,11.88-11.88h71.26c6.55,0,11.88,5.33,11.88,11.88V306.91z"/>
	<path class="st0" d="M171.36,235.65H80.3v-7.92h91.05v-7.92h-35.63v-15.84h3.96c19.65,0,35.63-15.99,35.63-35.63v-3.96H72.38v3.96
		c0,19.64,15.98,35.63,35.63,35.63h3.96v15.84H80.3c-4.37,0-7.92,3.55-7.92,7.92v7.92c0,4.37,3.55,7.92,7.92,7.92h91.05V235.65z
		 M80.58,172.3h86.53c-1.92,13.41-13.49,23.75-27.43,23.75h-31.67C94.07,196.06,82.51,185.72,80.58,172.3z M119.89,203.97h7.92
		v15.84h-7.92V203.97z"/>
	<path class="st2" d="M2,146.99c4.25,4.25,11.14,4.25,15.39,0c4.25-4.25,11.14-4.25,15.39,0c4.25,4.25,11.14,4.25,15.39,0
		c4.25-4.25,11.14-4.25,15.39,0"/>
	<path class="st2" d="M310.82,210.59c4.25,4.25,11.14,4.25,15.39,0c4.25-4.25,11.14-4.25,15.39,0c4.25,4.25,11.14,4.25,15.39,0
		c4.25-4.25,11.14-4.25,15.39,0"/>
	<line class="st2" x1="302.06" y1="342.09" x2="259.14" y2="342.09"/>
	<line class="st2" x1="363.06" y1="69.37" x2="320.14" y2="69.37"/>
	<line class="st2" x1="54.25" y1="326.83" x2="11.32" y2="326.83"/>
	<line class="st2" x1="254.4" y1="360.23" x2="232.36" y2="360.23"/>
	<line class="st2" x1="65.27" y1="33.73" x2="43.22" y2="33.73"/>
	<line class="st2" x1="370.43" y1="106" x2="326.83" y2="106"/>
	<path class="st3" d="M342.22,320.71c0-7.63-6.18-13.8-13.8-13.8c7.63,0,13.8-6.18,13.8-13.8c0,7.62,6.18,13.8,13.8,13.8
		C348.4,306.9,342.22,313.08,342.22,320.71z"/>
	<path class="st3" d="M40.44,257.37c0-7.62-6.18-13.8-13.8-13.8c7.63,0,13.8-6.18,13.8-13.8c0,7.62,6.18,13.8,13.8,13.8
		C46.62,243.56,40.44,249.74,40.44,257.37z"/>
	<g>
		<line class="st3" x1="368" y1="153.58" x2="368" y2="158"/>
		<line class="st3" x1="363.66" y1="162.33" x2="359.25" y2="162.33"/>
		<line class="st3" x1="368" y1="171.08" x2="368" y2="166.67"/>
		<line class="st3" x1="372.33" y1="162.33" x2="376.75" y2="162.33"/>
	</g>
	<g>
		<line class="st3" x1="142.41" y1="2" x2="142.41" y2="6.42"/>
		<line class="st3" x1="138.08" y1="10.75" x2="133.66" y2="10.75"/>
		<line class="st3" x1="142.41" y1="19.5" x2="142.41" y2="15.08"/>
		<line class="st3" x1="146.75" y1="10.75" x2="151.16" y2="10.75"/>
	</g>
	<ellipse transform="matrix(0.6747 -0.7381 0.7381 0.6747 58.678 215.1393)" class="st3" cx="273.41" cy="41" rx="7.27" ry="7.27"/>
	<path class="st4" d="M110.52,138.36v-28.43l3.41,1.72v26.74L110.52,138.36z M122.18,144.55v-28.21l3.41,0.06v28.15
		C125.59,144.55,122.18,144.55,122.18,144.55z M100.62,133.24v-25.85l3.43-1.64v26.74L100.62,133.24z M123.23,119.45l-22.19-10.64
		l3.99-1.82l19.68,9.38L123.23,119.45C123.24,119.45,123.23,119.45,123.23,119.45z M145.36,110.31l-22.84-12.8l1.36-3.12
		l23.15,12.94L145.36,110.31L145.36,110.31L145.36,110.31z M124,146.08l-23.38-12.77l1.66-2.99L125.49,143L124,146.08L124,146.08z
		 M103.28,109.81l-2.66-2.42l23.26-12.94l1.62,3.06C125.51,97.51,103.28,109.81,103.28,109.81z M143.66,133.12v-24.6l3.41-1.18
		v25.78L143.66,133.12z M124.1,133.31l-1.57-3.03l22.03-11.4l1.57,3.03L124.1,133.31L124.1,133.31L124.1,133.31z M123.37,119.94
		l-1.47-3.08l22.57-10.84l1.47,3.08C145.93,109.1,123.37,119.94,123.37,119.94z M124,146.07l-1.49-3.07l22.34-12.58l2.23,2.64
		L124,146.07L124,146.07L124,146.07z"/>
</g>
<g id="Name">
</g>
</svg>
