<?xml version="1.0" encoding="utf-8"?>
<!-- Generator: Adobe Illustrator 24.1.3, SVG Export Plug-In . SVG Version: 6.00 Build 0)  -->
<svg version="1.1" xmlns="http://www.w3.org/2000/svg" xmlns:xlink="http://www.w3.org/1999/xlink" x="0px" y="0px"
	 viewBox="0 0 378.75 362.23" style="enable-background:new 0 0 378.75 362.23;" xml:space="preserve">
<style type="text/css">
	.st0{fill:none;stroke:#434d4d;stroke-width:4;stroke-linecap:round;}
	.st1{fill:none;stroke:#434d4d;stroke-width:4;stroke-linecap:round;stroke-linejoin:round;}
	.st2{fill:#6ADFBE;}
	.st3{fill:#434d4d;}
	.st4{fill:#6ADFBE;stroke:#6ADFBE;stroke-miterlimit:10;}
</style>
<g id="Background">
</g>
<g id="Circles_on_background">
</g>
<g id="Banner_1_">
	<g id="Fill_1_">
	</g>
	<g id="Stroke_1_">
	</g>
</g>
<g id="Planet">
	<g id="Fill_2_">
	</g>
	<g id="Shadow">
	</g>
	<g id="Stroke_2_">
	</g>
</g>
<g id="Spaceship">
	<g id="Fill">
	</g>
	<g id="Stroke">
	</g>
</g>
<g id="Lines">
	<path class="st0" d="M2,146.99c4.25,4.25,11.14,4.25,15.39,0c4.25-4.25,11.14-4.25,15.39,0c4.25,4.25,11.14,4.25,15.39,0
		c4.25-4.25,11.14-4.25,15.39,0"/>
	<path class="st0" d="M310.82,210.59c4.25,4.25,11.14,4.25,15.39,0c4.25-4.25,11.14-4.25,15.39,0c4.25,4.25,11.14,4.25,15.39,0
		c4.25-4.25,11.14-4.25,15.39,0"/>
	<line class="st0" x1="302.06" y1="342.09" x2="259.14" y2="342.09"/>
	<line class="st0" x1="363.06" y1="69.37" x2="320.14" y2="69.37"/>
	<line class="st0" x1="54.25" y1="326.83" x2="11.32" y2="326.83"/>
	<line class="st0" x1="254.4" y1="360.23" x2="232.36" y2="360.23"/>
	<line class="st0" x1="65.27" y1="33.73" x2="43.22" y2="33.73"/>
	<line class="st0" x1="153.57" y1="77.29" x2="109.96" y2="77.29"/>
	<path class="st1" d="M342.22,320.71c0-7.63-6.18-13.8-13.8-13.8c7.63,0,13.8-6.18,13.8-13.8c0,7.62,6.18,13.8,13.8,13.8
		C348.4,306.9,342.22,313.08,342.22,320.71z"/>
	<path class="st1" d="M40.44,257.37c0-7.62-6.18-13.8-13.8-13.8c7.63,0,13.8-6.18,13.8-13.8c0,7.62,6.18,13.8,13.8,13.8
		C46.62,243.56,40.44,249.74,40.44,257.37z"/>
	<g>
		<line class="st1" x1="368" y1="153.58" x2="368" y2="158"/>
		<line class="st1" x1="363.66" y1="162.33" x2="359.25" y2="162.33"/>
		<line class="st1" x1="368" y1="171.08" x2="368" y2="166.67"/>
		<line class="st1" x1="372.33" y1="162.33" x2="376.75" y2="162.33"/>
	</g>
	<g>
		<line class="st1" x1="142.41" y1="2" x2="142.41" y2="6.42"/>
		<line class="st1" x1="138.08" y1="10.75" x2="133.66" y2="10.75"/>
		<line class="st1" x1="142.41" y1="19.5" x2="142.41" y2="15.08"/>
		<line class="st1" x1="146.75" y1="10.75" x2="151.16" y2="10.75"/>
	</g>
	<ellipse transform="matrix(0.6747 -0.7381 0.7381 0.6747 58.678 215.1393)" class="st1" cx="273.41" cy="41" rx="7.27" ry="7.27"/>
	<g>
		<path class="st2" d="M317.84,81.25c0-6.55-5.33-11.88-11.88-11.88c-6.55,0-11.88,5.33-11.88,11.88c0,5.15,3.32,9.51,7.92,11.15
			v70.72l-19.05,26.68l6.44,4.6l20.53-28.75V92.4C314.51,90.76,317.84,86.4,317.84,81.25z M305.96,85.21
			c-2.18,0-3.96-1.78-3.96-3.96c0-2.18,1.77-3.96,3.96-3.96c2.19,0,3.96,1.78,3.96,3.96C309.92,83.43,308.15,85.21,305.96,85.21z"/>
		<path class="st2" d="M258.45,89.17c-6.55,0-11.88,5.33-11.88,11.88c0,5.15,3.32,9.51,7.92,11.15v75.95h7.92v-75.95
			c4.6-1.64,7.92-5.99,7.92-11.15C270.33,94.49,265,89.17,258.45,89.17z M258.45,105c-2.19,0-3.96-1.78-3.96-3.96
			c0-2.18,1.77-3.96,3.96-3.96c2.18,0,3.96,1.78,3.96,3.96C262.41,103.22,260.64,105,258.45,105z"/>
		<path class="st2" d="M214.9,92.4c4.6-1.64,7.92-5.99,7.92-11.15c0-6.55-5.33-11.88-11.88-11.88c-6.55,0-11.88,5.33-11.88,11.88
			c0,5.15,3.32,9.51,7.92,11.15v73.26l20.53,28.75l6.44-4.6l-19.06-26.68V92.4z M210.95,77.29c2.19,0,3.96,1.78,3.96,3.96
			c0,2.18-1.77,3.96-3.96,3.96s-3.96-1.78-3.96-3.96C206.99,79.07,208.76,77.29,210.95,77.29z"/>
		<path class="st2" d="M183.23,302.95c0,2.18-1.77,3.96-3.96,3.96H84.26c-2.19,0-3.96-1.78-3.96-3.96v-87.1
			c0-2.18,1.77-3.96,3.96-3.96h95.01c2.19,0,3.96,1.78,3.96,3.96v7.92h7.92v-7.92c0-5.15-3.32-9.51-7.92-11.15v-36.36
			c0-28.38-23.09-51.47-51.47-51.47c-28.38,0-51.47,23.09-51.47,51.47v36.36c-4.6,1.64-7.92,5.99-7.92,11.15v87.1
			c0,6.55,5.33,11.88,11.88,11.88h95.01c6.55,0,11.88-5.33,11.88-11.88v-15.84h-7.92V302.95z M159.48,203.97h-55.42v-35.63
			c0-15.28,12.43-27.71,27.71-27.71s27.71,12.43,27.71,27.71V203.97z M131.77,124.8c24.01,0,43.55,19.54,43.55,43.55v35.63h-7.92
			v-35.63c0-19.64-15.98-35.63-35.63-35.63c-19.65,0-35.63,15.99-35.63,35.63v35.63h-7.92v-35.63
			C88.22,144.33,107.76,124.8,131.77,124.8z"/>
		<path class="st3" d="M258.45,196.06c-24.3,0-45.21,14.68-54.39,35.63h-12.91c-4.37,0-7.92,3.55-7.92,7.92h-31.67
			c0-10.91-8.88-19.79-19.79-19.79c-10.91,0-19.79,8.88-19.79,19.79c0,6.19,2.99,12.04,7.92,15.75v43.63h23.75v-27.71h39.59
			c0,4.37,3.55,7.92,7.92,7.92h12.91c9.18,20.95,30.09,35.63,54.39,35.63c32.74,0,59.38-26.64,59.38-59.38
			C317.84,222.7,291.2,196.06,258.45,196.06z M131.77,227.73c6.55,0,11.88,5.33,11.88,11.88h-23.75
			C119.89,233.06,125.22,227.73,131.77,227.73z M135.73,291.07h-7.92v-19.79h7.92V291.07z M127.81,263.36v-12.39l-1.97-1.14
			c-1.08-0.63-1.99-1.43-2.8-2.3h60.19v15.84H127.81z M191.15,271.28v-31.67h10.13c-1.4,5.05-2.21,10.34-2.21,15.83
			c0,5.49,0.81,10.78,2.21,15.84H191.15z M258.45,306.91c-28.38,0-51.47-23.09-51.47-51.47c0-28.38,23.09-51.47,51.47-51.47
			c28.38,0,51.47,23.09,51.47,51.47C309.92,283.82,286.83,306.91,258.45,306.91z"/>
		<path class="st2" d="M286.17,136.67h-7.92v31.67h7.92V136.67z"/>
		<path class="st2" d="M286.17,120.84h-7.92v7.92h7.92V120.84z"/>
		<path class="st2" d="M238.66,136.67h-7.92v31.67h7.92V136.67z"/>
		<path class="st2" d="M238.66,120.84h-7.92v7.92h7.92V120.84z"/>
		<path class="st4" d="M238,283.25v-43.62l5.24,2.63v41.01L238,283.25z M255.88,292.74v-43.27l5.24,0.09v43.18
			C261.12,292.74,255.88,292.74,255.88,292.74z M222.82,275.4v-39.66l5.27-2.51v41.01L222.82,275.4z M257.51,254.24l-34.04-16.32
			l6.13-2.8l30.19,14.39l-2.26,4.73C257.52,254.24,257.51,254.24,257.51,254.24z M291.45,240.22l-35.04-19.64l2.09-4.79l35.51,19.85
			l-2.55,4.58H291.45L291.45,240.22z M258.68,295.08l-35.87-19.6l2.54-4.58l35.6,19.46L258.68,295.08L258.68,295.08z M226.9,239.46
			l-4.08-3.72l35.69-19.85l2.49,4.69C260.99,220.58,226.9,239.46,226.9,239.46z M288.85,275.2v-37.73l5.24-1.81v39.55L288.85,275.2z
			 M258.84,275.51l-2.41-4.65l33.8-17.49l2.41,4.65l-33.8,17.5V275.51L258.84,275.51z M257.71,254.99l-2.26-4.73l34.62-16.63
			l2.26,4.73C292.33,238.36,257.71,254.99,257.71,254.99z M258.69,295.07l-2.29-4.71l34.27-19.29l3.42,4.05l-35.4,19.94V295.07
			L258.69,295.07z"/>
	</g>
</g>
<g id="Name">
</g>
</svg>
