<?xml version="1.0" encoding="utf-8"?>
<!-- Generator: Adobe Illustrator 24.1.3, SVG Export Plug-In . SVG Version: 6.00 Build 0)  -->
<svg version="1.1" xmlns="http://www.w3.org/2000/svg" xmlns:xlink="http://www.w3.org/1999/xlink" x="0px" y="0px"
	 viewBox="0 0 378.75 362.23" style="enable-background:new 0 0 378.75 362.23;" xml:space="preserve">
<style type="text/css">
	.st0{fill:none;stroke:#434d4d;stroke-width:4;stroke-linecap:round;}
	.st1{fill:none;stroke:#434d4d;stroke-width:4;stroke-linecap:round;stroke-linejoin:round;}
	.st2{fill:#434d4d;}
	.st3{fill:#6ADFBE;}
	.st4{fill:#6ADFBE;stroke:#6ADFBE;stroke-miterlimit:10;}
</style>
<g id="Background">
</g>
<g id="Circles_on_background">
</g>
<g id="Banner_1_">
	<g id="Fill_1_">
	</g>
	<g id="Stroke_1_">
	</g>
</g>
<g id="Planet">
	<g id="Fill_2_">
	</g>
	<g id="Shadow">
	</g>
	<g id="Stroke_2_">
	</g>
</g>
<g id="Spaceship">
	<g id="Fill">
	</g>
	<g id="Stroke">
	</g>
</g>
<g id="Lines">
	<g>
		<path class="st0" d="M2,146.99c4.25,4.25,11.14,4.25,15.39,0c4.25-4.25,11.14-4.25,15.39,0c4.25,4.25,11.14,4.25,15.39,0
			c4.25-4.25,11.14-4.25,15.39,0"/>
		<path class="st0" d="M310.82,210.59c4.25,4.25,11.14,4.25,15.39,0c4.25-4.25,11.14-4.25,15.39,0c4.25,4.25,11.14,4.25,15.39,0
			c4.25-4.25,11.14-4.25,15.39,0"/>
		<line class="st0" x1="302.06" y1="342.09" x2="259.14" y2="342.09"/>
		<line class="st0" x1="363.06" y1="69.37" x2="320.14" y2="69.37"/>
		<line class="st0" x1="54.25" y1="326.83" x2="11.32" y2="326.83"/>
		<line class="st0" x1="254.4" y1="360.23" x2="232.36" y2="360.23"/>
		<line class="st0" x1="65.27" y1="33.73" x2="43.22" y2="33.73"/>
		<line class="st0" x1="153.57" y1="77.29" x2="109.96" y2="77.29"/>
		<path class="st1" d="M342.22,320.71c0-7.63-6.18-13.8-13.8-13.8c7.63,0,13.8-6.18,13.8-13.8c0,7.62,6.18,13.8,13.8,13.8
			C348.4,306.9,342.22,313.08,342.22,320.71z"/>
		<path class="st1" d="M40.44,257.37c0-7.62-6.18-13.8-13.8-13.8c7.63,0,13.8-6.18,13.8-13.8c0,7.62,6.18,13.8,13.8,13.8
			C46.62,243.56,40.44,249.74,40.44,257.37z"/>
		<g>
			<line class="st1" x1="368" y1="153.58" x2="368" y2="158"/>
			<line class="st1" x1="363.66" y1="162.33" x2="359.25" y2="162.33"/>
			<line class="st1" x1="368" y1="171.08" x2="368" y2="166.67"/>
			<line class="st1" x1="372.33" y1="162.33" x2="376.75" y2="162.33"/>
		</g>
		<g>
			<line class="st1" x1="142.41" y1="2" x2="142.41" y2="6.42"/>
			<line class="st1" x1="138.08" y1="10.75" x2="133.66" y2="10.75"/>
			<line class="st1" x1="142.41" y1="19.5" x2="142.41" y2="15.08"/>
			<line class="st1" x1="146.75" y1="10.75" x2="151.16" y2="10.75"/>
		</g>
		
			<ellipse transform="matrix(0.6747 -0.7381 0.7381 0.6747 58.678 215.1393)" class="st1" cx="273.41" cy="41" rx="7.27" ry="7.27"/>
		<g>
			<path class="st2" d="M280.94,199.79v-6.66l-28.24,0l0,6.66H280.94z"/>
			<path class="st2" d="M139.73,199.79l0-6.66l-28.24,0v6.66H139.73z"/>
			<path class="st2" d="M233.87,199.79l0-6.66l-75.31,0l0,6.66L233.87,199.79z"/>
			<path class="st3" d="M156.54,109.04c-6.91,6.91-10.72,16.11-10.72,25.89l0,78.97l100.79,0l0-78.97c0-9.78-3.81-18.97-10.72-25.89
				l-39.67-39.67L156.54,109.04z M231.18,113.75c5.66,5.66,8.77,13.18,8.77,21.18l0,72.32l-87.48,0v-72.32
				c0-8,3.12-15.52,8.77-21.18l34.97-34.97L231.18,113.75z"/>
			<path class="st3" d="M273.71,179.82c2.51,2.51,3.9,5.86,3.9,9.41v18.02H252.7l0,6.66h31.57v-24.67c0-5.34-2.08-10.35-5.85-14.12
				l-25.72-25.72l-4.71,4.71L273.71,179.82z"/>
			<path class="st3" d="M139.73,207.25h-24.91v-18.02c0-3.56,1.39-6.9,3.9-9.42l25.72-25.72l-4.71-4.71l-25.72,25.72
				c-3.77,3.77-5.85,8.78-5.85,14.12l0,24.68h31.57V207.25z"/>
			<path class="st2" d="M206.44,240.12l-7.06-21.18l-6.31,2.1l7.06,21.18L206.44,240.12z"/>
			<path class="st2" d="M200.67,254.27l-2.85-6.01l-29.38,13.92l2.85,6.01L200.67,254.27z"/>
			<path class="st2" d="M194.8,331.79l-26.49-54.71l-5.99,2.9l26.49,54.71L194.8,331.79z"/>
			<path class="st2" d="M205.63,351.78c-5.19,5.19-13.64,5.19-18.83,0c-5.19-5.19-5.19-13.64,0-18.83c5.19-5.19,13.64-5.19,18.83,0
				C210.82,338.15,210.82,346.59,205.63,351.78z M191.51,337.66c-2.6,2.6-2.6,6.82,0,9.41c2.6,2.6,6.82,2.6,9.41,0
				c2.6-2.6,2.6-6.82,0-9.41C198.33,335.07,194.1,335.07,191.51,337.66z"/>
			<path class="st2" d="M170.33,278.83c-5.19,5.19-13.64,5.19-18.83,0c-5.19-5.19-5.19-13.64,0-18.83c5.19-5.19,13.64-5.19,18.83,0
				C175.52,265.19,175.52,273.63,170.33,278.83z M156.21,264.71c-2.6,2.6-2.6,6.82,0,9.41c2.6,2.6,6.82,2.6,9.41,0
				c2.6-2.6,2.6-6.82,0-9.41C163.03,262.11,158.8,262.11,156.21,264.71z"/>
			<path class="st2" d="M215.04,257.65c-5.19,5.19-13.64,5.19-18.83,0c-5.19-5.19-5.19-13.64,0-18.83c5.19-5.19,13.64-5.19,18.83,0
				C220.23,244.01,220.23,252.45,215.04,257.65z M200.92,243.53c-2.6,2.6-2.6,6.82,0,9.41c2.6,2.6,6.82,2.6,9.41,0
				c2.6-2.6,2.6-6.82,0-9.41C207.74,240.93,203.52,240.93,200.92,243.53z"/>
			<path class="st3" d="M246.61,276.47l0-56.48h-6.66l0,56.48L246.61,276.47z"/>
			<path class="st3" d="M246.61,290.59l0-9.41l-6.66,0l0,9.41L246.61,290.59z"/>
			<path class="st3" d="M232.5,285.88l0-65.9l-6.66,0v65.89L232.5,285.88z"/>
			<path class="st3" d="M232.5,299.99l0-9.41l-6.66,0l0,9.41L232.5,299.99z"/>
			<path class="st3" d="M152.48,252.95V220h-6.66v32.95H152.48z"/>
			<path class="st3" d="M166.6,248.23v-28.24h-6.66v28.24H166.6z"/>
			<path class="st4" d="M175.35,171.72V126l5.49,2.76v42.99L175.35,171.72z M194.09,181.66V136.3l5.49,0.09v45.26
				C199.58,181.66,194.09,181.66,194.09,181.66z M159.43,163.49v-41.57l5.52-2.63v42.99L159.43,163.49z M195.79,141.3l-35.68-17.1
				l6.42-2.93l31.64,15.08l-2.37,4.95C195.81,141.3,195.79,141.3,195.79,141.3z M231.37,126.62l-36.73-20.59l2.19-5.02l37.23,20.81
				l-2.67,4.8L231.37,126.62L231.37,126.62z M197.02,184.12l-37.6-20.54l2.67-4.8l37.32,20.4L197.02,184.12L197.02,184.12z
				 M163.7,125.81l-4.28-3.9l37.41-20.81l2.61,4.92C199.45,106.02,163.7,125.81,163.7,125.81z M228.64,163.28v-39.55l5.49-1.89
				v41.46L228.64,163.28z M197.19,163.6l-2.52-4.88l35.43-18.33l2.52,4.88l-35.43,18.34V163.6L197.19,163.6z M196.01,142.1
				l-2.37-4.95l36.29-17.44l2.37,4.95C232.29,124.66,196.01,142.1,196.01,142.1z M197.03,184.11l-2.4-4.94l35.92-20.22l3.59,4.24
				l-37.11,20.9V184.11L197.03,184.11z"/>
		</g>
	</g>
</g>
<g id="Name">
</g>
</svg>
