<?xml version="1.0" encoding="utf-8"?>
<!-- Generator: Adobe Illustrator 24.1.3, SVG Export Plug-In . SVG Version: 6.00 Build 0)  -->
<svg version="1.1" xmlns="http://www.w3.org/2000/svg" xmlns:xlink="http://www.w3.org/1999/xlink" x="0px" y="0px"
	 viewBox="0 0 378.75 362.23" style="enable-background:new 0 0 378.75 362.23;" xml:space="preserve">
<style type="text/css">
	.st0{fill:none;stroke:#434d4d;stroke-width:4;stroke-linecap:round;}
	.st1{fill:none;stroke:#434d4d;stroke-width:4;stroke-linecap:round;stroke-linejoin:round;}
	.st2{fill:#6ADFBE;stroke:#6ADFBE;stroke-miterlimit:10;}
	.st3{fill:#6ADFBE;}
	.st4{fill:#434d4d;}
</style>
<g id="Background">
</g>
<g id="Circles_on_background">
</g>
<g id="Banner_1_">
	<g id="Fill_1_">
	</g>
	<g id="Stroke_1_">
	</g>
</g>
<g id="Planet">
	<g id="Fill_2_">
	</g>
	<g id="Shadow">
	</g>
	<g id="Stroke_2_">
	</g>
</g>
<g id="Spaceship">
	<g id="Fill">
	</g>
	<g id="Stroke">
	</g>
</g>
<g id="Lines">
	<g>
		<path class="st0" d="M2,146.99c4.25,4.25,11.14,4.25,15.39,0c4.25-4.25,11.14-4.25,15.39,0c4.25,4.25,11.14,4.25,15.39,0
			c4.25-4.25,11.14-4.25,15.39,0"/>
		<path class="st0" d="M310.82,210.59c4.25,4.25,11.14,4.25,15.39,0c4.25-4.25,11.14-4.25,15.39,0c4.25,4.25,11.14,4.25,15.39,0
			c4.25-4.25,11.14-4.25,15.39,0"/>
		<line class="st0" x1="302.06" y1="342.09" x2="259.14" y2="342.09"/>
		<line class="st0" x1="363.06" y1="69.37" x2="320.14" y2="69.37"/>
		<line class="st0" x1="69.57" y1="331.78" x2="26.64" y2="331.78"/>
		<line class="st0" x1="254.4" y1="360.23" x2="232.36" y2="360.23"/>
		<line class="st0" x1="65.27" y1="33.73" x2="43.22" y2="33.73"/>
		<line class="st0" x1="109.96" y1="300.07" x2="66.36" y2="300.07"/>
		<path class="st1" d="M342.22,320.71c0-7.63-6.18-13.8-13.8-13.8c7.63,0,13.8-6.18,13.8-13.8c0,7.62,6.18,13.8,13.8,13.8
			C348.4,306.9,342.22,313.08,342.22,320.71z"/>
		<path class="st1" d="M40.44,257.37c0-7.62-6.18-13.8-13.8-13.8c7.63,0,13.8-6.18,13.8-13.8c0,7.62,6.18,13.8,13.8,13.8
			C46.62,243.56,40.44,249.74,40.44,257.37z"/>
		<g>
			<line class="st1" x1="368" y1="153.58" x2="368" y2="158"/>
			<line class="st1" x1="363.66" y1="162.33" x2="359.25" y2="162.33"/>
			<line class="st1" x1="368" y1="171.08" x2="368" y2="166.67"/>
			<line class="st1" x1="372.33" y1="162.33" x2="376.75" y2="162.33"/>
		</g>
		<g>
			<line class="st1" x1="142.41" y1="2" x2="142.41" y2="6.42"/>
			<line class="st1" x1="138.08" y1="10.75" x2="133.66" y2="10.75"/>
			<line class="st1" x1="142.41" y1="19.5" x2="142.41" y2="15.08"/>
			<line class="st1" x1="146.75" y1="10.75" x2="151.16" y2="10.75"/>
		</g>
		
			<ellipse transform="matrix(0.6747 -0.7381 0.7381 0.6747 58.678 215.1393)" class="st1" cx="273.41" cy="41" rx="7.27" ry="7.27"/>
		<g>
			<path class="st2" d="M183.5,144.57v-40.26l4.83,2.43v37.86L183.5,144.57z M200.01,153.32v-39.94l4.83,0.08v39.86
				C204.84,153.32,200.01,153.32,200.01,153.32z M169.49,137.32v-36.61l4.86-2.32v37.86L169.49,137.32z M201.51,117.78l-31.42-15.06
				l5.65-2.58l27.86,13.28l-2.08,4.36C201.52,117.78,201.51,117.78,201.51,117.78z M232.84,104.85l-32.34-18.13l1.93-4.42
				l32.78,18.32l-2.35,4.22H232.84L232.84,104.85z M202.59,155.49l-33.11-18.09l2.35-4.23l32.86,17.97L202.59,155.49L202.59,155.49z
				 M173.25,104.14l-3.76-3.43l32.94-18.32l2.3,4.33C204.73,86.72,173.25,104.14,173.25,104.14z M230.43,137.13v-34.83l4.83-1.67
				v36.51L230.43,137.13z M202.74,137.42l-2.22-4.29l31.2-16.14l2.22,4.3l-31.2,16.15V137.42L202.74,137.42z M201.7,118.48
				l-2.08-4.36l31.95-15.35l2.08,4.36C233.65,103.13,201.7,118.48,201.7,118.48z M202.6,155.47l-2.12-4.35l31.63-17.81l3.16,3.74
				l-32.67,18.41V155.47L202.6,155.47z"/>
			<path class="st3" d="M196.81,172.09v-6.41h-42.12c-1.43-5.51-6.41-9.62-12.37-9.62V69.52h-16.03c-8.84,0-16.03,7.19-16.03,16.03
				v34.67c-3.09,1.78-5.7,4.35-7.42,7.49l-8.36,15.34c-4.36,7.98-6.66,17-6.66,26.09v42.61c0,8.1,1.44,16.05,4.29,23.63l5.33,14.22
				v18.65h6.41v-19.81l-5.74-15.3c-2.57-6.87-3.88-14.06-3.88-21.38v-42.61c0-8.02,2.03-15.98,5.87-23.02l8.36-15.34
				c0.49-0.89,1.11-1.7,1.79-2.45v27.73c0,5.26,2.58,9.9,6.51,12.82h-0.1v7.51c0,4.28,1.67,8.3,4.7,11.33l6.4,6.4
				c-0.59,1.06-1.27,2.08-2.14,2.95c-2.5,2.49-5.81,3.87-9.34,3.87h-6.02v6.41h6.02c5.24,0,10.17-2.04,13.87-5.75
				c3.71-3.71,5.75-8.64,5.75-13.87v-18.84c0-3.54,2.88-6.41,6.41-6.41c3.54,0,6.41,2.88,6.41,6.41v43.32
				c0,8.73-2.68,17.11-7.76,24.22l-8.27,11.57v20.26h6.41v-18.21l7.07-9.9c5.86-8.21,8.96-17.87,8.96-27.94v-40.11H196.81z
				 M123.09,176.4v-4.63c1.04,0.21,2.11,0.32,3.21,0.32h3.21v14.7l-3.59-3.59C124.11,181.41,123.09,178.93,123.09,176.4z
				 M129.95,165.68h-3.66c-5.3,0-9.62-4.31-9.62-9.62V85.55c0-5.3,4.31-9.62,9.62-9.62h9.62v81.91
				C132.99,159.55,130.82,162.34,129.95,165.68z"/>
			<path class="st3" d="M270.53,69.52h-121.8v6.41h112.18v86.54h6.41V75.93h3.21c5.3,0,9.62,4.31,9.62,9.62v70.52
				c0,5.3-4.31,9.62-9.62,9.62v6.41c8.84,0,16.03-7.19,16.03-16.03V85.55C286.56,76.71,279.37,69.52,270.53,69.52z"/>
			<path class="st4" d="M129.5,107.99h-6.41v25.64h6.41V107.99z"/>
			<path class="st3" d="M273.7,210.32c-2.33,0.03-4.49,0.73-6.37,1.84v-1.84c0-7.07-5.75-12.82-12.82-12.82
				c-2.66,0-5.13,0.81-7.18,2.2c-1.75-5-6.46-8.61-12.06-8.61c-2.35,0-4.52,0.68-6.41,1.78v-27.42c0-7.07-5.75-12.82-12.82-12.82
				c-7.07,0-12.82,5.75-12.82,12.82v44.87H203c-10.49,0-19.02,8.53-19.02,19.01v34.49c0,7.69,3,14.92,8.45,20.37l10.79,10.79v5.08
				h6.41v-7.74l-12.66-12.67c-4.23-4.23-6.57-9.86-6.57-15.84v-34.49c0-6.95,5.65-12.6,12.61-12.6h0.21v25.64h6.41v-76.93
				c0-3.54,2.88-6.41,6.41-6.41c3.54,0,6.41,2.88,6.41,6.41v38.46v38.46h6.41v-38.46c0-3.54,2.88-6.41,6.41-6.41
				c3.54,0,6.41,2.88,6.41,6.41v6.41v32.05h6.41v-32.05c0-3.54,2.88-6.41,6.41-6.41c3.54,0,6.41,2.88,6.41,6.41v12.93v19.12h6.41
				v-19.12c0-3.55,2.89-6.48,6.45-6.52c1.67,0.04,3.3,0.63,4.5,1.82c1.21,1.19,1.87,2.79,1.87,4.48v40.78
				c0,5.99-2.34,11.63-6.57,15.86l-12.66,12.66v7.74h6.41c0,0,0-3.21,0-5.08l10.78-10.78c5.45-5.45,8.45-12.69,8.45-20.4v-40.78
				c0-3.42-1.34-6.63-3.78-9.04C280.35,211.59,277.09,210.29,273.7,210.32z"/>
		</g>
	</g>
</g>
<g id="Name">
</g>
</svg>
