<?xml version="1.0" encoding="utf-8"?>
<!-- Generator: Adobe Illustrator 24.1.3, SVG Export Plug-In . SVG Version: 6.00 Build 0)  -->
<svg version="1.1" xmlns="http://www.w3.org/2000/svg" xmlns:xlink="http://www.w3.org/1999/xlink" x="0px" y="0px"
	 viewBox="0 0 378.75 362.23" style="enable-background:new 0 0 378.75 362.23;" xml:space="preserve">
<style type="text/css">
	.st0{fill:none;stroke:#434d4d;stroke-width:4;stroke-linecap:round;}
	.st1{fill:none;stroke:#434d4d;stroke-width:4;stroke-linecap:round;stroke-linejoin:round;}
	.st2{fill:#6ADFBE;}
	.st3{fill:#434d4d;}
	.st4{fill:#6ADFBE;stroke:#6ADFBE;stroke-miterlimit:10;}
</style>
<g id="Background">
</g>
<g id="Circles_on_background">
</g>
<g id="Banner_1_">
	<g id="Fill_1_">
	</g>
	<g id="Stroke_1_">
	</g>
</g>
<g id="Planet">
	<g id="Fill_2_">
	</g>
	<g id="Shadow">
	</g>
	<g id="Stroke_2_">
	</g>
</g>
<g id="Spaceship">
	<g id="Fill">
	</g>
	<g id="Stroke">
	</g>
</g>
<g id="Lines">
	<g>
		<path class="st0" d="M2,146.99c4.25,4.25,11.14,4.25,15.39,0c4.25-4.25,11.14-4.25,15.39,0c4.25,4.25,11.14,4.25,15.39,0
			c4.25-4.25,11.14-4.25,15.39,0"/>
		<path class="st0" d="M310.82,210.59c4.25,4.25,11.14,4.25,15.39,0c4.25-4.25,11.14-4.25,15.39,0c4.25,4.25,11.14,4.25,15.39,0
			c4.25-4.25,11.14-4.25,15.39,0"/>
		<line class="st0" x1="302.06" y1="342.09" x2="259.14" y2="342.09"/>
		<line class="st0" x1="363.06" y1="69.37" x2="320.14" y2="69.37"/>
		<line class="st0" x1="69.57" y1="331.78" x2="26.64" y2="331.78"/>
		<line class="st0" x1="254.4" y1="360.23" x2="232.36" y2="360.23"/>
		<line class="st0" x1="65.27" y1="33.73" x2="43.22" y2="33.73"/>
		<line class="st0" x1="109.96" y1="300.07" x2="66.36" y2="300.07"/>
		<path class="st1" d="M342.22,320.71c0-7.63-6.18-13.8-13.8-13.8c7.63,0,13.8-6.18,13.8-13.8c0,7.62,6.18,13.8,13.8,13.8
			C348.4,306.9,342.22,313.08,342.22,320.71z"/>
		<path class="st1" d="M40.44,257.37c0-7.62-6.18-13.8-13.8-13.8c7.63,0,13.8-6.18,13.8-13.8c0,7.62,6.18,13.8,13.8,13.8
			C46.62,243.56,40.44,249.74,40.44,257.37z"/>
		<g>
			<line class="st1" x1="368" y1="153.58" x2="368" y2="158"/>
			<line class="st1" x1="363.66" y1="162.33" x2="359.25" y2="162.33"/>
			<line class="st1" x1="368" y1="171.08" x2="368" y2="166.67"/>
			<line class="st1" x1="372.33" y1="162.33" x2="376.75" y2="162.33"/>
		</g>
		<g>
			<line class="st1" x1="142.41" y1="2" x2="142.41" y2="6.42"/>
			<line class="st1" x1="138.08" y1="10.75" x2="133.66" y2="10.75"/>
			<line class="st1" x1="142.41" y1="19.5" x2="142.41" y2="15.08"/>
			<line class="st1" x1="146.75" y1="10.75" x2="151.16" y2="10.75"/>
		</g>
		
			<ellipse transform="matrix(0.6747 -0.7381 0.7381 0.6747 58.678 215.1393)" class="st1" cx="273.41" cy="41" rx="7.27" ry="7.27"/>
		<g>
			<path class="st2" d="M123.41,174.54h-7.28v-65.56h-14.73l32.94-42.35l32.94,42.35h-14.73v50.99h-7.28V101.7h7.12l-18.05-23.2
				l-18.05,23.2h7.12V174.54z"/>
			<path class="st2" d="M236.31,289.74l-32.94-42.35h14.73v-50.99h7.28v58.27h-7.12l18.05,23.2l18.05-23.2h-7.12v-58.27h7.28v50.99
				h14.73L236.31,289.74z"/>
			<path class="st3" d="M236.32,65.28c-30.12,0-54.63,24.51-54.63,54.63s24.51,54.63,54.63,54.63c30.12,0,54.63-24.51,54.63-54.63
				S266.44,65.28,236.32,65.28z M236.32,167.26c-26.11,0-47.35-21.24-47.35-47.35c0-26.11,21.24-47.35,47.35-47.35
				c26.11,0,47.35,21.24,47.35,47.35C283.66,146.02,262.42,167.26,236.32,167.26z"/>
			<path class="st2" d="M178.04,203.68h7.28v21.85H83.35v-21.85h7.28v-7.28H76.06v36.42h116.55v-36.42h-14.57V203.68z"/>
			<path class="st3" d="M112.74,218.25c2.94,0,5.78-0.86,8.22-2.49l7.19-4.79h12.36l7.19,4.79c2.44,1.63,5.28,2.49,8.22,2.49
				c8.17,0,14.82-6.65,14.82-14.82v-6.77c0-8.17-6.65-14.82-14.82-14.82c-2.94,0-5.78,0.86-8.22,2.49l-7.19,4.79h-12.36l-7.19-4.79
				c-2.44-1.63-5.28-2.49-8.22-2.49c-8.17,0-14.82,6.65-14.82,14.82v6.77C97.92,211.6,104.57,218.25,112.74,218.25z M151.75,190.37
				c1.24-0.83,2.69-1.26,4.18-1.26c4.16,0,7.54,3.38,7.54,7.54v6.77c0,4.16-3.38,7.54-7.54,7.54c-1.49,0-2.94-0.44-4.18-1.27
				l-6.49-4.32V194.7L151.75,190.37z M130.69,196.39h7.28v7.28h-7.28V196.39z M105.2,196.65c0-4.16,3.38-7.54,7.54-7.54
				c1.49,0,2.94,0.44,4.18,1.27l6.49,4.32v10.67l-6.49,4.33c-1.24,0.83-2.69,1.26-4.18,1.26c-4.16,0-7.54-3.38-7.54-7.54V196.65z"/>
			<path class="st2" d="M178.04,283.8h-32.78V240.1h-7.28v43.71h-7.28V240.1h-7.28v43.71H90.63V240.1h-7.28v50.99h101.98V240.1
				h-7.28V283.8z"/>
			<path class="st2" d="M254.52,181.82h-7.28v7.28h7.28V181.82z"/>
			<path class="st2" d="M225.39,181.82h-7.28v7.28h7.28V181.82z"/>
			<path class="st2" d="M152.55,167.26h-7.28v7.28h7.28V167.26z"/>
			<path class="st4" d="M216.08,147.51v-43.29l5.2,2.61v40.7L216.08,147.51z M233.82,156.92v-42.95l5.2,0.09v42.86
				C239.02,156.92,233.82,156.92,233.82,156.92z M201,139.72v-39.36l5.23-2.49v40.7L201,139.72z M235.43,118.71l-33.79-16.19
				l6.08-2.78l29.96,14.28l-2.24,4.69C235.45,118.71,235.43,118.71,235.43,118.71z M269.12,104.81l-34.78-19.49l2.08-4.75
				l35.25,19.7l-2.53,4.54L269.12,104.81L269.12,104.81z M236.6,159.26L201,139.81l2.52-4.54l35.33,19.32L236.6,159.26L236.6,159.26
				z M205.05,104.05l-4.05-3.69l35.42-19.7l2.47,4.66C238.89,85.31,205.05,104.05,205.05,104.05z M266.54,139.52v-37.45l5.2-1.79
				v39.26L266.54,139.52z M236.76,139.83l-2.39-4.62l33.54-17.36l2.39,4.62l-33.54,17.37V139.83L236.76,139.83z M235.64,119.47
				l-2.24-4.69l34.36-16.51l2.24,4.69C269.99,102.96,235.64,119.47,235.64,119.47z M236.6,159.24l-2.27-4.68l34.01-19.15l3.4,4.02
				l-35.13,19.79V159.24L236.6,159.24z"/>
		</g>
	</g>
</g>
<g id="Name">
</g>
</svg>
