<?xml version="1.0" encoding="utf-8"?>
<!-- Generator: Adobe Illustrator 24.1.3, SVG Export Plug-In . SVG Version: 6.00 Build 0)  -->
<svg version="1.1" id="Layer_1" xmlns="http://www.w3.org/2000/svg" xmlns:xlink="http://www.w3.org/1999/xlink" x="0px" y="0px"
	 viewBox="0 0 1228.16 992.73" style="enable-background:new 0 0 1228.16 992.73;" xml:space="preserve">
<style type="text/css">
	.st0{fill:#434d4d;}
	.st1{fill:#6adfbe;stroke:#6adfbe;stroke-width:3;stroke-miterlimit:10;}
	.st2{fill:#6adfbe;stroke:#6adfbe;stroke-width:8;stroke-miterlimit:10;}
</style>
<g>
	<path class="st0" d="M1036.57,887.94l-65.32-33.18l65.32-33.18l65.32,33.18L1036.57,887.94z M995.64,854.76l40.93,20.79
		l40.93-20.79l-40.93-20.79L995.64,854.76z"/>
</g>
<g>
	<path class="st0" d="M1042.1,963.2l-64.17-32.59v-84.84l64.17,32.59V963.2z M988.97,923.82l42.08,21.38v-60.07l-42.08-21.37V923.82
		z"/>
</g>
<g>
	<path class="st0" d="M1036.58,960.38l-58.65-29.78v-79.23l58.65-29.78l58.65,29.78v79.23L1036.58,960.38z M988.98,923.82
		l47.6,24.18l47.6-24.18v-65.68l-47.6-24.18l-47.6,24.18V923.82z"/>
</g>
<g>
	<path class="st0" d="M1043.65,424.64c-14.21-3.1-23.25-17.18-20.15-31.39c3.1-14.21,17.18-23.25,31.39-20.16
		c14.21,3.1,23.25,17.18,20.16,31.39C1071.94,418.7,1057.86,427.74,1043.65,424.64z M1053.05,381.51
		c-9.57-2.09-19.06,4.01-21.15,13.58c-2.09,9.57,4.01,19.06,13.58,21.15c9.57,2.09,19.06-4.01,21.15-13.58
		C1068.72,393.08,1062.63,383.6,1053.05,381.51z"/>
</g>
<g>
	<path class="st0" d="M1121.84,546.39c-14.21-3.1-23.25-17.18-20.16-31.39c3.1-14.21,17.18-23.25,31.39-20.16
		c14.21,3.1,23.25,17.18,20.16,31.39C1150.13,540.44,1136.05,549.48,1121.84,546.39z M1131.23,503.25
		c-9.57-2.09-19.06,4.01-21.15,13.58c-2.09,9.57,4.01,19.06,13.58,21.15c9.57,2.09,19.06-4.01,21.15-13.58
		C1146.9,514.83,1140.81,505.34,1131.23,503.25z"/>
</g>
<g>
	<path class="st0" d="M1199.69,496.39c-14.21-3.1-23.25-17.18-20.16-31.39c3.1-14.21,17.18-23.25,31.39-20.16
		c14.21,3.1,23.25,17.18,20.15,31.39C1227.98,490.44,1213.9,499.48,1199.69,496.39z M1209.09,453.26
		c-9.57-2.09-19.06,4.01-21.15,13.58c-2.09,9.57,4.01,19.06,13.58,21.15c9.57,2.09,19.06-4.01,21.15-13.58
		C1224.75,464.83,1218.66,455.34,1209.09,453.26z"/>
</g>
<g>
	
		<rect x="1083.76" y="408.43" transform="matrix(0.8414 -0.5404 0.5404 0.8414 -75.6455 660.769)" class="st0" width="8.6" height="101.69"/>
</g>
<g>
	
		<rect x="1141.47" y="491.52" transform="matrix(0.8414 -0.5404 0.5404 0.8414 -83.0221 708.7145)" class="st0" width="49.2" height="8.6"/>
</g>
<g>
	<polygon class="st0" points="1036.58,887.93 980.96,859.68 985.96,849.84 1036.58,875.55 1087.2,849.84 1092.2,859.68 	"/>
</g>
<g>
	<rect x="1031.06" y="881.74" class="st0" width="11.04" height="72.45"/>
</g>
<g>
	<path class="st0" d="M224.48,720.43H28.74V580.18h195.74V720.43z M39.78,709.39h173.66V591.23H39.78V709.39z"/>
</g>
<g>
	<path class="st0" d="M200.91,698.29H52.3v-78.16h148.61V698.29z M63.35,687.25h126.52v-56.08H63.35V687.25z"/>
</g>
<g>
	<rect x="102.21" y="599.51" class="st0" width="20.02" height="11.04"/>
</g>
<g>
	<rect x="138.79" y="599.51" class="st0" width="20.02" height="11.04"/>
</g>
<g>
	<rect x="175.38" y="599.51" class="st0" width="20.02" height="11.04"/>
</g>
<g>
	<g>
		<path class="st0" d="M297.91,320.07l-32.97-16.6c-8.58,2.4-17.54,3.61-26.66,3.61c-44.83,0-81.31-29.39-81.31-65.51
			s36.47-65.51,81.31-65.51s81.31,29.39,81.31,65.51c0,16.69-7.67,32.42-21.67,44.56V320.07z M265.98,291.63l20.88,10.52V280.9
			l2.05-1.66c12.65-10.22,19.62-23.6,19.62-37.69c0-30.03-31.52-54.47-70.26-54.47s-70.26,24.44-70.26,54.47
			s31.52,54.47,70.26,54.47c8.8,0,17.41-1.26,25.59-3.76L265.98,291.63z"/>
	</g>
	<g>
		<rect x="209.1" y="220.87" class="st0" width="58.35" height="11.04"/>
	</g>
	<g>
		<rect x="209.1" y="249.86" class="st0" width="58.35" height="11.04"/>
	</g>
</g>
<g>
	<g>
		<path class="st0" d="M519.84,74.97h-9.59V49.61c0-15.53,12.63-28.16,28.16-28.16h171.83V56.4H538.41
			C528.17,56.4,519.84,64.73,519.84,74.97z M538.41,31.04c-10.24,0-18.58,8.33-18.58,18.58v4.21c4.96-4.36,11.46-7.01,18.58-7.01
			h162.24V31.04H538.41z"/>
	</g>
	<g>
		<path class="st0" d="M778.21,113.15h-77.56V35.59h77.56V113.15z M710.24,103.57h58.39V45.18h-58.39V103.57z"/>
	</g>
	<g>
		<path class="st0" d="M710.24,127.29H538.41c-15.53,0-28.16-12.63-28.16-28.16V49.61c0-15.53,12.63-28.16,28.16-28.16h171.83
			V127.29z M538.41,31.04c-10.24,0-18.58,8.33-18.58,18.58v49.52c0,10.24,8.33,18.58,18.58,18.58h162.24V31.04H538.41z"/>
	</g>
	<g>
		<rect x="741.54" y="85.17" class="st0" width="15.64" height="9.59"/>
	</g>
	<g>
		<rect x="741.54" y="53.99" class="st0" width="15.64" height="9.59"/>
	</g>
	<g>
		<rect x="705.44" y="85.17" class="st0" width="15.06" height="9.59"/>
	</g>
	<g>
		<rect x="705.44" y="53.99" class="st0" width="15.06" height="9.59"/>
	</g>
	<g>
		<rect x="546.68" y="94.94" class="st0" width="21.6" height="9.59"/>
	</g>
	<g>
		<rect x="586.73" y="94.94" class="st0" width="92.74" height="9.59"/>
	</g>
</g>
<g>
	<g>
		<rect x="271.38" y="536.49" class="st1" width="57.34" height="11.04"/>
	</g>
	<g>
		<rect x="294.53" y="513.34" class="st1" width="11.04" height="57.34"/>
	</g>
</g>
<g>
	<g>
		<rect x="6.95" y="30.93" class="st1" width="57.78" height="11.04"/>
	</g>
	<g>
		<rect x="30.32" y="7.56" class="st1" width="11.04" height="57.78"/>
	</g>
</g>
<g>
	<path class="st1" d="M208.77,66.01c-16.37,0-29.68-13.32-29.68-29.68S192.4,6.64,208.77,6.64s29.68,13.32,29.68,29.68
		S225.14,66.01,208.77,66.01z M208.77,17.68c-10.28,0-18.64,8.36-18.64,18.64s8.36,18.64,18.64,18.64s18.64-8.36,18.64-18.64
		S219.05,17.68,208.77,17.68z"/>
</g>
<g>
	<g>
		<rect x="858.89" y="397.86" class="st1" width="57.34" height="11.04"/>
	</g>
	<g>
		<rect x="882.04" y="374.71" class="st1" width="11.04" height="57.34"/>
	</g>
</g>
<g>
	<g>
		<rect x="157.43" y="369.47" class="st1" width="57.34" height="11.04"/>
	</g>
	<g>
		<rect x="180.58" y="346.32" class="st1" width="11.04" height="57.34"/>
	</g>
</g>
<g>
	<g>
		<rect x="643.89" y="844.4" class="st1" width="57.34" height="11.04"/>
	</g>
	<g>
		<rect x="667.04" y="821.25" class="st1" width="11.04" height="57.34"/>
	</g>
</g>
<g>
	<path class="st1" d="M492.91,232.6c-16.27,0-29.5-13.23-29.5-29.5c0-16.27,13.23-29.5,29.5-29.5s29.5,13.23,29.5,29.5
		C522.41,219.37,509.18,232.6,492.91,232.6z M492.91,184.65c-10.18,0-18.46,8.28-18.46,18.46c0,10.18,8.28,18.46,18.46,18.46
		c10.18,0,18.46-8.28,18.46-18.46C511.37,192.93,503.09,184.65,492.91,184.65z"/>
</g>
<g>
	<path class="st1" d="M1128.92,129.63c-16.27,0-29.5-13.23-29.5-29.5c0-16.27,13.23-29.5,29.5-29.5c16.27,0,29.5,13.23,29.5,29.5
		C1158.42,116.39,1145.19,129.63,1128.92,129.63z M1128.92,81.67c-10.18,0-18.45,8.28-18.45,18.46s8.28,18.46,18.45,18.46
		s18.46-8.28,18.46-18.46S1139.1,81.67,1128.92,81.67z"/>
</g>
<g>
	<path class="st1" d="M1009.9,571.81c-16.27,0-29.5-13.23-29.5-29.5c0-16.27,13.23-29.5,29.5-29.5s29.5,13.23,29.5,29.5
		C1039.4,558.58,1026.17,571.81,1009.9,571.81z M1009.9,523.86c-10.18,0-18.46,8.28-18.46,18.46s8.28,18.45,18.46,18.45
		s18.46-8.28,18.46-18.45S1020.08,523.86,1009.9,523.86z"/>
</g>
<g>
	<path class="st1" d="M843,930.6c-16.27,0-29.5-13.23-29.5-29.5c0-16.27,13.23-29.5,29.5-29.5c16.27,0,29.5,13.23,29.5,29.5
		C872.5,917.37,859.27,930.6,843,930.6z M843,882.65c-10.18,0-18.46,8.28-18.46,18.46c0,10.18,8.28,18.45,18.46,18.45
		c10.18,0,18.46-8.28,18.46-18.45C861.46,890.93,853.18,882.65,843,882.65z"/>
</g>
<polygon class="st1" points="142.09,832.82 135.38,832.82 135.38,851.17 117.03,851.17 117.03,857.88 135.38,857.88 135.38,876.23 
	142.09,876.23 142.09,857.88 160.44,857.88 160.44,851.17 142.09,851.17 "/>
<polygon class="st1" points="1149.08,301.22 1130.73,301.22 1130.73,282.86 1124.02,282.86 1124.02,301.22 1105.67,301.22 
	1105.67,307.92 1124.02,307.92 1124.02,326.27 1130.73,326.27 1130.73,307.92 1149.08,307.92 "/>
<path class="st1" d="M809.71,728.88c-11.41,0-20.7,9.29-20.7,20.7c0,11.41,9.29,20.7,20.7,20.7c11.41,0,20.7-9.29,20.7-20.7
	C830.41,738.17,821.13,728.88,809.71,728.88z M809.71,763.57c-7.72,0-14-6.28-14-13.99c0-7.72,6.28-14,14-14s14,6.28,14,14
	C823.71,757.3,817.43,763.57,809.71,763.57z"/>
<g>
	<g>
		<path class="st0" d="M318.32,195.63l-7.72-6.35c13.69-16.63,28.94-32.15,45.32-46.13l6.49,7.61
			C346.47,164.35,331.64,179.46,318.32,195.63z"/>
	</g>
	<g>
		<path class="st0" d="M556.52,785.82c-61.92-6.18-121.63-28.32-172.68-64.01l5.73-8.2c49.65,34.72,107.72,56.25,167.94,62.26
			L556.52,785.82z"/>
	</g>
	<g>
		<path class="st0" d="M826.11,704.08l-6.37-7.71c26.75-22.07,50.09-47.85,69.39-76.61l8.3,5.57
			C877.6,654.89,853.61,681.39,826.11,704.08z"/>
	</g>
	<g>
		<path class="st0" d="M865.8,192.61c-17.57-20.88-37.54-39.74-59.37-56.08l5.99-8.01c22.44,16.8,42.97,36.19,61.03,57.65
			L865.8,192.61z"/>
	</g>
	<g>
		<path class="st0" d="M593.32,934.57v-10c39.12,0,78.08-4.51,115.79-13.39l2.29,9.73C672.94,929.98,633.21,934.57,593.32,934.57z"
			/>
	</g>
	<g>
		<path class="st0" d="M979.77,758.91l-7.53-6.58c49.54-56.73,86.21-124.89,106.06-197.13l9.64,2.65
			C1067.7,631.53,1030.3,701.05,979.77,758.91z"/>
	</g>
	<g>
		<path class="st0" d="M1016.37,149.67c-12.53-19.44-26.54-38.21-41.65-55.77l7.58-6.52c15.41,17.91,29.7,37.05,42.47,56.87
			L1016.37,149.67z"/>
	</g>
	<g>
		<path class="st0" d="M87.65,507.92c-4.79-28.29-7.22-57.31-7.22-86.24c0-130.76,49.22-255.3,138.59-350.66l7.3,6.84
			c-87.63,93.5-135.89,215.6-135.89,343.82c0,28.37,2.38,56.82,7.08,84.57L87.65,507.92z"/>
	</g>
	<g>
		<path class="st0" d="M333.88,864.21c-25.2-14.81-49.32-31.91-71.68-50.83l6.46-7.63c21.93,18.55,45.57,35.32,70.29,49.84
			L333.88,864.21z"/>
	</g>
</g>
<g>
	<g>
		<polygon class="st0" points="610.58,617.84 835.52,617.84 807.59,583.23 610.58,583.23 413.58,583.23 385.65,617.84 		"/>
	</g>
	<polygon class="st1" points="399.23,632.55 399.23,641.2 610.58,641.2 821.94,641.2 821.94,632.55 610.58,632.55 	"/>
	<rect x="478.9" y="388.85" class="st1" width="264.28" height="8.65"/>
	<rect x="479.58" y="431.97" class="st1" width="264.28" height="8.65"/>
	<path class="st2" d="M799.29,473.69V288.64H421.88v249.6h377.41v-53.69C799.29,479.73,799.29,476.68,799.29,473.69z M791.85,474.65
		L791.85,474.65c0,1.6-0.27,9.08,0,9.08h-0.11v45.85H429.43v-232.3h362.32L791.85,474.65z"/>
	<path class="st2" d="M825.33,563.85v-80.12l-0.03-5.99c0,3,0.05-3.09,0.05-2.66h-0.02V257.92h-429.5v305.93l-56.99,71.34v25.91
		h543.47v-25.91L825.33,563.85z M403.38,266.57h414.4v203.16c0,9.99,0,8.98,0,18.74v71.82h-414.4V266.57z M874.77,652.44H346.4
		v-13.89l55.6-69.6h417.18l55.6,69.6V652.44z"/>
	<rect x="479.04" y="472.78" class="st1" width="264.28" height="8.65"/>
</g>
</svg>
