<?xml version="1.0" encoding="utf-8"?>
<!-- Generator: Adobe Illustrator 24.1.3, SVG Export Plug-In . SVG Version: 6.00 Build 0)  -->
<svg version="1.1" id="Layer_1" xmlns="http://www.w3.org/2000/svg" xmlns:xlink="http://www.w3.org/1999/xlink" x="0px" y="0px"
	 viewBox="0 0 1228.16 992.73" style="enable-background:new 0 0 1228.16 992.73;" xml:space="preserve">
<style type="text/css">
	.st0{fill:#434d4d;}
	.st1{fill:#6adfbe;}
	.st2{fill:#6adfbe;stroke:#6adfbe;stroke-width:8;stroke-miterlimit:10;}
</style>
<g>
	<g>
		<path class="st0" d="M734.47,688.53h-247V230.4h247V688.53z M497.47,678.53h227V240.4h-227V678.53z"/>
	</g>
	<g>
		<path class="st0" d="M1037.47,357.2h-160.5V252.72h160.5V357.2z M886.97,347.2h140.5v-84.47h-140.5V347.2z"/>
	</g>
	<g>
		<polygon class="st0" points="957.22,327.99 878.74,261.54 885.2,253.9 957.22,314.88 1029.24,253.9 1035.7,261.54 		"/>
	</g>
	<g>
		
			<rect x="871.39" y="321.65" transform="matrix(0.7072 -0.7071 0.7071 0.7072 34.8049 737.3263)" class="st0" width="72.26" height="10"/>
	</g>
	<g>
		
			<rect x="1001.88" y="290.4" transform="matrix(0.7071 -0.7071 0.7071 0.7071 63.9664 807.6276)" class="st0" width="10" height="72.4"/>
	</g>
	<g>
		<path class="st0" d="M980.48,577.27c-2.96,0-5.92-0.34-8.82-1.06c-7.68-1.9-15.21-6.22-21.77-12.5
			c-15.5-14.85-22.1-38.29-16.42-58.3c5.97-21.05,24.95-37.09,46.15-39.02c15.78-1.43,31.29,4.95,40.5,16.65
			c9.98,12.69,11.3,30.7,3.23,43.8c-3.15,5.12-7.22,8.21-11.77,8.94c-3.66,0.58-7.53-0.45-10.82-2.78
			c-0.34,0.91-0.74,1.82-1.18,2.71c-3.43,6.9-9.33,11.89-16.19,13.71c-6.86,1.82-14.46,0.4-20.86-3.89
			c-6.4-4.29-10.6-10.78-11.52-17.82c-1.41-10.74,4.43-22.35,14.54-28.89c10.27-6.64,22.27-7.18,30.54-6.46l-0.87,9.96
			c-6.7-0.58-16.35-0.21-24.24,4.9c-6.93,4.48-10.97,12.2-10.05,19.19c0.55,4.18,3.16,8.12,7.17,10.81
			c4.01,2.69,8.65,3.61,12.73,2.53c4.08-1.08,7.65-4.18,9.8-8.5c1.92-3.86,2.38-8.03,1.32-11.66c-0.18-0.52-0.36-1.02-0.54-1.52
			l9.35-3.54c0.26,0.63,0.49,1.27,0.69,1.92c0.91,2.53,1.94,5,3.44,6.84c1.49,1.82,3.54,2.87,5.11,2.62
			c2.11-0.34,3.93-2.84,4.84-4.31c5.83-9.45,4.74-23.07-2.58-32.38c-7.02-8.93-19.47-13.99-31.73-12.87
			c-16.9,1.53-32.64,14.9-37.43,31.79c-4.7,16.56,0.82,35.99,13.72,48.35c5.3,5.07,11.26,8.54,17.25,10.02
			c14.28,3.52,31.07-5.54,35.96-19.41l9.43,3.32C1013.84,566.35,997.2,577.27,980.48,577.27z"/>
	</g>
	<g>
		<path class="st0" d="M980,599.22c-42.72,0-77.48-34.76-77.48-77.48c0-42.72,34.76-77.48,77.48-77.48s77.48,34.76,77.48,77.48
			C1057.48,564.46,1022.72,599.22,980,599.22z M980,454.26c-37.21,0-67.48,30.27-67.48,67.48s30.27,67.48,67.48,67.48
			s67.48-30.27,67.48-67.48S1017.21,454.26,980,454.26z"/>
	</g>
	<g>
		<g>
			<path class="st0" d="M261.97,369.02c-8.51,0-15.43-6.92-15.43-15.43c0-8.51,6.92-15.43,15.43-15.43s15.43,6.92,15.43,15.43
				C277.41,362.1,270.48,369.02,261.97,369.02z M261.97,348.16c-3,0-5.43,2.44-5.43,5.43s2.44,5.43,5.43,5.43s5.43-2.44,5.43-5.43
				S264.97,348.16,261.97,348.16z"/>
		</g>
		<g>
			<path class="st0" d="M222.18,369.02c-8.51,0-15.43-6.92-15.43-15.43c0-8.51,6.92-15.43,15.43-15.43
				c8.51,0,15.43,6.92,15.43,15.43C237.61,362.1,230.69,369.02,222.18,369.02z M222.18,348.16c-3,0-5.43,2.44-5.43,5.43
				s2.44,5.43,5.43,5.43c3,0,5.43-2.44,5.43-5.43S225.18,348.16,222.18,348.16z"/>
		</g>
		<g>
			<path class="st0" d="M301.76,369.02c-8.51,0-15.43-6.92-15.43-15.43c0-8.51,6.92-15.43,15.43-15.43
				c8.51,0,15.43,6.92,15.43,15.43C317.2,362.1,310.27,369.02,301.76,369.02z M301.76,348.16c-3,0-5.43,2.44-5.43,5.43
				s2.44,5.43,5.43,5.43c3,0,5.43-2.44,5.43-5.43S304.76,348.16,301.76,348.16z"/>
		</g>
		<g>
			<path class="st0" d="M309.97,437.92l-30.7-30.7h-64.92c-14.82,0-26.88-12.06-26.88-26.88v-53.5c0-14.82,12.06-26.88,26.88-26.88
				h95.24c14.82,0,26.88,12.06,26.88,26.88v53.5c0,14.7-11.85,26.67-26.5,26.88V437.92z M214.35,309.96
				c-9.31,0-16.88,7.57-16.88,16.88v53.5c0,9.31,7.57,16.88,16.88,16.88h69.06l16.55,16.55v-16.55h9.62
				c9.31,0,16.88-7.57,16.88-16.88v-53.5c0-9.31-7.57-16.88-16.88-16.88H214.35z"/>
		</g>
	</g>
	<g>
		<g>
			<path class="st0" d="M208.16,680.47h-36.25V567.72h36.25V680.47z M181.91,670.47h16.25v-92.75h-16.25V670.47z"/>
		</g>
		<g>
			
				<rect x="230.69" y="561.83" transform="matrix(0.1704 -0.9854 0.9854 0.1704 -390.6136 725.7397)" class="st0" width="10" height="66.03"/>
		</g>
		<g>
			
				<rect x="202.68" y="648.35" transform="matrix(0.9854 -0.1703 0.1703 0.9854 -107.8335 49.689)" class="st0" width="66.03" height="10"/>
		</g>
		<g>
			<path class="st0" d="M309.79,652.97h-48.01v-57.5h48.01V652.97z M271.78,642.97h28.01v-37.5h-28.01V642.97z"/>
		</g>
		<g>
			<path class="st0" d="M331.16,643.22h-31.38v-38h31.38V643.22z M309.79,633.22h11.38v-18h-11.38V633.22z"/>
		</g>
		<g>
			<path class="st0" d="M309.79,695.85h-29v-52.88h29V695.85z M290.78,685.85h9v-32.88h-9V685.85z"/>
		</g>
	</g>
	<g>
		<g>
			<path class="st0" d="M503.73,155.6L429.72,8.72l222.21,40.03l-55.86,35.32l-5.02,64.83l-44.6-26.37L503.73,155.6z M447.67,22.11
				l59.53,118.15l38.5-29.8l36.62,21.66l4.17-53.83l38.38-24.26L447.67,22.11z"/>
		</g>
		<g>
			<polygon class="st0" points="516.02,146.08 509.9,138.18 563.43,96.75 474.27,38.43 478.9,29.62 593.18,76.56 589.38,85.81 
				523.78,58.87 580.66,96.06 			"/>
		</g>
		<g>
			
				<rect x="574.37" y="95.22" transform="matrix(0.949 -0.3151 0.3151 0.949 -7.8103 188.6101)" class="st0" width="10" height="46.48"/>
		</g>
	</g>
	<g>
		
			<rect x="427.31" y="171.88" transform="matrix(0.9605 -0.2783 0.2783 0.9605 -31.6328 130.9407)" class="st0" width="36.06" height="10"/>
	</g>
	<g>
		
			<rect x="372.05" y="214.82" transform="matrix(0.2643 -0.9644 0.9644 0.2643 73.7449 536.3206)" class="st0" width="32.76" height="10"/>
	</g>
	<g>
		
			<rect x="393.31" y="253.98" transform="matrix(0.7023 -0.7118 0.7118 0.7023 -73.5572 363.8721)" class="st0" width="10" height="31.82"/>
	</g>
	<g>
		<path class="st0" d="M1019.77,815.74h-98.53v-98.53h98.53V815.74z M931.24,805.74h78.53v-78.53h-78.53V805.74z"/>
	</g>
	<g>
		<polygon class="st0" points="963.99,781.03 946.24,763.28 929.78,779.74 922.71,772.67 946.24,749.13 963.99,766.88 
			992.74,738.13 1017.92,763.32 1010.85,770.39 992.74,752.28 		"/>
	</g>
	<g>
		<path class="st0" d="M660.47,510.22c-14.06,0-25.5-11.44-25.5-25.5s11.44-25.5,25.5-25.5c7.35,0,14.35,3.17,19.19,8.71l-7.52,6.59
			c-2.95-3.37-7.2-5.3-11.67-5.3c-8.55,0-15.5,6.95-15.5,15.5s6.95,15.5,15.5,15.5V510.22z"/>
	</g>
	<g>
		<path class="st0" d="M617.47,484.72h-10c0-19.48,10.65-37.35,27.8-46.64c7.69-4.16,16.4-6.36,25.2-6.36
			c21.35,0,40.52,12.71,48.83,32.37l-9.21,3.89c-6.75-15.95-22.3-26.26-39.62-26.26c-7.14,0-14.21,1.78-20.44,5.16
			C626.12,454.41,617.47,468.91,617.47,484.72z"/>
	</g>
	<g>
		<path class="st0" d="M660.47,537.72v-10c15.3,0,29.58-8.24,37.25-21.5l8.66,5.01C696.92,527.57,679.33,537.72,660.47,537.72z"/>
	</g>
	<g>
		<path class="st0" d="M559.58,582.22v-10c8.55,0,15.5-6.95,15.5-15.5s-6.95-15.5-15.5-15.5v-10c14.06,0,25.5,11.44,25.5,25.5
			S573.65,582.22,559.58,582.22z"/>
	</g>
	<g>
		<path class="st0" d="M559.58,609.72v-10c12.88,0,24.97-5.7,33.18-15.65l7.71,6.37C590.37,602.69,575.46,609.72,559.58,609.72z"/>
	</g>
	<g>
		<path class="st0" d="M516.58,556.72h-10c0-29.22,23.78-53,53-53c7.91,0,15.53,1.7,22.64,5.06l-4.28,9.04
			c-5.76-2.72-11.94-4.1-18.36-4.1C535.87,513.72,516.58,533.01,516.58,556.72z"/>
	</g>
	<g>
		<path class="st0" d="M618.36,288.33h-87.47c-10.2,0-18.5-8.3-18.5-18.5s8.3-18.5,18.5-18.5h87.47c10.2,0,18.5,8.3,18.5,18.5
			S628.56,288.33,618.36,288.33z M530.89,261.33c-4.69,0-8.5,3.81-8.5,8.5s3.81,8.5,8.5,8.5h87.47c4.69,0,8.5-3.81,8.5-8.5
			s-3.81-8.5-8.5-8.5H530.89z"/>
	</g>
	<g>
		<path class="st0" d="M709.43,288.33h-59.57v-37h59.57V288.33z M659.86,278.33h39.57v-17h-39.57V278.33z"/>
	</g>
	<g>
		<path class="st0" d="M669.75,656.72h-59.57v-37h59.57V656.72z M620.19,646.72h39.57v-17h-39.57V646.72z"/>
	</g>
	<g>
		<rect x="542.04" y="312.05" class="st0" width="162.66" height="10"/>
	</g>
	<g>
		<rect x="610.97" y="348.97" class="st0" width="43.89" height="10"/>
	</g>
	<g>
		<rect x="517.24" y="385.89" class="st0" width="46.85" height="10"/>
	</g>
	<g>
		<rect x="542.04" y="422.81" class="st0" width="62.18" height="10"/>
	</g>
	<g>
		<rect x="517.24" y="644.31" class="st0" width="70.73" height="10"/>
	</g>
	<g>
		<path class="st0" d="M413.48,701.88c-14.36-15.64-26.84-32.96-37.1-51.49l8.75-4.85c9.88,17.83,21.9,34.51,35.72,49.57
			L413.48,701.88z"/>
	</g>
	<g>
		<path class="st0" d="M863,465.29c-8.14-37.17-24.85-72.76-48.33-102.92l7.89-6.14c24.39,31.33,41.75,68.3,50.2,106.92L863,465.29z
			"/>
	</g>
	<g>
		<path class="st0" d="M237.2,520.72h-10c0-28.72,3.19-57.35,9.47-85.11l9.75,2.21C240.3,464.85,237.2,492.74,237.2,520.72z"/>
	</g>
	<g>
		<path class="st0" d="M610.97,904.49c-65.54,0-130.24-16.81-187.09-48.62l4.88-8.73c55.37,30.97,118.37,47.34,182.21,47.34
			c15.71,0,31.52-0.98,46.99-2.93l1.24,9.92C643.32,903.48,627.09,904.49,610.97,904.49z"/>
	</g>
	<g>
		<path class="st0" d="M763.61,872.94l-3.98-9.17c28.24-12.25,54.96-28.04,79.42-46.9l6.11,7.92
			C820.04,844.15,792.6,860.36,763.61,872.94z"/>
	</g>
	<g>
		<path class="st0" d="M959.45,681.7l-9.08-4.2c8.86-19.14,16.12-39.17,21.59-59.53l9.66,2.6
			C976.01,641.47,968.55,662.04,959.45,681.7z"/>
	</g>
	<g>
		<path class="st0" d="M978.1,450.2c-4.74-24.84-12.06-49.28-21.75-72.63l9.24-3.83c9.95,23.98,17.47,49.08,22.34,74.59L978.1,450.2
			z"/>
	</g>
	<g>
		<path class="st0" d="M879.2,260.41c-35.16-36.23-76.46-64.52-122.74-84.09l3.9-9.21c47.52,20.1,89.92,49.15,126.02,86.34
			L879.2,260.41z"/>
	</g>
	<g>
		<path class="st0" d="M207.29,249.11l-8.29-5.59c45.6-67.63,107.72-123.55,179.66-161.7l4.69,8.83
			C312.85,128.03,251.98,182.83,207.29,249.11z"/>
	</g>
	<g>
		<path class="st0" d="M124.47,520.72h-10c0-24.16,1.75-48.45,5.21-72.18c4.5-30.88,11.96-61.45,22.19-90.88l9.45,3.28
			c-10.02,28.82-17.33,58.78-21.74,89.03C126.19,473.24,124.47,497.04,124.47,520.72z"/>
	</g>
	<g>
		<path class="st0" d="M210.09,813.7c-12.94-17.68-24.82-36.38-35.29-55.58l8.78-4.79c10.26,18.81,21.89,37.13,34.58,54.46
			L210.09,813.7z"/>
	</g>
	<g>
		<path class="st0" d="M364.98,952.1c-49.23-28.13-93.02-64.22-130.14-107.26l7.57-6.53c36.38,42.18,79.28,77.54,127.52,105.11
			L364.98,952.1z"/>
	</g>
	<g>
		<path class="st0" d="M1073.99,700.32l-9.32-3.62c17.03-43.86,27.55-89.99,31.27-137.1l9.97,0.79
			C1102.11,608.46,1091.37,655.54,1073.99,700.32z"/>
	</g>
	<g>
		<path class="st0" d="M1038.49,856.51H902.52V698.49h135.97V856.51z M912.52,846.51h115.97V708.49H912.52V846.51z M1019.77,815.74
			h-98.53v-98.53h98.53V815.74z M931.24,805.74h78.53v-78.53h-78.53V805.74z"/>
	</g>
	<g>
		<path class="st1" d="M272.24,110.3c-14.82,0-26.88-12.06-26.88-26.88s12.06-26.88,26.88-26.88s26.88,12.06,26.88,26.88
			S287.06,110.3,272.24,110.3z M272.24,66.54c-9.31,0-16.88,7.57-16.88,16.88s7.57,16.88,16.88,16.88s16.88-7.57,16.88-16.88
			S281.54,66.54,272.24,66.54z"/>
	</g>
	<g>
		<path class="st2" d="M719.61,793.52H502.33c-29.7,0-53.86-24.16-53.86-53.86V241.78c0-29.7,24.16-53.86,53.86-53.86h217.28
			c29.7,0,53.86,24.16,53.86,53.86v497.88C773.47,769.36,749.31,793.52,719.61,793.52z M502.33,197.92
			c-24.19,0-43.86,19.68-43.86,43.86v497.88c0,24.19,19.68,43.86,43.86,43.86h217.28c24.19,0,43.86-19.68,43.86-43.86V241.78
			c0-24.19-19.68-43.86-43.86-43.86H502.33z"/>
	</g>
	<g>
		<path class="st1" d="M642.47,760.72h-63c-12.68,0-23-10.32-23-23s10.32-23,23-23h63c12.68,0,23,10.32,23,23
			S655.15,760.72,642.47,760.72z M579.47,724.72c-7.17,0-13,5.83-13,13s5.83,13,13,13h63c7.17,0,13-5.83,13-13s-5.83-13-13-13
			H579.47z"/>
	</g>
	<g>
		<path class="st1" d="M383.47,561.72h-32c-13.79,0-25-11.21-25-25v-32c0-13.79,11.21-25,25-25h32c13.79,0,25,11.21,25,25v32
			C408.47,550.51,397.26,561.72,383.47,561.72z M351.47,489.72c-8.27,0-15,6.73-15,15v32c0,8.27,6.73,15,15,15h32
			c8.27,0,15-6.73,15-15v-32c0-8.27-6.73-15-15-15H351.47z"/>
	</g>
	<g>
		<path class="st1" d="M695.65,155.68h-32c-13.79,0-25-11.21-25-25v-32c0-13.79,11.21-25,25-25h32c13.79,0,25,11.21,25,25v32
			C720.65,144.47,709.43,155.68,695.65,155.68z M663.65,83.68c-8.27,0-15,6.73-15,15v32c0,8.27,6.73,15,15,15h32
			c8.27,0,15-6.73,15-15v-32c0-8.27-6.73-15-15-15H663.65z"/>
	</g>
	<g>
		<path class="st1" d="M866.26,636.99h-32c-13.79,0-25-11.21-25-25v-32c0-13.79,11.21-25,25-25h32c13.79,0,25,11.21,25,25v32
			C891.26,625.77,880.04,636.99,866.26,636.99z M834.26,564.99c-8.27,0-15,6.73-15,15v32c0,8.27,6.73,15,15,15h32
			c8.27,0,15-6.73,15-15v-32c0-8.27-6.73-15-15-15H834.26z"/>
	</g>
	<g>
		<path class="st1" d="M387.69,817.21h-32c-13.79,0-25-11.21-25-25v-32c0-13.79,11.21-25,25-25h32c13.79,0,25,11.21,25,25v32
			C412.69,805.99,401.47,817.21,387.69,817.21z M355.69,745.21c-8.27,0-15,6.73-15,15v32c0,8.27,6.73,15,15,15h32
			c8.27,0,15-6.73,15-15v-32c0-8.27-6.73-15-15-15H355.69z"/>
	</g>
	<g>
		<path class="st1" d="M747.47,979.15h-32c-13.79,0-25-11.21-25-25v-32c0-13.79,11.21-25,25-25h32c13.79,0,25,11.21,25,25v32
			C772.47,967.94,761.26,979.15,747.47,979.15z M715.47,907.15c-8.27,0-15,6.73-15,15v32c0,8.27,6.73,15,15,15h32
			c8.27,0,15-6.73,15-15v-32c0-8.27-6.73-15-15-15H715.47z"/>
	</g>
	<g>
		<path class="st1" d="M734.47,688.53h-247V230.4h247V688.53z M497.47,678.53h227V240.4h-227V678.53z"/>
	</g>
	<g>
		<path class="st1" d="M882.61,162.11l-4.53-12.83c-5.08-14.37-14.89-24.16-30-29.93l-12.71-4.85l12.83-4.53
			c14.37-5.08,24.16-14.89,29.93-30l4.85-12.71l4.53,12.83c5.08,14.37,14.89,24.16,30,29.93l12.71,4.85l-12.83,4.53
			c-14.37,5.08-24.16,14.89-29.93,30L882.61,162.11z M861.68,114.76c9.07,5.23,16.15,12.26,21.18,21.03
			c5.23-9.07,12.26-16.15,21.03-21.18c-9.07-5.23-16.15-12.26-21.18-21.03C877.48,102.64,870.45,109.73,861.68,114.76z"/>
	</g>
	<g>
		<path class="st1" d="M886.07,985.58l-4.53-12.83c-5.08-14.37-14.89-24.16-30-29.93l-12.71-4.85l12.83-4.53
			c14.37-5.08,24.16-14.89,29.93-30l4.85-12.71l4.53,12.83c5.08,14.37,14.89,24.16,30,29.93l12.71,4.85l-12.83,4.53
			c-14.37,5.08-24.16,14.89-29.93,30L886.07,985.58z M865.15,938.23c9.07,5.23,16.15,12.26,21.18,21.03
			c5.23-9.07,12.26-16.15,21.03-21.18c-9.07-5.23-16.15-12.26-21.18-21.03C880.95,926.12,873.92,933.2,865.15,938.23z"/>
	</g>
	<g>
		<path class="st1" d="M306.48,268.14l-4.53-12.83c-3.7-10.46-10.86-17.6-21.88-21.81l-12.71-4.85l12.83-4.53
			c10.46-3.7,17.6-10.85,21.81-21.88l4.85-12.71l4.53,12.83c3.7,10.46,10.85,17.6,21.88,21.81l12.71,4.85l-12.83,4.53
			c-10.46,3.7-17.59,10.85-21.81,21.88L306.48,268.14z M293.15,228.89c5.59,3.54,10.12,8.03,13.57,13.45
			c3.54-5.59,8.04-10.12,13.45-13.57c-5.59-3.54-10.12-8.03-13.57-13.45C303.06,220.91,298.57,225.44,293.15,228.89z"/>
	</g>
</g>
</svg>
