<?xml version="1.0" encoding="utf-8"?>
<!-- Generator: Adobe Illustrator 24.1.3, SVG Export Plug-In . SVG Version: 6.00 Build 0)  -->
<svg version="1.1" id="Layer_1" xmlns="http://www.w3.org/2000/svg" xmlns:xlink="http://www.w3.org/1999/xlink" x="0px" y="0px"
	 viewBox="0 0 1228.16 992.73" style="enable-background:new 0 0 1228.16 992.73;" xml:space="preserve">
<style type="text/css">
	.st0{fill:#434d4d;}
	.st1{fill:#6adfbe;}
	.st2{fill:#6adfbe;stroke:#6adfbe;stroke-width:3;stroke-miterlimit:10;}
</style>
<g>
	<g>
		<g>
			<path class="st0" d="M387.35,577.1h-77.44V504.7L387.35,577.1z M319.91,567.1h42.1l-42.1-39.37V567.1z"/>
		</g>
		<g>
			<rect x="781.32" y="474.83" class="st0" width="404.4" height="10"/>
		</g>
		<g>
			<rect x="4.95" y="474.83" class="st0" width="411.38" height="10"/>
		</g>
		<g>
			<path class="st0" d="M304.69,442.28l-2.87-0.7c-22.57-5.48-46.18-5.48-68.76,0l-2.87,0.7l-2-2.17
				c-26.36-28.7-40.88-65.96-40.88-104.91c0-27.73,7.41-54.94,21.42-78.69c13.59-23.05,33.03-42.32,56.2-55.73l2.5-1.45l2.5,1.45
				c23.17,13.41,42.6,32.68,56.2,55.73c14.01,23.76,21.42,50.97,21.42,78.69c0,38.95-14.52,76.21-40.88,104.91L304.69,442.28z
				 M267.44,210.91c-43.33,26.25-70.12,73.6-70.12,124.28c0,35.47,12.87,69.44,36.3,95.99c22.26-4.96,45.38-4.96,67.63,0
				c23.43-26.55,36.3-60.52,36.3-95.99C337.57,284.52,310.77,237.17,267.44,210.91z"/>
		</g>
		<g>
			<path class="st0" d="M267.44,368.14c-26.04,0-47.23-21.19-47.23-47.23c0-26.04,21.19-47.23,47.23-47.23s47.23,21.19,47.23,47.23
				C314.67,346.95,293.49,368.14,267.44,368.14z M267.44,283.69c-20.53,0-37.23,16.7-37.23,37.23c0,20.53,16.7,37.23,37.23,37.23
				s37.23-16.7,37.23-37.23C304.67,300.39,287.97,283.69,267.44,283.69z"/>
		</g>
		<g>
			<polygon class="st0" points="190.46,485.71 158.08,402.45 196.14,375.57 201.91,383.74 170.23,406.11 194.19,467.72 
				228.33,433.2 235.44,440.24 			"/>
		</g>
		<g>
			<polygon class="st0" points="344.43,485.71 299.45,440.24 306.56,433.2 340.7,467.72 364.66,406.11 332.98,383.74 338.75,375.57 
				376.81,402.45 			"/>
		</g>
		<g>
			<rect x="262.44" y="384.83" class="st0" width="10" height="91.89"/>
		</g>
		<g>
			<path class="st0" d="M297.56,419.07l-2.87-0.7c-8.95-2.17-18.12-3.27-27.25-3.27v-10c8.93,0,17.89,0.97,26.68,2.88
				c18.33-20.98,28.39-47.73,28.39-75.65c0-40.95-22.06-79.15-57.58-99.7l5.01-8.66c38.59,22.33,62.57,63.85,62.57,108.36
				c0,31.4-11.7,61.43-32.95,84.57L297.56,419.07z"/>
		</g>
		<g>
			<path class="st0" d="M267.44,352.76c-17.56,0-31.85-14.29-31.85-31.85c0-17.56,14.29-31.85,31.85-31.85s31.85,14.29,31.85,31.85
				C299.29,338.47,285.01,352.76,267.44,352.76z M267.44,299.06c-12.05,0-21.85,9.8-21.85,21.85s9.8,21.85,21.85,21.85
				s21.85-9.8,21.85-21.85S279.49,299.06,267.44,299.06z"/>
		</g>
		<g>
			<path class="st0" d="M860.26,463.28c-29.67,0-53.82-24.14-53.82-53.82c0-29.68,24.14-53.83,53.82-53.83
				c8.07,0,15.82,1.74,23.02,5.17l4.5,2.14l-20.64,43.67l45.47,16.33l-1.69,4.7C903.27,448.96,882.92,463.28,860.26,463.28z
				 M860.26,365.63c-24.16,0-43.82,19.66-43.82,43.83c0,24.16,19.66,43.82,43.82,43.82c16.76,0,31.98-9.62,39.28-24.39l-46.16-16.58
				l20.97-44.36C869.85,366.41,865.13,365.63,860.26,365.63z"/>
		</g>
		<g>
			<path class="st0" d="M929.66,424.2l-55.84-20.06l25.36-53.64l4.52,2.13c18.72,8.84,30.81,27.94,30.81,48.67
				c0,6.23-1.06,12.35-3.16,18.2L929.66,424.2z M887.57,398.46l35.79,12.86c0.77-3.27,1.15-6.62,1.15-10.01
				c0-15.19-7.98-29.31-20.69-37.23L887.57,398.46z"/>
		</g>
		<g>
			<path class="st0" d="M982.89,484.83h-35.72v-48.9h35.72V484.83z M957.17,474.83h15.72v-28.9h-15.72V474.83z"/>
		</g>
		<g>
			<path class="st0" d="M1034.34,484.83h-35.72v-96.28h35.72V484.83z M1008.61,474.83h15.72v-76.28h-15.72V474.83z"/>
		</g>
		<g>
			<path class="st0" d="M1085.78,484.83h-35.72v-116.2h35.72V484.83z M1060.06,474.83h15.72v-96.2h-15.72V474.83z"/>
		</g>
		<g>
			<path class="st0" d="M1137.22,484.83h-35.72V308.2h35.72V484.83z M1111.5,474.83h15.72V318.2h-15.72V474.83z"/>
		</g>
		<g>
			<g>
				<path class="st0" d="M341.05,145.16h-53.99V91.17L341.05,145.16z M297.06,135.16h19.85l-19.85-19.85V135.16z"/>
			</g>
			<g>
				<path class="st0" d="M400.79,170.91H261.3V31.42L400.79,170.91z M271.3,160.91h105.35L271.3,55.57V160.91z"/>
			</g>
			<g>
				
					<rect x="278.78" y="65.26" transform="matrix(0.7072 -0.7071 0.7071 0.7072 33.6966 221.8709)" class="st0" width="11.84" height="10"/>
			</g>
			<g>
				
					<rect x="291.87" y="78.35" transform="matrix(0.7072 -0.7071 0.7071 0.7072 28.2742 234.96)" class="st0" width="11.84" height="10"/>
			</g>
			<g>
				
					<rect x="304.96" y="91.44" transform="matrix(0.7072 -0.7071 0.7071 0.7072 22.8518 248.0491)" class="st0" width="11.84" height="10"/>
			</g>
			<g>
				
					<rect x="318.05" y="104.53" transform="matrix(0.7072 -0.7071 0.7071 0.7072 17.4296 261.1386)" class="st0" width="11.84" height="10"/>
			</g>
			<g>
				
					<rect x="331.14" y="117.62" transform="matrix(0.7072 -0.7071 0.7071 0.7072 12.0074 274.2281)" class="st0" width="11.84" height="10"/>
			</g>
			<g>
				
					<rect x="344.23" y="130.71" transform="matrix(0.7072 -0.7071 0.7071 0.7072 6.585 287.3172)" class="st0" width="11.84" height="10"/>
			</g>
			<g>
				
					<rect x="357.32" y="143.8" transform="matrix(0.7072 -0.7071 0.7071 0.7072 1.1627 300.4063)" class="st0" width="11.84" height="10"/>
			</g>
			<g>
				<rect x="275.73" y="152.17" class="st0" width="10" height="13.75"/>
			</g>
			<g>
				<rect x="292.79" y="152.17" class="st0" width="10" height="13.75"/>
			</g>
			<g>
				<rect x="309.85" y="152.17" class="st0" width="10" height="13.75"/>
			</g>
			<g>
				<rect x="326.91" y="152.17" class="st0" width="10" height="13.75"/>
			</g>
			<g>
				<rect x="343.97" y="152.17" class="st0" width="10" height="13.75"/>
			</g>
		</g>
		<g>
			<path class="st0" d="M790.37,166.95c-37.72,0-68.41-30.69-68.41-68.41c0-37.72,30.69-68.41,68.41-68.41s68.41,30.69,68.41,68.41
				C858.78,136.26,828.09,166.95,790.37,166.95z M790.37,40.12c-32.21,0-58.41,26.2-58.41,58.41s26.2,58.41,58.41,58.41
				s58.41-26.2,58.41-58.41S822.58,40.12,790.37,40.12z"/>
		</g>
		<g>
			<path class="st0" d="M790.37,143.41c-24.75,0-44.88-20.13-44.88-44.88c0-24.75,20.13-44.88,44.88-44.88s44.88,20.13,44.88,44.88
				C835.25,123.28,815.11,143.41,790.37,143.41z M790.37,63.65c-19.23,0-34.88,15.65-34.88,34.88s15.65,34.88,34.88,34.88
				s34.88-15.65,34.88-34.88S809.6,63.65,790.37,63.65z"/>
		</g>
		<g>
			<path class="st0" d="M983.01,123.87h-97.4V73.2h97.4V123.87z M895.61,113.87h77.4V83.2h-77.4V113.87z"/>
		</g>
		<g>
			<path class="st0" d="M895.61,115.37h-48.98l1.12-5.93c0.69-3.63,1.03-7.3,1.03-10.91c0-3.61-0.35-7.28-1.03-10.91l-1.12-5.93
				h48.98V115.37z M858.43,105.37h27.18V91.69h-27.18c0.23,2.29,0.35,4.57,0.35,6.84C858.78,100.8,858.67,103.09,858.43,105.37z"/>
		</g>
		<g>
			<path class="st0" d="M815.7,98.53h-10c0-8.45-6.88-15.33-15.33-15.33v-10C804.34,73.2,815.7,84.56,815.7,98.53z"/>
		</g>
		<g>
			<polygon class="st0" points="374.68,577.1 309.91,577.1 309.91,516.21 319.91,516.21 319.91,567.1 374.68,567.1 			"/>
		</g>
		<g>
			<path class="st0" d="M379.68,736.25h-162.2V511.21h99.41l62.79,58.72V736.25z M227.48,726.25h142.2V574.27l-56.74-53.06h-85.46
				V726.25z"/>
		</g>
		<g>
			<polygon class="st0" points="346.31,764.62 189.11,764.62 189.11,544.58 199.11,544.58 199.11,754.62 346.31,754.62 			"/>
		</g>
		<g>
			<polygon class="st0" points="317.96,792.96 160.76,792.96 160.76,572.93 170.76,572.93 170.76,782.96 317.96,782.96 			"/>
		</g>
		<g>
			<rect x="252.36" y="547.36" class="st0" width="46.22" height="10"/>
		</g>
		<g>
			<rect x="252.36" y="585.13" class="st0" width="92.44" height="10"/>
		</g>
		<g>
			<rect x="252.36" y="622.9" class="st0" width="92.44" height="10"/>
		</g>
		<g>
			<rect x="252.36" y="660.67" class="st0" width="92.44" height="10"/>
		</g>
		<g>
			<rect x="252.36" y="698.44" class="st0" width="92.44" height="10"/>
		</g>
		<g>
			<g>
				<path class="st0" d="M994.76,685.69h-181.1c-11.32,0-20.53-9.21-20.53-20.53V564.19c0-11.32,9.21-20.53,20.53-20.53h181.1
					c11.32,0,20.53,9.21,20.53,20.53v100.96C1015.29,676.48,1006.08,685.69,994.76,685.69z M813.66,553.66
					c-5.81,0-10.53,4.72-10.53,10.53v100.96c0,5.81,4.72,10.53,10.53,10.53h181.1c5.81,0,10.53-4.72,10.53-10.53V564.19
					c0-5.81-4.73-10.53-10.53-10.53H813.66z"/>
			</g>
			<g>
				<polygon class="st0" points="849.09,611.35 816.05,611.35 816.05,548.66 826.05,548.66 826.05,601.35 849.09,601.35 				"/>
			</g>
			<g>
				<path class="st0" d="M871.6,629.89h-27.51V582.8h27.51V629.89z M854.09,619.89h7.51V592.8h-7.51V619.89z"/>
			</g>
			<g>
				<polygon class="st0" points="992.38,611.35 959.34,611.35 959.34,601.35 982.38,601.35 982.38,548.66 992.38,548.66 				"/>
			</g>
			<g>
				<path class="st0" d="M964.34,629.89h-27.51V582.8h27.51V629.89z M946.83,619.89h7.51V592.8h-7.51V619.89z"/>
			</g>
			<g>
				<rect x="866.6" y="601.35" class="st0" width="75.23" height="10"/>
			</g>
			<g>
				<path class="st0" d="M951.77,553.66h-95.11v-53.95h95.11V553.66z M866.66,543.66h75.11v-33.95h-75.11V543.66z"/>
			</g>
			<g>
				<path class="st0" d="M932.2,553.66h-55.98v-37.3h55.98V553.66z M886.22,543.66h35.98v-17.3h-35.98V543.66z"/>
			</g>
		</g>
		<g>
			<path class="st0" d="M762.3,764.62h-76.41V688.2h76.41V764.62z M695.89,754.62h56.41V698.2h-56.41V754.62z"/>
		</g>
		<g>
			<path class="st0" d="M762.3,897.44h-76.41v-76.41h76.41V897.44z M695.89,887.44h56.41v-56.41h-56.41V887.44z"/>
		</g>
		<g>
			<path class="st0" d="M666.75,897.44h-76.41v-76.41h76.41V897.44z M600.33,887.44h56.41v-56.41h-56.41V887.44z"/>
		</g>
		<g>
			<path class="st0" d="M857.85,897.44h-76.41v-76.41h76.41V897.44z M791.44,887.44h56.41v-56.41h-56.41V887.44z"/>
		</g>
		<g>
			<rect x="719.09" y="759.62" class="st0" width="10" height="66.41"/>
		</g>
		<g>
			<polygon class="st0" points="824.65,826.03 814.65,826.03 814.65,797.82 633.54,797.82 633.54,826.03 623.54,826.03 
				623.54,787.82 824.65,787.82 			"/>
		</g>
		<g>
			<path class="st0" d="M320.34,253.79l-7.72-6.35c13.69-16.63,28.94-32.15,45.32-46.13l6.49,7.61
				C348.49,222.51,333.65,237.61,320.34,253.79z"/>
		</g>
		<g>
			<path class="st0" d="M558.53,843.98c-61.92-6.18-121.63-28.32-172.68-64.01l5.73-8.2c49.65,34.72,107.72,56.25,167.94,62.26
				L558.53,843.98z"/>
		</g>
		<g>
			<path class="st0" d="M828.13,762.23l-6.37-7.71c26.75-22.07,50.09-47.85,69.39-76.61l8.3,5.57
				C879.62,713.05,855.62,739.54,828.13,762.23z"/>
		</g>
		<g>
			<path class="st0" d="M867.82,250.77c-17.57-20.88-37.54-39.74-59.37-56.08l5.99-8.01c22.44,16.8,42.97,36.19,61.03,57.65
				L867.82,250.77z"/>
		</g>
		<g>
			<path class="st0" d="M595.33,992.73v-10c39.12,0,78.08-4.51,115.79-13.39l2.29,9.73C674.95,988.13,635.22,992.73,595.33,992.73z"
				/>
		</g>
		<g>
			<path class="st0" d="M981.79,817.06l-7.53-6.58c49.54-56.73,86.21-124.89,106.06-197.13l9.64,2.65
				C1069.72,689.68,1032.31,759.21,981.79,817.06z"/>
		</g>
		<g>
			<path class="st0" d="M1018.38,207.82c-12.53-19.44-26.54-38.21-41.65-55.77l7.58-6.52c15.41,17.91,29.7,37.05,42.47,56.87
				L1018.38,207.82z"/>
		</g>
		<g>
			<path class="st0" d="M89.66,566.07c-4.79-28.29-7.22-57.31-7.22-86.24c0-130.76,49.22-255.3,138.59-350.66l7.3,6.84
				c-87.63,93.5-135.89,215.6-135.89,343.82c0,28.37,2.38,56.82,7.08,84.57L89.66,566.07z"/>
		</g>
		<g>
			<path class="st0" d="M335.9,922.37c-25.2-14.81-49.32-31.91-71.68-50.83l6.46-7.63c21.93,18.55,45.57,35.32,70.29,49.84
				L335.9,922.37z"/>
		</g>
		<g>
			<g>
				<path class="st1" d="M184.72,53.76c-14.82,0-26.88-12.06-26.88-26.88S169.9,0,184.72,0s26.88,12.06,26.88,26.88
					S199.54,53.76,184.72,53.76z M184.72,10c-9.31,0-16.88,7.57-16.88,16.88s7.57,16.88,16.88,16.88s16.88-7.57,16.88-16.88
					S194.03,10,184.72,10z"/>
			</g>
			<g>
				<polygon class="st1" points="1149.51,914.82 1124.22,889.52 1098.93,914.82 1074.02,889.91 1052.64,911.28 1045.57,904.21 
					1074.02,875.76 1098.93,900.67 1124.22,875.38 1149.51,900.67 1174.42,875.76 1199.33,900.67 1221.09,878.92 1228.16,885.99 
					1199.33,914.82 1174.42,889.91 				"/>
			</g>
			<g>
				<g>
					<polygon class="st1" points="814.98,344.54 807.91,337.47 837.81,307.57 852.44,322.2 897.08,277.56 922.54,303.02 
						975.88,249.68 1009.38,283.18 1090.26,202.3 1106.74,218.78 1179.54,145.98 1186.61,153.05 1106.74,232.92 1090.26,216.44 
						1009.38,297.32 975.88,263.82 922.54,317.16 897.08,291.7 852.44,336.34 837.81,321.71 					"/>
				</g>
				<g>
					<polygon class="st1" points="1188.07,185.65 1178.07,185.65 1178.07,154.52 1146.94,154.52 1146.94,144.52 1188.07,144.52 
											"/>
				</g>
			</g>
			<g>
				<g>
					<rect x="27.16" y="26.17" class="st1" width="10" height="19.12"/>
				</g>
				<g>
					<rect x="27.16" y="71.36" class="st1" width="10" height="19.12"/>
				</g>
				<g>
					<rect x="45.2" y="53.33" class="st1" width="19.12" height="10"/>
				</g>
				<g>
					<rect y="53.33" class="st1" width="19.12" height="10"/>
				</g>
			</g>
			<g>
				<path class="st1" d="M785.32,430.2l-68.81-48.76V223.48H485.13v157.97l-68.81,48.76v207.43h369V430.2z M552.44,527.35
					l-119.95,86.4V449.3L552.44,527.35z M600.82,512.44l151.34,109.02H449.48L600.82,512.44z M649.2,527.35l119.95-78.05v164.45
					L649.2,527.35z M762.84,434.1l-46.32,30.14v-62.97L762.84,434.1z M700.34,239.66v235.11l-65.13,42.38l0.15,0.23l-34.54-24.88
					l-34.53,24.88l0.15-0.23l-65.13-42.38V239.66H700.34z M485.13,464.24L438.8,434.1l46.32-32.83V464.24z"/>
				<rect x="537.68" y="269.4" class="st1" width="126.28" height="16.18"/>
				<rect x="537.68" y="316.85" class="st1" width="126.28" height="16.18"/>
				<rect x="537.68" y="364.3" class="st1" width="126.28" height="16.18"/>
				<rect x="537.68" y="411.75" class="st1" width="126.28" height="16.18"/>
				<rect x="537.68" y="459.21" class="st1" width="126.28" height="16.18"/>
			</g>
		</g>
	</g>
	<g>
		<g>
			<rect x="337.42" y="858.78" class="st2" width="51.92" height="10"/>
		</g>
		<g>
			<rect x="358.38" y="837.82" class="st2" width="10" height="51.92"/>
		</g>
	</g>
	<g>
		<path class="st2" d="M628.2,124.84c-14.73,0-26.71-11.98-26.71-26.71c0-14.73,11.98-26.71,26.71-26.71s26.71,11.98,26.71,26.71
			C654.92,112.86,642.93,124.84,628.2,124.84z M628.2,81.42c-9.21,0-16.71,7.5-16.71,16.71s7.5,16.71,16.71,16.71
			s16.71-7.5,16.71-16.71S637.42,81.42,628.2,81.42z"/>
	</g>
	<polygon class="st2" points="76.44,931.7 59.82,931.7 59.82,915.09 53.75,915.09 53.75,931.7 37.13,931.7 37.13,937.78 
		53.75,937.78 53.75,954.39 59.82,954.39 59.82,937.78 76.44,937.78 	"/>
</g>
</svg>
