<?xml version="1.0" encoding="utf-8"?>
<!-- Generator: Adobe Illustrator 24.1.3, SVG Export Plug-In . SVG Version: 6.00 Build 0)  -->
<svg version="1.1" id="Layer_1" xmlns="http://www.w3.org/2000/svg" xmlns:xlink="http://www.w3.org/1999/xlink" x="0px" y="0px"
	 viewBox="0 0 1228.16 992.73" style="enable-background:new 0 0 1228.16 992.73;" xml:space="preserve">
<style type="text/css">
	.st0{fill:#434d4d;}
	.st1{fill:#6ADFBE;}
	.st2{fill:#6ADFBE;stroke:#6ADFBE;stroke-width:3;stroke-miterlimit:10;}
	.st3{fill:#6ADFBE;stroke:#434d4d;stroke-width:0.25;stroke-miterlimit:10;}
	.st4{fill:#434d4d;stroke:#434d4d;stroke-width:0.25;stroke-miterlimit:10;}
	.st5{fill:none;stroke:#434d4d;stroke-width:10;stroke-miterlimit:10;}
	.st6{fill:none;stroke:#6ADFBE;stroke-width:10;stroke-miterlimit:10;}
	.st7{fill:#FFFFFF;stroke:#434d4d;stroke-width:3;stroke-miterlimit:10;}
	.st8{fill:none;stroke:#434d4d;stroke-width:10;stroke-linecap:round;stroke-linejoin:round;stroke-miterlimit:10;}
</style>
<g>
	<rect x="796.32" y="479.83" class="st0" width="404.4" height="10"/>
</g>
<g>
	<path class="st0" d="M860.26,463.28c-29.67,0-53.82-24.14-53.82-53.82c0-29.68,24.14-53.83,53.82-53.83
		c8.07,0,15.82,1.74,23.02,5.17l4.5,2.14l-20.64,43.67l45.47,16.33l-1.69,4.7C903.27,448.96,882.92,463.28,860.26,463.28z
		 M860.26,365.63c-24.16,0-43.82,19.66-43.82,43.83c0,24.16,19.66,43.82,43.82,43.82c16.76,0,31.98-9.62,39.28-24.39l-46.16-16.58
		l20.97-44.36C869.85,366.41,865.13,365.63,860.26,365.63z"/>
</g>
<g>
	<path class="st0" d="M929.66,424.2l-55.84-20.06l25.36-53.64l4.52,2.13c18.72,8.84,30.81,27.94,30.81,48.67
		c0,6.23-1.06,12.35-3.16,18.2L929.66,424.2z M887.57,398.46l35.79,12.86c0.77-3.27,1.15-6.62,1.15-10.01
		c0-15.19-7.98-29.31-20.69-37.23L887.57,398.46z"/>
</g>
<g>
	<path class="st0" d="M982.89,484.83h-35.72v-48.9h35.72V484.83z M957.17,474.83h15.72v-28.9h-15.72V474.83z"/>
</g>
<g>
	<path class="st0" d="M1034.34,484.83h-35.72v-96.28h35.72V484.83z M1008.61,474.83h15.72v-76.28h-15.72V474.83z"/>
</g>
<g>
	<path class="st0" d="M1085.78,484.83h-35.72v-116.2h35.72V484.83z M1060.06,474.83h15.72v-96.2h-15.72V474.83z"/>
</g>
<g>
	<path class="st0" d="M1137.22,484.83h-35.72V308.2h35.72V484.83z M1111.5,474.83h15.72V318.2h-15.72V474.83z"/>
</g>
<g>
	<path class="st0" d="M790.37,166.95c-37.72,0-68.41-30.69-68.41-68.41c0-37.72,30.69-68.41,68.41-68.41s68.41,30.69,68.41,68.41
		C858.78,136.26,828.09,166.95,790.37,166.95z M790.37,40.12c-32.21,0-58.41,26.2-58.41,58.41s26.2,58.41,58.41,58.41
		s58.41-26.2,58.41-58.41S822.58,40.12,790.37,40.12z"/>
</g>
<g>
	<path class="st0" d="M790.37,143.41c-24.75,0-44.88-20.13-44.88-44.88c0-24.75,20.13-44.88,44.88-44.88s44.88,20.13,44.88,44.88
		C835.25,123.28,815.11,143.41,790.37,143.41z M790.37,63.65c-19.23,0-34.88,15.65-34.88,34.88s15.65,34.88,34.88,34.88
		s34.88-15.65,34.88-34.88S809.6,63.65,790.37,63.65z"/>
</g>
<g>
	<path class="st0" d="M983.01,123.87h-97.4V73.2h97.4V123.87z M895.61,113.87h77.4V83.2h-77.4V113.87z"/>
</g>
<g>
	<path class="st0" d="M895.61,115.37h-48.98l1.12-5.93c0.69-3.63,1.03-7.3,1.03-10.91c0-3.61-0.35-7.28-1.03-10.91l-1.12-5.93h48.98
		V115.37z M858.43,105.37h27.18V91.69h-27.18c0.23,2.29,0.35,4.57,0.35,6.84C858.78,100.8,858.67,103.09,858.43,105.37z"/>
</g>
<g>
	<path class="st0" d="M815.7,98.53h-10c0-8.45-6.88-15.33-15.33-15.33v-10C804.34,73.2,815.7,84.56,815.7,98.53z"/>
</g>
<g>
	<polygon class="st0" points="346.31,764.62 189.11,764.62 189.11,544.58 199.11,544.58 199.11,754.62 346.31,754.62 	"/>
</g>
<g>
	<polygon class="st0" points="317.96,792.96 160.76,792.96 160.76,572.93 170.76,572.93 170.76,782.96 317.96,782.96 	"/>
</g>
<g>
	<g>
		<path class="st0" d="M994.76,685.69h-181.1c-11.32,0-20.53-9.21-20.53-20.53V564.19c0-11.32,9.21-20.53,20.53-20.53h181.1
			c11.32,0,20.53,9.21,20.53,20.53v100.96C1015.29,676.48,1006.08,685.69,994.76,685.69z M813.66,553.66
			c-5.81,0-10.53,4.72-10.53,10.53v100.96c0,5.81,4.72,10.53,10.53,10.53h181.1c5.81,0,10.53-4.72,10.53-10.53V564.19
			c0-5.81-4.73-10.53-10.53-10.53H813.66z"/>
	</g>
	<g>
		<polygon class="st0" points="849.09,611.35 816.05,611.35 816.05,548.66 826.05,548.66 826.05,601.35 849.09,601.35 		"/>
	</g>
	<g>
		<path class="st0" d="M871.6,629.89h-27.51V582.8h27.51V629.89z M854.09,619.89h7.51V592.8h-7.51V619.89z"/>
	</g>
	<g>
		<polygon class="st0" points="992.38,611.35 959.34,611.35 959.34,601.35 982.38,601.35 982.38,548.66 992.38,548.66 		"/>
	</g>
	<g>
		<path class="st0" d="M964.34,629.89h-27.51V582.8h27.51V629.89z M946.83,619.89h7.51V592.8h-7.51V619.89z"/>
	</g>
	<g>
		<rect x="866.6" y="601.35" class="st0" width="75.23" height="10"/>
	</g>
	<g>
		<path class="st0" d="M951.77,553.66h-95.11v-53.95h95.11V553.66z M866.66,543.66h75.11v-33.95h-75.11V543.66z"/>
	</g>
	<g>
		<path class="st0" d="M932.2,553.66h-55.98v-37.3h55.98V553.66z M886.22,543.66h35.98v-17.3h-35.98V543.66z"/>
	</g>
</g>
<g>
	<path class="st0" d="M320.34,253.79l-7.72-6.35c13.69-16.63,28.94-32.15,45.32-46.13l6.49,7.61
		C348.49,222.51,333.65,237.61,320.34,253.79z"/>
</g>
<g>
	<path class="st0" d="M558.53,843.98c-61.92-6.18-121.63-28.32-172.68-64.01l5.73-8.2c49.65,34.72,107.72,56.25,167.94,62.26
		L558.53,843.98z"/>
</g>
<g>
	<path class="st0" d="M828.13,762.23l-6.37-7.71c26.75-22.07,50.09-47.85,69.39-76.61l8.3,5.57
		C879.62,713.05,855.62,739.54,828.13,762.23z"/>
</g>
<g>
	<path class="st0" d="M867.82,250.77c-17.57-20.88-37.54-39.74-59.37-56.08l5.99-8.01c22.44,16.8,42.97,36.19,61.03,57.65
		L867.82,250.77z"/>
</g>
<g>
	<path class="st0" d="M595.33,992.73v-10c39.12,0,78.08-4.51,115.79-13.39l2.29,9.73C674.95,988.13,635.22,992.73,595.33,992.73z"/>
</g>
<g>
	<path class="st0" d="M981.79,817.06l-7.53-6.58c49.54-56.73,86.21-124.89,106.06-197.13l9.64,2.65
		C1069.72,689.68,1032.31,759.21,981.79,817.06z"/>
</g>
<g>
	<path class="st0" d="M1018.38,207.82c-12.53-19.44-26.54-38.21-41.65-55.77l7.58-6.52c15.41,17.91,29.7,37.05,42.47,56.87
		L1018.38,207.82z"/>
</g>
<g>
	<path class="st0" d="M89.66,566.07c-4.79-28.29-7.22-57.31-7.22-86.24c0-130.76,49.22-255.3,138.59-350.66l7.3,6.84
		c-87.63,93.5-135.89,215.6-135.89,343.82c0,28.37,2.38,56.82,7.08,84.57L89.66,566.07z"/>
</g>
<g>
	<path class="st0" d="M335.9,922.37c-25.2-14.81-49.32-31.91-71.68-50.83l6.46-7.63c21.93,18.55,45.57,35.32,70.29,49.84
		L335.9,922.37z"/>
</g>
<g>
	<path class="st1" d="M184.72,53.76c-14.82,0-26.88-12.06-26.88-26.88S169.9,0,184.72,0s26.88,12.06,26.88,26.88
		S199.54,53.76,184.72,53.76z M184.72,10c-9.31,0-16.88,7.57-16.88,16.88s7.57,16.88,16.88,16.88s16.88-7.57,16.88-16.88
		S194.03,10,184.72,10z"/>
</g>
<g>
	<polygon class="st1" points="1149.51,914.82 1124.22,889.52 1098.93,914.82 1074.02,889.91 1052.64,911.28 1045.57,904.21 
		1074.02,875.76 1098.93,900.67 1124.22,875.38 1149.51,900.67 1174.42,875.76 1199.33,900.67 1221.09,878.92 1228.16,885.99 
		1199.33,914.82 1174.42,889.91 	"/>
</g>
<g>
	<g>
		<polygon class="st1" points="814.98,344.54 807.91,337.47 837.81,307.57 852.44,322.2 897.08,277.56 922.54,303.02 975.88,249.68 
			1009.38,283.18 1090.26,202.3 1106.74,218.78 1179.54,145.98 1186.61,153.05 1106.74,232.92 1090.26,216.44 1009.38,297.32 
			975.88,263.82 922.54,317.16 897.08,291.7 852.44,336.34 837.81,321.71 		"/>
	</g>
	<g>
		<polygon class="st1" points="1188.07,185.65 1178.07,185.65 1178.07,154.52 1146.94,154.52 1146.94,144.52 1188.07,144.52 		"/>
	</g>
</g>
<g>
	<g>
		<rect x="27.16" y="26.17" class="st1" width="10" height="19.12"/>
	</g>
	<g>
		<rect x="27.16" y="71.36" class="st1" width="10" height="19.12"/>
	</g>
	<g>
		<rect x="45.2" y="53.33" class="st1" width="19.12" height="10"/>
	</g>
	<g>
		<rect y="53.33" class="st1" width="19.12" height="10"/>
	</g>
</g>
<g>
	<g>
		<rect x="337.42" y="858.78" class="st2" width="51.92" height="10"/>
	</g>
	<g>
		<rect x="358.38" y="837.82" class="st2" width="10" height="51.92"/>
	</g>
</g>
<g>
	<path class="st2" d="M628.2,124.84c-14.73,0-26.71-11.98-26.71-26.71c0-14.73,11.98-26.71,26.71-26.71s26.71,11.98,26.71,26.71
		C654.92,112.86,642.93,124.84,628.2,124.84z M628.2,81.42c-9.21,0-16.71,7.5-16.71,16.71s7.5,16.71,16.71,16.71
		s16.71-7.5,16.71-16.71S637.42,81.42,628.2,81.42z"/>
</g>
<polygon class="st2" points="76.44,931.7 59.82,931.7 59.82,915.09 53.75,915.09 53.75,931.7 37.13,931.7 37.13,937.78 
	53.75,937.78 53.75,954.39 59.82,954.39 59.82,937.78 76.44,937.78 "/>
<path class="st3" d="M251.55,207.37c-17.88,0-32.42,14.48-32.55,32.32h24.47c-0.38-0.29-0.71-0.6-0.98-0.91
	c-1.2-1.33-1.81-2.98-1.81-4.95c0-2.12,0.83-3.85,2.49-5.21c1.65-1.37,3.96-2.2,6.92-2.49v-3.35h3v3.27
	c3.33,0.14,6.35,0.8,9.05,2.01l-2.06,5.12c-2.27-0.93-4.6-1.5-6.99-1.71v6.46c1.67,0.64,3.03,1.22,4.13,1.77h26.87
	C283.95,221.84,269.41,207.37,251.55,207.37z"/>
<path class="st3" d="M247.26,233.83c0,0.64,0.23,1.17,0.67,1.58c0.45,0.42,1.16,0.84,2.15,1.29v-5.15
	C248.22,231.83,247.26,232.59,247.26,233.83z"/>
<path class="st3" d="M256.07,247.11c0-0.62-0.25-1.14-0.75-1.56c-0.49-0.42-1.23-0.87-2.23-1.31v5.44
	C255.06,249.34,256.07,248.49,256.07,247.11z"/>
<path class="st4" d="M251.55,207.37c17.86,0,32.4,14.48,32.54,32.32h10.21c-0.14-23.47-19.25-42.53-42.75-42.53
	c-23.51,0-42.62,19.06-42.76,42.53H219C219.13,221.84,233.67,207.37,251.55,207.37z"/>
<path class="st4" d="M253.09,237.92v-6.46c2.39,0.21,4.72,0.78,6.99,1.71l2.06-5.12c-2.7-1.2-5.72-1.87-9.05-2.01v-3.27h-3v3.35
	c-2.96,0.29-5.27,1.12-6.92,2.49c-1.66,1.36-2.49,3.09-2.49,5.21c0,1.97,0.61,3.62,1.81,4.95c0.27,0.31,0.61,0.62,0.98,0.91h13.74
	C256.12,239.14,254.76,238.56,253.09,237.92z M250.09,236.7c-0.99-0.45-1.7-0.87-2.15-1.29c-0.44-0.42-0.67-0.95-0.67-1.58
	c0-1.24,0.95-2,2.82-2.28V236.7z"/>
<g>
	<path class="st5" d="M367.48,335.48v25.13c0,11.65-9.45,21.1-21.1,21.1H202.42c-11.65,0-21.1-9.44-21.1-21.1v-91.95
		c0-11.66,9.45-21.1,21.1-21.1h143.95c11.65,0,21.1,9.44,21.1,21.1v20.7"/>
	<path class="st5" d="M386.32,321.79c0,6.66-5.4,12.06-12.06,12.06h-39.95c-6.65,0-12.05-5.4-12.05-12.06v-15.45
		c0-6.65,5.4-12.06,12.05-12.06h39.95c6.66,0,12.06,5.4,12.06,12.06V321.79z"/>
	<line class="st5" x1="181.32" y1="273.55" x2="367.48" y2="273.55"/>
</g>
<path class="st6" d="M494.44,260.8v448.24c0,22.84,20.54,41.35,45.87,41.35h185.13c25.34,0,45.88-18.52,45.88-41.35V260.8
	c0-22.83-20.54-41.35-45.88-41.35H540.32C514.98,219.45,494.44,237.97,494.44,260.8z"/>
<path class="st0" d="M608.27,262.9c0,2.58,2.32,4.67,5.18,4.67h39.73c2.87,0,5.19-2.09,5.19-4.67l0,0c0-2.59-2.32-4.68-5.19-4.68
	h-39.73C610.59,258.22,608.27,260.31,608.27,262.9L608.27,262.9z"/>
<path class="st1" d="M627.52,241.48c0,2.79,2.51,5.05,5.59,5.05c3.1,0,5.61-2.26,5.61-5.05c0-2.78-2.51-5.04-5.61-5.04
	C630.03,236.44,627.52,238.69,627.52,241.48z"/>
<path class="st1" d="M667.22,262.9c0,2.78,2.5,5.04,5.59,5.04c3.1,0,5.6-2.26,5.6-5.04c0-2.79-2.5-5.05-5.6-5.05
	C669.72,257.85,667.22,260.11,667.22,262.9z"/>
<path class="st0" d="M608.92,709.26c0,10.7,9.61,19.36,21.46,19.36c11.87,0,21.48-8.66,21.48-19.36c0-10.68-9.62-19.35-21.48-19.35
	C618.53,689.91,608.92,698.58,608.92,709.26z"/>
<rect x="526.06" y="301.98" class="st7" width="214.52" height="358.88"/>
<g>
	<path class="st5" d="M575.32,439.4c0.01-8.37-8.36-15.18-18.71-15.18l-297.79-0.26c-10.36,0-18.75,6.79-18.75,15.17l-0.19,180.65
		c-0.02,8.38,8.36,15.18,18.7,15.2l297.79,0.24c10.35,0.01,18.75-6.77,18.76-15.16L575.32,439.4z"/>
	<path class="st0" d="M501.55,567.96c0.02-12.85-11.74-23.27-26.28-23.28c-14.54-0.02-26.33,10.37-26.34,23.25
		c-0.02,12.85,11.76,23.27,26.29,23.29C489.76,591.22,501.54,580.83,501.55,567.96z"/>
	<path class="st0" d="M537.01,567.99c0.03-12.86-11.75-23.27-26.28-23.28c-14.53-0.02-26.3,10.4-26.34,23.24
		c-0.01,12.86,11.76,23.28,26.29,23.29C525.2,591.26,537.01,580.85,537.01,567.99z"/>
	<rect x="274.75" y="465.29" class="st1" width="256.67" height="35.4"/>
	<rect x="279.96" y="554.89" class="st0" width="127.65" height="36.35"/>
</g>
<g>
	<path class="st8" d="M838.32,923.07c0,11.03-8.94,19.96-19.97,19.96h-209.1c-11.03,0-19.96-8.93-19.96-19.96V808.55
		c0-11.02,8.93-19.96,19.96-19.96h209.1c11.03,0,19.97,8.94,19.97,19.96V923.07z"/>
	<rect x="589.3" y="823.29" class="st8" width="249.02" height="31.24"/>
	<rect x="722.07" y="882.3" class="st8" width="83.3" height="32.1"/>
	<rect x="615.3" y="887.79" class="st8" width="10.06" height="24"/>
	<rect x="631.76" y="887.79" class="st8" width="10.07" height="24"/>
	<rect x="648.21" y="887.79" class="st8" width="10.06" height="24"/>
</g>
<g>
	<path class="st8" d="M344.84,108.95c10.77-10.84,28.28-10.89,39.13-0.12c10.85,10.77,10.9,28.29,0.12,39.13
		c-10.78,10.84-28.29,10.89-39.13,0.12C334.13,137.3,334.07,119.79,344.84,108.95z"/>
	<g>
		<path class="st8" d="M296.16,44.27l-19.24,19.36c8.75,12.92,8.11,30.3-1.95,42.57l109.78,109.11
			c13.24-11.49,32.91-11.61,46.3-0.33l18.49-18.6c-11.37-13.32-11.37-33,0.04-46.31L339.85,41.03
			C327.6,52.1,309.55,53.22,296.16,44.27z"/>
		<path class="st8" d="M276.92,63.63l-20,20.12c-1.25,1.26-1.24,3.29,0.01,4.54l18.04,17.91C285.03,93.94,285.67,76.55,276.92,63.63
			z"/>
		<path class="st8" d="M317.23,23.07l-21.07,21.2c13.39,8.94,31.43,7.83,43.69-3.24l-18.08-17.97
			C320.5,21.81,318.47,21.82,317.23,23.07z"/>
		<path class="st8" d="M384.76,215.31l20.86,20.73c1.25,1.25,3.29,1.24,4.53-0.01l20.9-21.05C417.67,203.7,398,203.82,384.76,215.31
			z"/>
		<path class="st8" d="M449.54,196.39l20.91-21.04c1.25-1.27,1.25-3.28-0.01-4.54l-20.86-20.73
			C438.17,163.39,438.17,183.07,449.54,196.39z"/>
	</g>
</g>
</svg>
