<?xml version="1.0" encoding="utf-8"?>
<!-- Generator: Adobe Illustrator 24.1.3, SVG Export Plug-In . SVG Version: 6.00 Build 0)  -->
<svg version="1.1" id="Layer_1" xmlns="http://www.w3.org/2000/svg" xmlns:xlink="http://www.w3.org/1999/xlink" x="0px" y="0px"
	 viewBox="0 0 991.44 976.86" style="enable-background:new 0 0 991.44 976.86;" xml:space="preserve">
<style type="text/css">
	.st0{fill:#434d4d;}
	.st1{fill:#6ADFBE;}
</style>
<g>
	<path class="st0" d="M923,348.48H762.5V244H923V348.48z M772.5,338.48H913V254H772.5V338.48z"/>
</g>
<g>
	<polygon class="st0" points="842.75,319.27 764.27,252.82 770.73,245.19 842.75,306.17 914.77,245.19 921.23,252.82 	"/>
</g>
<g>
	
		<rect x="756.92" y="312.93" transform="matrix(0.7072 -0.7071 0.7071 0.7072 7.446 653.8354)" class="st0" width="72.26" height="10"/>
</g>
<g>
	
		<rect x="887.4" y="281.68" transform="matrix(0.7071 -0.7071 0.7071 0.7071 36.6024 724.1307)" class="st0" width="10" height="72.4"/>
</g>
<g>
	<path class="st0" d="M866.01,568.55c-2.96,0-5.92-0.34-8.82-1.06c-7.68-1.9-15.21-6.22-21.77-12.5
		c-15.5-14.85-22.1-38.29-16.42-58.3c5.97-21.05,24.95-37.09,46.15-39.02c15.78-1.43,31.29,4.95,40.5,16.65
		c9.98,12.69,11.3,30.7,3.23,43.8c-3.15,5.12-7.22,8.21-11.77,8.94c-3.66,0.58-7.53-0.45-10.82-2.78c-0.34,0.91-0.74,1.82-1.18,2.71
		c-3.43,6.9-9.33,11.89-16.19,13.71c-6.86,1.82-14.46,0.4-20.86-3.89c-6.4-4.29-10.6-10.78-11.52-17.82
		c-1.41-10.74,4.43-22.35,14.54-28.89c10.27-6.64,22.27-7.18,30.54-6.46l-0.87,9.96c-6.7-0.58-16.35-0.21-24.24,4.9
		c-6.93,4.48-10.97,12.2-10.05,19.19c0.55,4.18,3.16,8.12,7.17,10.81c4.01,2.69,8.65,3.61,12.73,2.53c4.08-1.08,7.65-4.18,9.8-8.5
		c1.92-3.86,2.38-8.03,1.32-11.66c-0.18-0.52-0.36-1.02-0.54-1.52l9.35-3.54c0.26,0.63,0.49,1.27,0.69,1.92
		c0.91,2.53,1.94,5,3.44,6.84c1.49,1.82,3.54,2.87,5.11,2.62c2.11-0.34,3.93-2.84,4.84-4.31c5.83-9.45,4.74-23.07-2.58-32.38
		c-7.02-8.93-19.47-13.99-31.73-12.87c-16.9,1.53-32.64,14.9-37.43,31.79c-4.7,16.56,0.82,35.99,13.72,48.35
		c5.3,5.07,11.26,8.54,17.25,10.02c14.28,3.52,31.07-5.54,35.96-19.41l9.43,3.32C899.37,557.63,882.73,568.55,866.01,568.55z"/>
</g>
<g>
	<path class="st0" d="M865.53,590.5c-42.72,0-77.48-34.76-77.48-77.48c0-42.72,34.76-77.48,77.48-77.48s77.48,34.76,77.48,77.48
		C943.01,555.75,908.25,590.5,865.53,590.5z M865.53,445.54c-37.21,0-67.48,30.27-67.48,67.48s30.27,67.48,67.48,67.48
		s67.48-30.27,67.48-67.48S902.74,445.54,865.53,445.54z"/>
</g>
<g>
	<g>
		<path class="st0" d="M147.5,360.31c-8.51,0-15.43-6.92-15.43-15.43c0-8.51,6.92-15.43,15.43-15.43s15.43,6.92,15.43,15.43
			C162.93,353.38,156.01,360.31,147.5,360.31z M147.5,339.44c-3,0-5.43,2.44-5.43,5.43s2.44,5.43,5.43,5.43s5.43-2.44,5.43-5.43
			S150.5,339.44,147.5,339.44z"/>
	</g>
	<g>
		<path class="st0" d="M107.71,360.31c-8.51,0-15.43-6.92-15.43-15.43c0-8.51,6.92-15.43,15.43-15.43c8.51,0,15.43,6.92,15.43,15.43
			C123.14,353.38,116.22,360.31,107.71,360.31z M107.71,339.44c-3,0-5.43,2.44-5.43,5.43s2.44,5.43,5.43,5.43
			c3,0,5.43-2.44,5.43-5.43S110.71,339.44,107.71,339.44z"/>
	</g>
	<g>
		<path class="st0" d="M187.29,360.31c-8.51,0-15.43-6.92-15.43-15.43c0-8.51,6.92-15.43,15.43-15.43c8.51,0,15.43,6.92,15.43,15.43
			C202.73,353.38,195.8,360.31,187.29,360.31z M187.29,339.44c-3,0-5.43,2.44-5.43,5.43s2.44,5.43,5.43,5.43
			c3,0,5.43-2.44,5.43-5.43S190.29,339.44,187.29,339.44z"/>
	</g>
	<g>
		<path class="st0" d="M195.5,429.2l-30.7-30.7H99.88C85.06,398.5,73,386.44,73,371.62v-53.5c0-14.82,12.06-26.88,26.88-26.88h95.24
			c14.82,0,26.88,12.06,26.88,26.88v53.5c0,14.7-11.85,26.67-26.5,26.88V429.2z M99.88,301.24c-9.31,0-16.88,7.57-16.88,16.88v53.5
			c0,9.31,7.57,16.88,16.88,16.88h69.06l16.55,16.55V388.5h9.62c9.31,0,16.88-7.57,16.88-16.88v-53.5c0-9.31-7.57-16.88-16.88-16.88
			H99.88z"/>
	</g>
</g>
<g>
	<g>
		<path class="st0" d="M93.69,671.75H57.44V559h36.25V671.75z M67.44,661.75h16.25V569H67.44V661.75z"/>
	</g>
	<g>
		
			<rect x="116.22" y="553.12" transform="matrix(0.1704 -0.9854 0.9854 0.1704 -476.9914 605.7101)" class="st0" width="10" height="66.03"/>
	</g>
	<g>
		
			<rect x="88.21" y="639.63" transform="matrix(0.9854 -0.1703 0.1703 0.9854 -108.0214 30.065)" class="st0" width="66.03" height="10"/>
	</g>
	<g>
		<path class="st0" d="M195.32,644.25h-48.01v-57.5h48.01V644.25z M157.31,634.25h28.01v-37.5h-28.01V634.25z"/>
	</g>
	<g>
		<path class="st0" d="M216.69,634.5h-31.38v-38h31.38V634.5z M195.32,624.5h11.38v-18h-11.38V624.5z"/>
	</g>
	<g>
		<path class="st0" d="M195.32,687.13h-29v-52.88h29V687.13z M176.31,677.13h9v-32.88h-9V677.13z"/>
	</g>
</g>
<g>
	<g>
		<path class="st0" d="M389.26,146.88L315.25,0l222.21,40.03L481.6,75.35l-5.02,64.83l-44.6-26.37L389.26,146.88z M333.2,13.39
			l59.53,118.15l38.5-29.8l36.62,21.66l4.17-53.83l38.38-24.26L333.2,13.39z"/>
	</g>
	<g>
		<polygon class="st0" points="401.55,137.37 395.43,129.46 448.96,88.03 359.79,29.72 364.43,20.91 478.71,67.84 474.91,77.09 
			409.31,50.15 466.18,87.34 		"/>
	</g>
	<g>
		
			<rect x="459.9" y="86.5" transform="matrix(0.949 -0.3151 0.3151 0.949 -10.8957 152.0928)" class="st0" width="10" height="46.48"/>
	</g>
</g>
<g>
	
		<rect x="312.84" y="163.16" transform="matrix(0.9605 -0.2783 0.2783 0.9605 -33.7298 98.7353)" class="st0" width="36.06" height="10"/>
</g>
<g>
	
		<rect x="257.58" y="206.1" transform="matrix(0.2643 -0.9644 0.9644 0.2643 -2.0593 419.5083)" class="st0" width="32.76" height="10"/>
</g>
<g>
	
		<rect x="278.84" y="245.26" transform="matrix(0.7023 -0.7118 0.7118 0.7023 -101.4263 279.7909)" class="st0" width="10" height="31.82"/>
</g>
<g>
	<path class="st0" d="M905.3,807.02h-98.53v-98.53h98.53V807.02z M816.77,797.02h78.53v-78.53h-78.53V797.02z"/>
</g>
<g>
	<polygon class="st0" points="849.52,772.31 831.77,754.56 815.3,771.02 808.23,763.95 831.77,740.42 849.52,758.17 878.27,729.42 
		903.45,754.6 896.38,761.67 878.27,743.56 	"/>
</g>
<g>
	<path class="st0" d="M122.73,512h-10c0-28.72,3.19-57.35,9.47-85.1l9.75,2.21C125.83,456.14,122.73,484.03,122.73,512z"/>
</g>
<g>
	<path class="st0" d="M496.5,895.78c-65.54,0-130.24-16.81-187.09-48.62l4.88-8.73c55.37,30.97,118.37,47.34,182.21,47.34
		c15.71,0,31.52-0.98,46.99-2.93l1.24,9.92C528.85,894.77,512.62,895.78,496.5,895.78z"/>
</g>
<g>
	<path class="st0" d="M649.13,864.22l-3.98-9.17c28.24-12.25,54.96-28.04,79.42-46.9l6.11,7.92
		C705.57,835.44,678.13,851.64,649.13,864.22z"/>
</g>
<g>
	<path class="st0" d="M844.98,672.98l-9.08-4.2c8.86-19.14,16.12-39.17,21.59-59.53l9.66,2.6
		C861.54,632.76,854.07,653.33,844.98,672.98z"/>
</g>
<g>
	<path class="st0" d="M863.63,441.48c-4.74-24.84-12.06-49.28-21.75-72.63l9.24-3.83c9.95,23.98,17.47,49.08,22.34,74.59
		L863.63,441.48z"/>
</g>
<g>
	<path class="st0" d="M764.73,251.7c-35.16-36.23-76.46-64.52-122.74-84.09l3.9-9.21c47.52,20.1,89.92,49.15,126.02,86.34
		L764.73,251.7z"/>
</g>
<g>
	<path class="st0" d="M92.82,240.39l-8.29-5.59c45.6-67.63,107.72-123.55,179.66-161.7l4.69,8.83
		C198.38,119.32,137.5,174.11,92.82,240.39z"/>
</g>
<g>
	<path class="st0" d="M10,512H0c0-24.16,1.75-48.45,5.21-72.18c4.5-30.88,11.96-61.45,22.19-90.88l9.45,3.28
		c-10.02,28.82-17.33,58.78-21.74,89.03C11.72,464.52,10,488.32,10,512z"/>
</g>
<g>
	<path class="st0" d="M95.62,804.98C82.67,787.3,70.8,768.6,60.33,749.4l8.78-4.79c10.26,18.81,21.89,37.13,34.58,54.46
		L95.62,804.98z"/>
</g>
<g>
	<path class="st0" d="M250.51,943.38c-49.23-28.13-93.02-64.22-130.14-107.26l7.57-6.53c36.38,42.18,79.28,77.54,127.52,105.11
		L250.51,943.38z"/>
</g>
<g>
	<path class="st0" d="M959.52,691.6l-9.32-3.62c17.03-43.86,27.55-89.99,31.27-137.1l9.97,0.79
		C987.64,599.75,976.9,646.83,959.52,691.6z"/>
</g>
<g>
	<path class="st0" d="M924.02,847.79H788.05V689.77h135.97V847.79z M798.05,837.79h115.97V699.77H798.05V837.79z M905.3,807.02
		h-98.53v-98.53h98.53V807.02z M816.77,797.02h78.53v-78.53h-78.53V797.02z"/>
</g>
<g>
	<path class="st1" d="M157.76,101.59c-14.82,0-26.88-12.06-26.88-26.88s12.06-26.88,26.88-26.88s26.88,12.06,26.88,26.88
		S172.58,101.59,157.76,101.59z M157.76,57.83c-9.31,0-16.88,7.57-16.88,16.88s7.57,16.88,16.88,16.88s16.88-7.57,16.88-16.88
		S167.07,57.83,157.76,57.83z"/>
</g>
<g>
	<path class="st1" d="M503,830.28h-63c-12.68,0-23-10.32-23-23s10.32-23,23-23h63c12.68,0,23,10.32,23,23S515.68,830.28,503,830.28z
		 M440,794.28c-7.17,0-13,5.83-13,13s5.83,13,13,13h63c7.17,0,13-5.83,13-13s-5.83-13-13-13H440z"/>
</g>
<g>
	<path class="st1" d="M581.17,146.96h-32c-13.79,0-25-11.21-25-25v-32c0-13.79,11.21-25,25-25h32c13.79,0,25,11.21,25,25v32
		C606.17,135.75,594.96,146.96,581.17,146.96z M549.17,74.96c-8.27,0-15,6.73-15,15v32c0,8.27,6.73,15,15,15h32
		c8.27,0,15-6.73,15-15v-32c0-8.27-6.73-15-15-15H549.17z"/>
</g>
<g>
	<path class="st1" d="M774.37,658.28h-32c-13.79,0-25-11.21-25-25v-32c0-13.79,11.21-25,25-25h32c13.79,0,25,11.21,25,25v32
		C799.37,647.06,788.15,658.28,774.37,658.28z M742.37,586.28c-8.27,0-15,6.73-15,15v32c0,8.27,6.73,15,15,15h32
		c8.27,0,15-6.73,15-15v-32c0-8.27-6.73-15-15-15H742.37z"/>
</g>
<g>
	<path class="st1" d="M273.22,808.49h-32c-13.79,0-25-11.21-25-25v-32c0-13.79,11.21-25,25-25h32c13.79,0,25,11.21,25,25v32
		C298.22,797.27,287,808.49,273.22,808.49z M241.22,736.49c-8.27,0-15,6.73-15,15v32c0,8.27,6.73,15,15,15h32c8.27,0,15-6.73,15-15
		v-32c0-8.27-6.73-15-15-15H241.22z"/>
</g>
<g>
	<path class="st1" d="M633,970.43h-32c-13.79,0-25-11.21-25-25v-32c0-13.79,11.21-25,25-25h32c13.79,0,25,11.21,25,25v32
		C658,959.22,646.79,970.43,633,970.43z M601,898.43c-8.27,0-15,6.73-15,15v32c0,8.27,6.73,15,15,15h32c8.27,0,15-6.73,15-15v-32
		c0-8.27-6.73-15-15-15H601z"/>
</g>
<g>
	<path class="st1" d="M768.13,153.39l-4.53-12.83c-5.08-14.37-14.89-24.16-30-29.93l-12.71-4.85l12.83-4.53
		c14.37-5.08,24.16-14.89,29.93-30l4.85-12.71l4.53,12.83c5.08,14.37,14.89,24.16,30,29.93l12.71,4.85l-12.83,4.53
		c-14.37,5.08-24.16,14.89-29.93,30L768.13,153.39z M747.21,106.04c9.07,5.23,16.15,12.26,21.18,21.03
		c5.23-9.07,12.26-16.15,21.03-21.18c-9.07-5.23-16.15-12.26-21.18-21.03C763.01,93.93,755.98,101.01,747.21,106.04z"/>
</g>
<g>
	<path class="st1" d="M771.6,976.86l-4.53-12.83c-5.08-14.37-14.89-24.16-30-29.93l-12.71-4.85l12.83-4.53
		c14.37-5.08,24.16-14.89,29.93-30l4.85-12.71l4.53,12.83c5.08,14.37,14.89,24.16,30,29.93l12.71,4.85l-12.83,4.53
		c-14.37,5.08-24.16,14.89-29.93,30L771.6,976.86z M750.68,929.51c9.07,5.23,16.15,12.26,21.18,21.03
		c5.23-9.07,12.26-16.15,21.03-21.18c-9.07-5.23-16.15-12.26-21.18-21.03C766.48,917.4,759.45,924.48,750.68,929.51z"/>
</g>
<g>
	<path class="st1" d="M192.01,259.42l-4.53-12.83c-3.7-10.46-10.86-17.6-21.88-21.81l-12.71-4.85l12.83-4.53
		c10.46-3.7,17.6-10.85,21.81-21.88l4.85-12.71l4.53,12.83c3.7,10.46,10.85,17.6,21.88,21.81l12.71,4.85l-12.83,4.53
		c-10.46,3.7-17.59,10.85-21.81,21.88L192.01,259.42z M178.68,220.18c5.59,3.54,10.12,8.03,13.57,13.45
		c3.54-5.59,8.04-10.12,13.45-13.57c-5.59-3.54-10.12-8.03-13.57-13.45C188.59,212.19,184.1,216.73,178.68,220.18z"/>
</g>
<g>
	<g id="KmBHXd.tif">
		<g>
			<path class="st1" d="M536.44,338.28c0,40.53,0,81.06,0,121.71c40.74,0,81.22,0,121.71,0c0-40.57,0-81.14,0-121.71
				C617.58,338.28,577.01,338.28,536.44,338.28z M633.72,435.54c-24.27,0-48.45,0-72.79,0c0-24.19,0-48.42,0-72.79
				c24.17,0,48.4,0,72.79,0C633.72,387.07,633.72,411.25,633.72,435.54z"/>
			<path class="st1" d="M439.07,338.28c-40.57,0-81.14,0-121.71,0c0,40.63,0,81.17,0,121.71c40.53,0,81.06,0,121.71,0
				C439.07,419.25,439.07,378.76,439.07,338.28z M414.63,435.5c-24.2,0-48.43,0-72.79,0c0-24.19,0-48.42,0-72.79
				c24.33,0,48.51,0,72.79,0C414.63,386.98,414.63,411.16,414.63,435.5z"/>
			<path class="st1" d="M633.78,606.06c0.02,0,0.04,0,0.06,0c0-0.02,0-0.03,0-0.05c-0.02,0-0.04,0-0.06,0
				C633.78,606.03,633.78,606.05,633.78,606.06z"/>
			<path class="st1" d="M585.1,630.4c0.02,0,0.04,0,0.05,0c0-0.02,0-0.04,0-0.05c-0.02,0-0.04,0-0.05,0
				C585.1,630.37,585.1,630.39,585.1,630.4z"/>
			<path class="st1" d="M633.83,630.4c0-0.02,0-0.04,0-0.06c-0.02,0-0.03,0-0.05,0c0,0.02,0,0.04,0,0.06
				C633.8,630.4,633.82,630.4,633.83,630.4z"/>
			<path class="st1" d="M658.15,654.72c0-8.11,0-16.23,0-24.34c-8.11,0.01-16.21,0.02-24.32,0.03c0,8.1,0,16.19,0,24.29
				C641.94,654.7,650.04,654.71,658.15,654.72z"/>
			<path class="st1" d="M633.78,654.74c0.02,0,0.04,0,0.06,0c0-0.02,0-0.03,0-0.05c-0.02,0-0.04,0-0.06,0
				C633.78,654.71,633.78,654.73,633.78,654.74z"/>
			<path class="st1" d="M609.47,679.06c8.11,0,16.23,0,24.34,0c-0.01-8.11-0.02-16.21-0.03-24.32c-8.06,0-16.13,0-24.32,0
				C609.47,662.99,609.47,671.03,609.47,679.06z"/>
			<path class="st1" d="M633.83,581.72c0-0.02,0-0.03,0-0.05c-0.02,0-0.04,0-0.06,0c0,0.02,0,0.03,0,0.05
				C633.8,581.72,633.82,581.72,633.83,581.72z"/>
			<path class="st1" d="M658.15,606.04c0-8.11,0-16.23,0-24.34c-0.02,0-0.04,0-0.07,0c0-8.26,0-16.25,0-24.37
				c-8.17,0-16.2,0-24.23,0c0,8.13,0,16.26,0,24.39c0,0-0.01,0-0.01,0c0,8.1,0,16.19,0,24.29
				C641.94,606.02,650.04,606.03,658.15,606.04z"/>
			<path class="st1" d="M585.03,532.92c0-16.17,0-32.24,0-48.45c-16.26,0-32.38,0-48.5,0c0,8.1,0,16.06,0,24.23
				c8.1,0,16.1,0,24.32,0c0,8.21,0,16.22,0,24.23C569.02,532.92,576.98,532.92,585.03,532.92z"/>
			<path class="st1" d="M536.42,533.15c-8.21,0-16.21,0-24.29,0c0,8.15,0,16.17,0,24.18c8.1,0,16.19,0,24.29,0
				C536.42,549.27,536.42,541.2,536.42,533.15z"/>
			<path class="st1" d="M512.12,557.33c-0.02,0-0.03,0-0.05,0c0,0.02,0,0.04,0,0.06c0.02,0,0.03,0,0.05,0
				C512.12,557.36,512.12,557.34,512.12,557.33z"/>
			<path class="st1" d="M536.42,557.38c0.02,0,0.03,0,0.05,0c0-0.02,0-0.04,0-0.06c-0.02,0-0.03,0-0.05,0
				C536.42,557.34,536.42,557.36,536.42,557.38L536.42,557.38z"/>
			<ellipse class="st1" cx="487.76" cy="654.72" rx="0.04" ry="0.04"/>
			<path class="st1" d="M487.76,581.69l0.03,0.03c0-0.02,0-0.03,0-0.05c-0.02,0-0.04,0-0.06,0c0,0.02,0,0.03,0,0.05
				c0.02,0,0.04,0,0.06,0C487.79,581.72,487.77,581.71,487.76,581.69z"/>
			<path class="st1" d="M390.24,606.14c-8.11,0-16.06,0-24.11,0c0,8.06,0,16.01,0,24.11c8.15,0,16.15,0,24.11,0
				C390.24,622.11,390.24,614.11,390.24,606.14z"/>
			<path class="st1" d="M609.33,387.11c-8.14,0-16.14,0-24.11,0c0,8.11,0,16.06,0,24.11c8.06,0,16.01,0,24.11,0
				C609.33,403.07,609.33,395.07,609.33,387.11z"/>
			<path class="st1" d="M390.29,387.05c-8.06,0-16.01,0-24.11,0c0,8.15,0,16.15,0,24.11c8.14,0,16.14,0,24.11,0
				C390.29,403.04,390.29,395.09,390.29,387.05z"/>
			<path class="st1" d="M439.07,557.35c-40.65,0-81.18,0-121.71,0c0,40.57,0,81.14,0,121.71c40.57,0,81.14,0,121.71,0
				c0-32.4,0-64.81,0-97.34c8.08,0,16.16,0,24.23,0c0-8.27,0-16.27,0-24.39c-8.17,0-16.2,0-24.23,0
				C439.07,557.33,439.07,557.34,439.07,557.35z M414.65,654.62c-24.27,0-48.45,0-72.79,0c0-24.19,0-48.42,0-72.79
				c24.18,0,48.41,0,72.79,0C414.65,606.15,414.65,630.33,414.65,654.62z"/>
			<path class="st1" d="M633.78,581.67c0-16.13,0-32.26,0-48.66c8.21,0,16.29,0,24.37,0c0-16.23,0-32.46,0-48.68
				c-8.08,0-16.16,0-24.38,0c0-0.01,0-0.02,0-0.03c-8.17,0-16.2,0-24.23,0c0,8.13,0,16.26,0,24.39c-0.04,0-0.08,0-0.13,0
				c0,16.32-0.01,32.47-0.01,24.38c-8.17,0-16.2,0-24.23,0c0,8.1,0,16.2,0,24.3c-16.23,0.01-32.46,0.01-48.69,0.02
				c-0.02,8.1-0.03,16.19-0.05,24.29c-8.1,0-16.19,0-24.29,0c-0.02-8.1-0.04-16.19-0.06-24.29c-8.1-0.02-16.19-0.04-24.29-0.06
				c0-16.21,0-32.42,0-48.63c8.06,0,16.12,0,24.18,0c0-8.27,0-16.27,0-24.39c-8.15,0-16.17,0-24.18,0c0-8.07,0-16.14,0-24.41
				c8.24,0,16.25,0,24.21,0c0-24.4,0-48.59,0-72.99c-8.12,0-16.12,0-24.14,0c0-8.17,0-16.13,0-24.3c8.1,0,16.1,0,24.25,0
				c0-8.25,0-16.28,0-24.32c-16.23,0-32.46,0-48.68,0c0,24.3,0,48.6,0,73.11c8.25,0,16.26,0,24.25,0c0,8.16,0,16.12,0,24.29
				c-8.1,0-16.1,0-24.12,0c0,16.32,0,32.43,0,48.69c8.15,0,16.17,0,24.19,0c0,8.1,0,16.19,0,24.29c-8.14,0-16.28,0-24.42,0
				c0-8.24,0-16.22,0-24.33c-8.17,0-16.2,0-24.23,0c0,8.11,0,16.22,0,24.33c-8.11,0-16.23,0-24.38,0c0-8.19,0-16.19,0-24.18
				c-16.31,0-32.42,0-48.67,0c0,8.15,0,16.17,0,24.18c-8.1,0-16.19,0-24.29,0c0-8.06,0-16.13,0-24.31c-8.3,0-16.34,0-24.37,0
				c0,8.11,0,16.23,0,24.34c8.1,0.01,16.21,0.02,24.32,0.03c0,8.06,0,16.12,0,24.18c8.27,0,16.27,0,24.39,0c0-8.15,0-16.17,0-24.18
				c8.07,0,16.13,0,24.41,0c0,8.23,0,16.24,0,24.38c24.39,0,48.58,0,72.98,0c0,8.14,0,16.15,0,24.3c8.23,0,16.25,0,24.27,0
				c0.02,8.1,0.04,16.19,0.06,24.29c8.1,0.02,16.19,0.03,24.29,0.05c0,8.1,0,16.19,0,24.29c-8.02,0-16.04,0-24.34,0
				c0-8.16,0-16.22,0-24.29c-8.06,0-16.13,0-24.18,0c0,24.44,0,48.67,0,72.97c8.15,0,40.42,0.05,48.5,0.05c0-8.23,0-16.2,0-24.3
				c0.03,0,0.05,0,0.08,0c0-8.26,0-16.32,0-24.38c8.1,0,16.19,0,24.29,0c0,8.07,0,16.13,0,24.34c8.3,0,16.32,0,24.34,0
				c0,8.02,0,16.04,0,24.34c-24.39,0-48.68,0-72.97,0c-0.01,8.11-0.02,16.21-0.03,24.32c32.46,0,64.91,0,97.37,0
				c-0.01-16.22-0.02-32.44-0.03-48.66c-8.1-0.02-16.19-0.04-24.29-0.06c0-8.07,0-16.13,0-24.34c-8.3,0-16.32,0-24.34,0
				c0-8.1,0-16.19,0-24.29c16.13,0,32.27,0,48.68,0c0,16.27,0,32.45,0,48.63c16.21,0,32.42,0,48.63,0c0-8.1,0-16.19,0-24.29
				c-8.02,0-16.03,0-24.18,0c0-8.13,0-16.13,0-24.39C617.66,581.67,625.72,581.67,633.78,581.67z"/>
		</g>
	</g>
</g>
</svg>
