<?xml version="1.0" encoding="utf-8"?>
<!-- Generator: Adobe Illustrator 24.1.3, SVG Export Plug-In . SVG Version: 6.00 Build 0)  -->
<svg version="1.1" id="Layer_1" xmlns="http://www.w3.org/2000/svg" xmlns:xlink="http://www.w3.org/1999/xlink" x="0px" y="0px"
	 viewBox="0 0 1105.98 889.1" style="enable-background:new 0 0 1105.98 889.1;" xml:space="preserve">
<style type="text/css">
	.st0{fill:#434d4d;}
	.st1{fill:#6ADFBE;stroke:#6ADFBE;stroke-width:3;stroke-miterlimit:10;}
	.st2{fill:#6ADFBE;stroke:#6ADFBE;stroke-miterlimit:10;}
</style>
<g>
	<path class="st0" d="M517.36,119.88h-10V93.43c0-16.2,13.18-29.38,29.38-29.38h179.23v36.45H536.73
		C526.05,100.5,517.36,109.19,517.36,119.88z M536.73,74.05c-10.68,0-19.38,8.69-19.38,19.38v4.39c5.17-4.55,11.96-7.31,19.38-7.31
		h169.23V74.05H536.73z"/>
</g>
<g>
	<path class="st0" d="M647.1,795.31l-59.14-30.04l59.14-30.04l59.15,30.04L647.1,795.31z M610.04,765.27l37.06,18.83l37.06-18.83
		l-37.06-18.83L610.04,765.27z"/>
</g>
<g>
	<path class="st0" d="M652.1,863.46L594,833.95v-76.83l58.1,29.51V863.46z M604,827.81l38.1,19.36v-54.39L604,773.42V827.81z"/>
</g>
<g>
	<path class="st0" d="M647.11,860.92l-53.1-26.97V762.2l53.1-26.97l53.1,26.97v71.74L647.11,860.92z M604.01,827.81l43.1,21.89
		l43.1-21.89v-59.47l-43.1-21.89l-43.1,21.89V827.81z"/>
</g>
<g>
	<path class="st0" d="M162.36,508.97h-65.5v-7.13c0-18.11-6.29-35.88-17.7-50.06c-9.87-12.25-14.92-27.69-14.23-43.47
		c0.69-15.78,7.21-30.77,18.35-42.22c11.14-11.45,25.96-18.37,41.71-19.46c18.2-1.27,35.51,4.85,48.78,17.23
		c13.09,12.21,20.59,29.47,20.59,47.36c0,14.69-4.8,28.53-13.87,40.04c-11.69,14.82-18.12,32.79-18.12,50.6V508.97z M106.81,498.97
		h45.6c0.65-19.09,7.77-38.13,20.22-53.91c7.67-9.73,11.72-21.43,11.72-33.85c0-15.13-6.35-29.72-17.42-40.04
		c-11.22-10.47-25.88-15.64-41.27-14.56c-27.26,1.9-49.56,24.8-50.76,52.14c-0.58,13.35,3.69,26.41,12.03,36.76
		C99.18,460.7,106.18,479.58,106.81,498.97z"/>
</g>
<g>
	<path class="st0" d="M146.98,536.72h-34.75c-8.48,0-15.38-6.9-15.38-15.38v-22.38h65.5v22.38
		C162.36,529.82,155.46,536.72,146.98,536.72z M106.86,508.97v12.38c0,2.96,2.41,5.38,5.38,5.38h34.75c2.96,0,5.38-2.41,5.38-5.38
		v-12.38H106.86z"/>
</g>
<g>
	<path class="st0" d="M129.61,554.97c-12.82,0-23.25-10.43-23.25-23.25v-5h46.5v5C152.86,544.54,142.43,554.97,129.61,554.97z
		 M117.34,536.72c1.98,4.83,6.73,8.25,12.27,8.25s10.29-3.42,12.27-8.25H117.34z"/>
</g>
<g>
	<path class="st0" d="M171.67,411.21h-10c0-17.68-14.38-32.06-32.06-32.06v-10C152.8,369.15,171.67,388.02,171.67,411.21z"/>
</g>
<g>
	<path class="st0" d="M158.02,442.22l-6.76-7.37c2.66-2.44,4.87-5.28,6.58-8.44l8.8,4.75C164.4,435.31,161.5,439.03,158.02,442.22z"
		/>
</g>
<g>
	<path class="st0" d="M139.15,725.31c-16.9,0-30.65-13.75-30.65-30.65S122.25,664,139.15,664s30.65,13.75,30.65,30.65
		S156.06,725.31,139.15,725.31z M139.15,674c-11.39,0-20.65,9.26-20.65,20.65s9.26,20.65,20.65,20.65
		c11.39,0,20.65-9.26,20.65-20.65S150.54,674,139.15,674z"/>
</g>
<g>
	<path class="st0" d="M258.05,844.2c-16.9,0-30.65-13.75-30.65-30.65s13.75-30.65,30.65-30.65s30.65,13.75,30.65,30.65
		S274.95,844.2,258.05,844.2z M258.05,792.9c-11.39,0-20.65,9.26-20.65,20.65c0,11.39,9.26,20.65,20.65,20.65
		s20.65-9.26,20.65-20.65C278.7,802.16,269.44,792.9,258.05,792.9z"/>
</g>
<g>
	<path class="st0" d="M334.09,768.17c-16.9,0-30.65-13.75-30.65-30.65s13.75-30.65,30.65-30.65s30.65,13.75,30.65,30.65
		S350.99,768.17,334.09,768.17z M334.09,716.86c-11.39,0-20.65,9.26-20.65,20.65c0,11.39,9.26,20.65,20.65,20.65
		c11.39,0,20.65-9.26,20.65-20.65C354.74,726.13,345.47,716.86,334.09,716.86z"/>
</g>
<g>
	<path class="st0" d="M455.02,889.1c-16.9,0-30.65-13.75-30.65-30.65s13.75-30.65,30.65-30.65s30.65,13.75,30.65,30.65
		S471.92,889.1,455.02,889.1z M455.02,837.8c-11.39,0-20.65,9.26-20.65,20.65c0,11.39,9.26,20.65,20.65,20.65
		c11.39,0,20.65-9.26,20.65-20.65C475.67,847.06,466.41,837.8,455.02,837.8z"/>
</g>
<g>
	
		<rect x="193.15" y="694.56" transform="matrix(0.7071 -0.7071 0.7071 0.7071 -474.8716 360.8466)" class="st0" width="10" height="118.18"/>
</g>
<g>
	
		<rect x="267.18" y="770.84" transform="matrix(0.7071 -0.7071 0.7071 0.7071 -461.9736 436.3728)" class="st0" width="57.17" height="10"/>
</g>
<g>
	
		<rect x="389.65" y="738.08" transform="matrix(0.7071 -0.7071 0.7071 0.7071 -448.7358 512.8091)" class="st0" width="10" height="119.99"/>
</g>
<g>
	<polygon class="st0" points="647.11,795.31 596.74,769.73 601.27,760.81 647.11,784.1 692.95,760.81 697.48,769.73 	"/>
</g>
<g>
	<rect x="642.11" y="789.7" class="st0" width="10" height="65.61"/>
</g>
<g>
	<path class="st0" d="M1075.29,606.76h-48v-60.37h48V606.76z M1037.29,596.76h28v-40.37h-28V596.76z"/>
</g>
<g>
	<path class="st0" d="M1037.29,606.76H907.78v-60.37h129.51V606.76z M917.78,596.76h109.51v-40.37H917.78V596.76z"/>
</g>
<g>
	<path class="st0" d="M980.29,554.62h-41.82v-60.37h41.82V554.62z M948.48,544.62h21.82v-40.37h-21.82V544.62z"/>
</g>
<g>
	<path class="st0" d="M1105.98,554.62H970.29v-60.37h135.68V554.62z M980.29,544.62h115.68v-40.37H980.29V544.62z"/>
</g>
<g>
	<rect x="932.04" y="565.89" class="st0" width="10" height="21.37"/>
</g>
<g>
	<rect x="956.04" y="565.89" class="st0" width="10" height="21.37"/>
</g>
<g>
	<rect x="1065.29" y="512.98" class="st0" width="10" height="22.9"/>
</g>
<g>
	<rect x="1040.54" y="512.98" class="st0" width="10" height="22.9"/>
</g>
<g>
	<rect x="1027.29" y="549.62" class="st0" width="10" height="1.77"/>
</g>
<g>
	<g>
		<path class="st0" d="M353.11,186.02l-29.86-15.04c-7.77,2.17-15.88,3.27-24.14,3.27c-40.6,0-73.63-26.61-73.63-59.32
			s33.03-59.32,73.63-59.32s73.63,26.61,73.63,59.32c0,15.11-6.95,29.36-19.63,40.35V186.02z M324.2,160.26l18.91,9.52v-19.23
			l1.86-1.5c11.46-9.25,17.77-21.37,17.77-34.13c0-27.2-28.54-49.32-63.63-49.32s-63.63,22.13-63.63,49.32s28.54,49.32,63.63,49.32
			c7.97,0,15.76-1.14,23.17-3.4L324.2,160.26z"/>
	</g>
	<g>
		<rect x="272.69" y="96.19" class="st0" width="52.84" height="10"/>
	</g>
	<g>
		<rect x="272.69" y="122.44" class="st0" width="52.84" height="10"/>
	</g>
</g>
<g>
	<path class="st0" d="M786.86,159.7h-80.9V78.8h80.9V159.7z M715.96,149.7h60.9V88.8h-60.9V149.7z"/>
</g>
<g>
	<path class="st0" d="M715.96,174.45H536.73c-16.2,0-29.38-13.18-29.38-29.38V93.43c0-16.2,13.18-29.38,29.38-29.38h179.23V174.45z
		 M536.73,74.05c-10.68,0-19.38,8.69-19.38,19.38v51.65c0,10.68,8.69,19.38,19.38,19.38h169.23v-90.4H536.73z"/>
</g>
<g>
	<rect x="748.61" y="130.51" class="st0" width="16.31" height="10"/>
</g>
<g>
	<rect x="748.61" y="97.99" class="st0" width="16.31" height="10"/>
</g>
<g>
	<rect x="710.96" y="130.51" class="st0" width="15.71" height="10"/>
</g>
<g>
	<rect x="710.96" y="97.99" class="st0" width="15.71" height="10"/>
</g>
<g>
	<rect x="545.36" y="140.7" class="st0" width="22.53" height="10"/>
</g>
<g>
	<rect x="587.13" y="140.7" class="st0" width="96.73" height="10"/>
</g>
<g>
	<g>
		<rect x="912.44" y="390.15" class="st1" width="51.92" height="10"/>
	</g>
	<g>
		<rect x="933.4" y="369.19" class="st1" width="10" height="51.92"/>
	</g>
</g>
<g>
	<g>
		<rect y="21.99" class="st1" width="52.32" height="10"/>
	</g>
	<g>
		<rect x="21.16" y="0.83" class="st1" width="10" height="52.32"/>
	</g>
</g>
<g>
	<path class="st1" d="M129.75,212.76c-14.82,0-26.88-12.06-26.88-26.88S114.93,159,129.75,159s26.88,12.06,26.88,26.88
		S144.57,212.76,129.75,212.76z M129.75,169c-9.31,0-16.88,7.57-16.88,16.88s7.57,16.88,16.88,16.88s16.88-7.57,16.88-16.88
		S139.06,169,129.75,169z"/>
</g>
<g>
	<g>
		<rect x="1024.33" y="50.84" class="st1" width="51.92" height="10"/>
	</g>
	<g>
		<rect x="1045.29" y="29.88" class="st1" width="10" height="51.92"/>
	</g>
</g>
<g>
	<g>
		<rect x="246.73" y="235.28" class="st1" width="51.92" height="10"/>
	</g>
	<g>
		<rect x="267.69" y="214.32" class="st1" width="10" height="51.92"/>
	</g>
</g>
<g>
	<g>
		<rect x="461.76" y="748.64" class="st1" width="51.92" height="10"/>
	</g>
	<g>
		<rect x="482.72" y="727.68" class="st1" width="10" height="51.92"/>
	</g>
</g>
<g>
	<path class="st1" d="M440.05,204.61c-14.73,0-26.71-11.98-26.71-26.71c0-14.73,11.98-26.71,26.71-26.71s26.71,11.98,26.71,26.71
		C466.76,192.63,454.78,204.61,440.05,204.61z M440.05,161.19c-9.21,0-16.71,7.5-16.71,16.71s7.5,16.71,16.71,16.71
		s16.71-7.5,16.71-16.71S449.26,161.19,440.05,161.19z"/>
</g>
<g>
	<path class="st1" d="M909.12,182.9c-14.73,0-26.71-11.98-26.71-26.71c0-14.73,11.98-26.71,26.71-26.71s26.71,11.98,26.71,26.71
		C935.83,170.92,923.85,182.9,909.12,182.9z M909.12,139.48c-9.21,0-16.71,7.5-16.71,16.71s7.5,16.71,16.71,16.71
		s16.71-7.5,16.71-16.71S918.33,139.48,909.12,139.48z"/>
</g>
<g>
	<path class="st1" d="M940.38,757.45c-13.22,0-23.97-10.41-23.97-23.2s10.76-23.2,23.97-23.2s23.97,10.41,23.97,23.2
		S953.59,757.45,940.38,757.45z M940.38,719.74c-8.27,0-15,6.51-15,14.51s6.73,14.51,15,14.51s15-6.51,15-14.51
		S948.65,719.74,940.38,719.74z"/>
</g>
<g>
	<path class="st1" d="M773.36,764.23c-14.73,0-26.71-11.98-26.71-26.71s11.98-26.71,26.71-26.71s26.71,11.98,26.71,26.71
		S788.09,764.23,773.36,764.23z M773.36,720.8c-9.21,0-16.71,7.5-16.71,16.71s7.5,16.71,16.71,16.71s16.71-7.5,16.71-16.71
		S782.57,720.8,773.36,720.8z"/>
</g>
<polygon class="st1" points="301.66,501.82 295.59,501.82 295.59,518.44 278.97,518.44 278.97,524.51 295.59,524.51 295.59,541.13 
	301.66,541.13 301.66,524.51 318.28,524.51 318.28,518.44 301.66,518.44 "/>
<path class="st1" d="M1045.92,837c-10.34,0-18.74,8.41-18.74,18.74c0,10.34,8.41,18.74,18.74,18.74c10.34,0,18.74-8.41,18.74-18.74
	C1064.66,845.41,1056.25,837,1045.92,837z M1045.92,868.42c-6.99,0-12.67-5.68-12.67-12.67c0-6.99,5.68-12.67,12.67-12.67
	c6.99,0,12.67,5.69,12.67,12.67C1058.59,862.74,1052.91,868.42,1045.92,868.42z"/>
<path class="st2" d="M412.66,656.33V529.7h27.22l38.98,63.61c2.97,4.93,5.74,9.92,8.29,14.96c2.55,5.05,4.88,10.15,7.01,15.31
	c-0.67-3.74-1.15-7.75-1.45-12.03c-0.3-4.28-0.46-8.86-0.46-13.73V529.7h23.68v126.62h-23.68l-42.34-65.31
	c-2.31-3.69-4.75-8.11-7.33-13.27c-2.58-5.16-5.24-10.89-7.97-17.18c0.61,3.46,1.04,7.25,1.32,11.4c0.27,4.13,0.42,8.92,0.42,14.37
	v69.99H412.66z"/>
<path class="st2" d="M545.95,656.33V529.7h85.59v20.58h-59.82v29.77h45.25v20.58h-45.25v55.7H545.95z"/>
<path class="st2" d="M722.87,618.57l23.48,6.04c-3.34,10.94-9.28,19.32-17.84,25.13c-8.56,5.81-19.25,8.71-32.05,8.71
	c-17.61,0-30.9-5.47-39.88-16.41c-8.98-10.93-13.47-27.06-13.47-48.38c0-20.93,4.76-37.07,14.3-48.44
	c9.52-11.36,23.03-17.05,40.51-17.05c12.2,0,22.22,2.84,30.05,8.51c7.83,5.67,13.05,13.86,15.66,24.58l-23.48,5.36
	c-1.71-6.07-4.54-10.66-8.52-13.78c-3.98-3.12-9.03-4.68-15.16-4.68c-9.23,0-16.11,3.78-20.67,11.35c-4.55,7.57-6.82,19-6.82,34.31
	c0,14.86,2.27,25.83,6.82,32.91c4.56,7.09,11.62,10.63,21.22,10.63c6.24,0,11.69-1.69,16.3-5.05
	C717.91,628.93,721.1,624.35,722.87,618.57z"/>
<g>
	<g>
		<path class="st0" d="M745.96,471.19h-27.85c0-71.7-62.44-130.02-139.22-130.02c-76.76,0-139.23,58.32-139.23,130.02h-27.85
			c0-86.02,74.95-156.03,167.08-156.03C671.02,315.16,745.96,385.17,745.96,471.19z"/>
	</g>
	<g>
		<path class="st0" d="M686.73,464.28h-27.87c0-41.21-35.87-74.72-79.96-74.72c-44.1,0-79.98,33.51-79.98,74.72h-27.83
			c0-55.53,48.34-100.73,107.81-100.73C638.33,363.55,686.73,408.75,686.73,464.28z"/>
	</g>
	<g>
		<path class="st0" d="M537.57,464.28c0-21.31,18.51-38.58,41.33-38.58c22.79,0,41.31,17.27,41.31,38.58H537.57z"/>
	</g>
</g>
<polygon class="st1" points="579.35,265.76 562.73,265.76 562.73,249.14 556.66,249.14 556.66,265.76 540.04,265.76 540.04,271.83 
	556.66,271.83 556.66,288.45 562.73,288.45 562.73,271.83 579.35,271.83 "/>
</svg>
