<?xml version="1.0" encoding="utf-8"?>
<!-- Generator: Adobe Illustrator 24.1.3, SVG Export Plug-In . SVG Version: 6.00 Build 0)  -->
<svg version="1.1" id="Layer_1" xmlns="http://www.w3.org/2000/svg" xmlns:xlink="http://www.w3.org/1999/xlink" x="0px" y="0px"
	 viewBox="0 0 1226.19 914.82" style="enable-background:new 0 0 1226.19 914.82;" xml:space="preserve">
<style type="text/css">
	.st0{fill:#6ADFBE;}
	.st1{fill:#434d4d;}
	.st2{fill:none;stroke:#434d4d;stroke-width:10;stroke-linecap:round;stroke-linejoin:round;stroke-miterlimit:10;}
	.st3{fill:none;stroke:#6ADFBE;stroke-width:10;stroke-miterlimit:10;}
	.st4{fill:#434d4d;stroke:#434d4d;stroke-width:10;stroke-linecap:round;stroke-linejoin:round;stroke-miterlimit:10;}
	.st5{fill:#70BFE0;stroke:#FFFFFF;stroke-width:2;stroke-linecap:round;stroke-linejoin:round;stroke-miterlimit:10;}
	.st6{fill:#6ADFBE;stroke:#434d4d;stroke-miterlimit:10;}
	.st7{fill:#6ADFBE;stroke:#434d4d;stroke-width:10;stroke-linecap:round;stroke-linejoin:round;stroke-miterlimit:10;}
</style>
<g>
	<g>
		<rect y="21.99" class="st0" width="52.32" height="10"/>
	</g>
	<g>
		<rect x="21.16" y="0.83" class="st0" width="10" height="52.32"/>
	</g>
</g>
<g>
	<path class="st0" d="M182.75,53.76c-14.82,0-26.88-12.06-26.88-26.88S167.93,0,182.75,0s26.88,12.06,26.88,26.88
		S197.57,53.76,182.75,53.76z M182.75,10c-9.31,0-16.88,7.57-16.88,16.88s7.57,16.88,16.88,16.88s16.88-7.57,16.88-16.88
		S192.06,10,182.75,10z"/>
</g>
<g>
	<polygon class="st0" points="1147.54,914.82 1122.25,889.52 1096.95,914.82 1072.05,889.91 1050.67,911.28 1043.6,904.21 
		1072.05,875.76 1096.95,900.67 1122.25,875.38 1147.54,900.67 1172.45,875.76 1197.36,900.67 1219.12,878.92 1226.19,885.99 
		1197.36,914.82 1172.45,889.91 	"/>
</g>
<g>
	<path class="st1" d="M517.36,119.88h-10V93.43c0-16.2,13.18-29.38,29.38-29.38h179.23v36.45H536.73
		C526.05,100.5,517.36,109.19,517.36,119.88z M536.73,74.05c-10.68,0-19.38,8.69-19.38,19.38v4.39c5.17-4.55,11.96-7.31,19.38-7.31
		h169.23V74.05H536.73z"/>
</g>
<g>
	<path class="st1" d="M647.1,795.31l-59.14-30.04l59.14-30.04l59.15,30.04L647.1,795.31z M610.04,765.27l37.06,18.83l37.06-18.83
		l-37.06-18.83L610.04,765.27z"/>
</g>
<g>
	<path class="st1" d="M652.1,863.46L594,833.95v-76.83l58.1,29.51V863.46z M604,827.81l38.1,19.36v-54.39L604,773.42V827.81z"/>
</g>
<g>
	<path class="st1" d="M647.11,860.92l-53.1-26.97V762.2l53.1-26.97l53.1,26.97v71.74L647.11,860.92z M604.01,827.81l43.1,21.89
		l43.1-21.89v-59.47l-43.1-21.89l-43.1,21.89V827.81z"/>
</g>
<g>
	<path class="st1" d="M162.36,366.97h-65.5v-7.13c0-18.11-6.29-35.88-17.7-50.06c-9.87-12.25-14.92-27.69-14.23-43.47
		c0.69-15.78,7.21-30.77,18.35-42.22c11.14-11.45,25.96-18.37,41.71-19.46c18.2-1.27,35.51,4.85,48.78,17.23
		c13.09,12.21,20.59,29.47,20.59,47.36c0,14.69-4.8,28.53-13.87,40.04c-11.69,14.82-18.12,32.79-18.12,50.6V366.97z M106.81,356.97
		h45.6c0.65-19.09,7.77-38.13,20.22-53.91c7.67-9.73,11.72-21.43,11.72-33.85c0-15.13-6.35-29.72-17.42-40.04
		c-11.22-10.47-25.88-15.64-41.27-14.56c-27.26,1.9-49.56,24.8-50.76,52.14c-0.58,13.35,3.69,26.41,12.03,36.76
		C99.18,318.7,106.18,337.58,106.81,356.97z"/>
</g>
<g>
	<path class="st1" d="M146.98,394.72h-34.75c-8.48,0-15.38-6.9-15.38-15.38v-22.38h65.5v22.38
		C162.36,387.82,155.46,394.72,146.98,394.72z M106.86,366.97v12.38c0,2.96,2.41,5.38,5.38,5.38h34.75c2.96,0,5.38-2.41,5.38-5.38
		v-12.38H106.86z"/>
</g>
<g>
	<path class="st1" d="M129.61,412.97c-12.82,0-23.25-10.43-23.25-23.25v-5h46.5v5C152.86,402.54,142.43,412.97,129.61,412.97z
		 M117.34,394.72c1.98,4.83,6.73,8.25,12.27,8.25s10.29-3.42,12.27-8.25H117.34z"/>
</g>
<g>
	<path class="st1" d="M171.67,269.21h-10c0-17.68-14.38-32.06-32.06-32.06v-10C152.8,227.15,171.67,246.02,171.67,269.21z"/>
</g>
<g>
	<path class="st1" d="M158.02,300.22l-6.76-7.37c2.66-2.44,4.87-5.28,6.58-8.44l8.8,4.75C164.4,293.31,161.5,297.03,158.02,300.22z"
		/>
</g>
<g>
	<path class="st1" d="M139.15,725.31c-16.9,0-30.65-13.75-30.65-30.65S122.25,664,139.15,664s30.65,13.75,30.65,30.65
		S156.06,725.31,139.15,725.31z M139.15,674c-11.39,0-20.65,9.26-20.65,20.65s9.26,20.65,20.65,20.65
		c11.39,0,20.65-9.26,20.65-20.65S150.54,674,139.15,674z"/>
</g>
<g>
	<path class="st1" d="M258.05,844.2c-16.9,0-30.65-13.75-30.65-30.65s13.75-30.65,30.65-30.65s30.65,13.75,30.65,30.65
		S274.95,844.2,258.05,844.2z M258.05,792.9c-11.39,0-20.65,9.26-20.65,20.65c0,11.39,9.26,20.65,20.65,20.65
		s20.65-9.26,20.65-20.65C278.7,802.16,269.44,792.9,258.05,792.9z"/>
</g>
<g>
	<path class="st1" d="M334.09,768.17c-16.9,0-30.65-13.75-30.65-30.65s13.75-30.65,30.65-30.65s30.65,13.75,30.65,30.65
		S350.99,768.17,334.09,768.17z M334.09,716.86c-11.39,0-20.65,9.26-20.65,20.65c0,11.39,9.26,20.65,20.65,20.65
		c11.39,0,20.65-9.26,20.65-20.65C354.74,726.13,345.47,716.86,334.09,716.86z"/>
</g>
<g>
	<path class="st1" d="M455.02,889.1c-16.9,0-30.65-13.75-30.65-30.65s13.75-30.65,30.65-30.65s30.65,13.75,30.65,30.65
		S471.92,889.1,455.02,889.1z M455.02,837.8c-11.39,0-20.65,9.26-20.65,20.65c0,11.39,9.26,20.65,20.65,20.65
		c11.39,0,20.65-9.26,20.65-20.65C475.67,847.06,466.41,837.8,455.02,837.8z"/>
</g>
<g>
	
		<rect x="193.15" y="694.56" transform="matrix(0.7071 -0.7071 0.7071 0.7071 -474.8716 360.8466)" class="st1" width="10" height="118.18"/>
</g>
<g>
	
		<rect x="267.18" y="770.84" transform="matrix(0.7071 -0.7071 0.7071 0.7071 -461.9736 436.3728)" class="st1" width="57.17" height="10"/>
</g>
<g>
	
		<rect x="389.65" y="738.08" transform="matrix(0.7071 -0.7071 0.7071 0.7071 -448.7358 512.8091)" class="st1" width="10" height="119.99"/>
</g>
<g>
	<polygon class="st1" points="647.11,795.31 596.74,769.73 601.27,760.81 647.11,784.1 692.95,760.81 697.48,769.73 	"/>
</g>
<g>
	<rect x="642.11" y="789.7" class="st1" width="10" height="65.61"/>
</g>
<g>
	<path class="st1" d="M206.94,601.98H29.69v-127h177.25V601.98z M39.69,591.98h157.25v-107H39.69V591.98z"/>
</g>
<g>
	<path class="st1" d="M185.6,581.94H51.02v-70.78H185.6V581.94z M61.02,571.94H175.6v-50.78H61.02V571.94z"/>
</g>
<g>
	<rect x="96.22" y="492.48" class="st1" width="18.13" height="10"/>
</g>
<g>
	<rect x="129.35" y="492.48" class="st1" width="18.13" height="10"/>
</g>
<g>
	<rect x="162.47" y="492.48" class="st1" width="18.13" height="10"/>
</g>
<g>
	<path class="st1" d="M1187.29,567.76h-48v-60.37h48V567.76z M1149.29,557.76h28v-40.37h-28V557.76z"/>
</g>
<g>
	<path class="st1" d="M1149.29,567.76h-129.51v-60.37h129.51V567.76z M1029.78,557.76h109.51v-40.37h-109.51V557.76z"/>
</g>
<g>
	<path class="st1" d="M1148.29,757.62h-41.82v-60.37h41.82V757.62z M1116.48,747.62h21.82v-40.37h-21.82V747.62z"/>
</g>
<g>
	<path class="st1" d="M1217.98,515.62h-135.68v-60.37h135.68V515.62z M1092.29,505.62h115.68v-40.37h-115.68V505.62z"/>
</g>
<g>
	<rect x="1087.04" y="526.89" class="st1" width="10" height="21.37"/>
</g>
<g>
	<rect x="1177.29" y="473.98" class="st1" width="10" height="22.9"/>
</g>
<g>
	<rect x="1152.54" y="473.98" class="st1" width="10" height="22.9"/>
</g>
<g>
	<rect x="1139.29" y="510.62" class="st1" width="10" height="1.77"/>
</g>
<g>
	<g>
		<path class="st1" d="M353.11,186.02l-29.86-15.04c-7.77,2.17-15.88,3.27-24.14,3.27c-40.6,0-73.63-26.61-73.63-59.32
			s33.03-59.32,73.63-59.32s73.63,26.61,73.63,59.32c0,15.11-6.95,29.36-19.63,40.35V186.02z M324.2,160.26l18.91,9.52v-19.23
			l1.86-1.5c11.46-9.25,17.77-21.37,17.77-34.13c0-27.2-28.54-49.32-63.63-49.32s-63.63,22.13-63.63,49.32s28.54,49.32,63.63,49.32
			c7.97,0,15.76-1.14,23.17-3.4L324.2,160.26z"/>
	</g>
	<g>
		<rect x="272.69" y="96.19" class="st1" width="52.84" height="10"/>
	</g>
	<g>
		<rect x="272.69" y="122.44" class="st1" width="52.84" height="10"/>
	</g>
</g>
<g>
	<path class="st1" d="M786.86,159.7h-80.9V78.8h80.9V159.7z M715.96,149.7h60.9V88.8h-60.9V149.7z"/>
</g>
<g>
	<path class="st1" d="M715.96,174.45H536.73c-16.2,0-29.38-13.18-29.38-29.38V93.43c0-16.2,13.18-29.38,29.38-29.38h179.23V174.45z
		 M536.73,74.05c-10.68,0-19.38,8.69-19.38,19.38v51.65c0,10.68,8.69,19.38,19.38,19.38h169.23v-90.4H536.73z"/>
</g>
<g>
	<rect x="748.61" y="130.51" class="st1" width="16.31" height="10"/>
</g>
<g>
	<rect x="748.61" y="97.99" class="st1" width="16.31" height="10"/>
</g>
<g>
	<rect x="710.96" y="130.51" class="st1" width="15.71" height="10"/>
</g>
<g>
	<rect x="710.96" y="97.99" class="st1" width="15.71" height="10"/>
</g>
<g>
	<rect x="545.36" y="140.7" class="st1" width="22.53" height="10"/>
</g>
<g>
	<rect x="587.13" y="140.7" class="st1" width="96.73" height="10"/>
</g>
<g>
	<g>
		<rect x="1161.33" y="60.84" class="st0" width="51.92" height="10"/>
	</g>
	<g>
		<rect x="1182.29" y="39.88" class="st0" width="10" height="51.92"/>
	</g>
</g>
<g>
	<g>
		<rect x="246.73" y="235.28" class="st0" width="51.92" height="10"/>
	</g>
	<g>
		<rect x="267.69" y="214.32" class="st0" width="10" height="51.92"/>
	</g>
</g>
<g>
	<g>
		<rect x="461.76" y="748.64" class="st0" width="51.92" height="10"/>
	</g>
	<g>
		<rect x="482.72" y="727.68" class="st0" width="10" height="51.92"/>
	</g>
</g>
<g>
	<path class="st0" d="M440.05,204.61c-14.73,0-26.71-11.98-26.71-26.71c0-14.73,11.98-26.71,26.71-26.71s26.71,11.98,26.71,26.71
		C466.76,192.63,454.78,204.61,440.05,204.61z M440.05,161.19c-9.21,0-16.71,7.5-16.71,16.71s7.5,16.71,16.71,16.71
		s16.71-7.5,16.71-16.71S449.26,161.19,440.05,161.19z"/>
</g>
<g>
	<path class="st0" d="M909.12,182.9c-14.73,0-26.71-11.98-26.71-26.71c0-14.73,11.98-26.71,26.71-26.71s26.71,11.98,26.71,26.71
		C935.83,170.92,923.85,182.9,909.12,182.9z M909.12,139.48c-9.21,0-16.71,7.5-16.71,16.71s7.5,16.71,16.71,16.71
		s16.71-7.5,16.71-16.71S918.33,139.48,909.12,139.48z"/>
</g>
<g>
	<path class="st1" d="M944.06,512.3c-15.42,0-27.96-12.54-27.96-27.96s12.54-27.96,27.96-27.96c15.42,0,27.96,12.54,27.96,27.96
		S959.48,512.3,944.06,512.3z M944.06,466.84c-9.65,0-17.49,7.85-17.49,17.49c0,9.65,7.85,17.49,17.49,17.49s17.49-7.85,17.49-17.49
		C961.56,474.69,953.71,466.84,944.06,466.84z"/>
</g>
<g>
	<path class="st0" d="M773.36,764.23c-14.73,0-26.71-11.98-26.71-26.71s11.98-26.71,26.71-26.71s26.71,11.98,26.71,26.71
		S788.09,764.23,773.36,764.23z M773.36,720.8c-9.21,0-16.71,7.5-16.71,16.71s7.5,16.71,16.71,16.71s16.71-7.5,16.71-16.71
		S782.57,720.8,773.36,720.8z"/>
</g>
<path class="st2" d="M973.51,663.35h-655.3v-434.7c0-1.7,1.38-3.07,3.07-3.07h649.15c1.7,0,3.07,1.38,3.07,3.07V663.35z"/>
<rect x="369.1" y="271.05" class="st3" width="554.6" height="348.2"/>
<rect x="273.96" y="663.35" class="st4" width="745.58" height="32.1"/>
<g>
	<line class="st5" x1="405.79" y1="422.25" x2="506.95" y2="321.09"/>
	<line class="st5" x1="392.93" y1="486.56" x2="573.13" y2="306.36"/>
</g>
<g>
	<path class="st6" d="M537.88,402.89c5.22-0.87,12.07-1.62,20.77-1.62c10.7,0,18.53,2.49,23.51,6.97c4.6,3.98,7.34,10.08,7.34,17.54
		c0,7.59-2.24,13.56-6.47,17.91c-5.72,6.09-15.05,9.2-25.62,9.2c-3.23,0-6.22-0.12-8.71-0.75v33.59h-10.82V402.89z M548.71,443.32
		c2.36,0.62,5.35,0.87,8.96,0.87c13.06,0,21.02-6.34,21.02-17.91c0-11.07-7.84-16.42-19.78-16.42c-4.73,0-8.33,0.37-10.2,0.87
		V443.32z"/>
	<path class="st6" d="M619.6,459.36l-8.71,26.37H599.7l28.48-83.84h13.06l28.61,83.84h-11.57l-8.96-26.37H619.6z M647.09,450.91
		l-8.21-24.13c-1.87-5.47-3.11-10.45-4.35-15.3h-0.25c-1.24,4.98-2.61,10.08-4.23,15.18l-8.21,24.26H647.09z"/>
	<path class="st6" d="M703.44,485.73v-35.58l-26.5-48.26h12.31l11.82,23.14c3.23,6.34,5.72,11.44,8.33,17.29h0.25
		c2.36-5.47,5.22-10.95,8.46-17.29l12.07-23.14h12.31l-28.11,48.14v35.7H703.44z"/>
</g>
<path class="st7" d="M1010.01,440.17L881.9,393.74l46.95,127.59l31.01-31.01l67.09,67.09c5.26,5.26,13.87,5.26,19.13,0
	c5.26-5.26,5.26-13.87,0-19.13L979,471.18L1010.01,440.17z"/>
</svg>
