<?xml version="1.0" encoding="utf-8"?>
<!-- Generator: Adobe Illustrator 24.1.3, SVG Export Plug-In . SVG Version: 6.00 Build 0)  -->
<svg version="1.1" id="Layer_1" xmlns="http://www.w3.org/2000/svg" xmlns:xlink="http://www.w3.org/1999/xlink" x="0px" y="0px"
	 viewBox="0 0 1105.5 1030.5" style="enable-background:new 0 0 1105.5 1030.5;" xml:space="preserve">
<style type="text/css">
	.st0{fill:#6ADFBE;}
	.st1{opacity:0.3;}
	.st2{opacity:0.3;fill:#6ADFBE;}
	.st3{opacity:0.3;fill:#434d4d;}
	.st4{fill:#434d4d;}
	.st5{fill:#434d4d;}
</style>
<g>
	<polygon class="st0" points="103.94,168.27 78.65,142.97 53.35,168.27 28.44,143.36 7.07,164.73 0,157.66 28.44,129.21 
		53.35,154.12 78.65,128.83 103.94,154.12 128.85,129.21 153.76,154.12 175.52,132.37 182.59,139.44 153.76,168.27 128.85,143.36 	
		"/>
</g>
<g>
	<g class="st1">
		<path class="st0" d="M93,871.5H77c-4.14,0-7.5-3.36-7.5-7.5s3.36-7.5,7.5-7.5h16c4.14,0,7.5,3.36,7.5,7.5S97.14,871.5,93,871.5z"
			/>
		<path class="st0" d="M155,871.5h-18c-4.14,0-7.5-3.36-7.5-7.5s3.36-7.5,7.5-7.5h18c4.14,0,7.5,3.36,7.5,7.5
			S159.14,871.5,155,871.5z"/>
	</g>
	<g>
		<path class="st2" d="M115.5,911c-4.14,0-7.5-3.36-7.5-7.5v-16c0-4.14,3.36-7.5,7.5-7.5s7.5,3.36,7.5,7.5v16
			C123,907.64,119.64,911,115.5,911z"/>
		<path class="st2" d="M115.5,851c-4.14,0-7.5-3.36-7.5-7.5v-18c0-4.14,3.36-7.5,7.5-7.5s7.5,3.36,7.5,7.5v18
			C123,847.64,119.64,851,115.5,851z"/>
	</g>
</g>
<g>
	<g>
		<path class="st0" d="M1036,531.5h-16c-4.14,0-7.5-3.36-7.5-7.5s3.36-7.5,7.5-7.5h16c4.14,0,7.5,3.36,7.5,7.5
			S1040.14,531.5,1036,531.5z"/>
		<path class="st0" d="M1098,531.5h-18c-4.14,0-7.5-3.36-7.5-7.5s3.36-7.5,7.5-7.5h18c4.14,0,7.5,3.36,7.5,7.5
			S1102.14,531.5,1098,531.5z"/>
	</g>
	<g>
		<path class="st0" d="M1058.5,571c-4.14,0-7.5-3.36-7.5-7.5v-16c0-4.14,3.36-7.5,7.5-7.5c4.14,0,7.5,3.36,7.5,7.5v16
			C1066,567.64,1062.64,571,1058.5,571z"/>
		<path class="st0" d="M1058.5,511c-4.14,0-7.5-3.36-7.5-7.5v-18c0-4.14,3.36-7.5,7.5-7.5c4.14,0,7.5,3.36,7.5,7.5v18
			C1066,507.64,1062.64,511,1058.5,511z"/>
	</g>
</g>
<g>
	<g>
		<path class="st0" d="M390,53.5h-16c-4.14,0-7.5-3.36-7.5-7.5s3.36-7.5,7.5-7.5h16c4.14,0,7.5,3.36,7.5,7.5S394.14,53.5,390,53.5z"
			/>
		<path class="st0" d="M452,53.5h-18c-4.14,0-7.5-3.36-7.5-7.5s3.36-7.5,7.5-7.5h18c4.14,0,7.5,3.36,7.5,7.5S456.14,53.5,452,53.5z"
			/>
	</g>
	<g>
		<path class="st0" d="M412.5,93c-4.14,0-7.5-3.36-7.5-7.5v-16c0-4.14,3.36-7.5,7.5-7.5c4.14,0,7.5,3.36,7.5,7.5v16
			C420,89.64,416.64,93,412.5,93z"/>
		<path class="st0" d="M412.5,33c-4.14,0-7.5-3.36-7.5-7.5v-18c0-4.14,3.36-7.5,7.5-7.5c4.14,0,7.5,3.36,7.5,7.5v18
			C420,29.64,416.64,33,412.5,33z"/>
	</g>
</g>
<g>
	<g>
		<path class="st0" d="M1015,808.5h-16c-4.14,0-7.5-3.36-7.5-7.5s3.36-7.5,7.5-7.5h16c4.14,0,7.5,3.36,7.5,7.5
			S1019.14,808.5,1015,808.5z"/>
		<path class="st0" d="M1077,808.5h-18c-4.14,0-7.5-3.36-7.5-7.5s3.36-7.5,7.5-7.5h18c4.14,0,7.5,3.36,7.5,7.5
			S1081.14,808.5,1077,808.5z"/>
	</g>
	<g>
		<path class="st0" d="M1037.5,848c-4.14,0-7.5-3.36-7.5-7.5v-16c0-4.14,3.36-7.5,7.5-7.5c4.14,0,7.5,3.36,7.5,7.5v16
			C1045,844.64,1041.64,848,1037.5,848z"/>
		<path class="st0" d="M1037.5,788c-4.14,0-7.5-3.36-7.5-7.5v-18c0-4.14,3.36-7.5,7.5-7.5c4.14,0,7.5,3.36,7.5,7.5v18
			C1045,784.64,1041.64,788,1037.5,788z"/>
	</g>
</g>
<path class="st0" d="M91.01,676.81c-13.4,0-24.31-10.9-24.31-24.31c0-13.4,10.91-24.31,24.31-24.31c13.4,0,24.31,10.9,24.31,24.31
	C115.32,665.9,104.41,676.81,91.01,676.81z M91.01,643.19c-5.13,0-9.31,4.18-9.31,9.31s4.18,9.31,9.31,9.31
	c5.13,0,9.31-4.18,9.31-9.31S96.14,643.19,91.01,643.19z"/>
<path class="st0" d="M614.28,129.3c-13.4,0-24.31-10.9-24.31-24.31c0-13.4,10.91-24.31,24.31-24.31c13.4,0,24.31,10.9,24.31,24.31
	C638.59,118.39,627.69,129.3,614.28,129.3z M614.28,95.68c-5.13,0-9.31,4.18-9.31,9.31c0,5.13,4.18,9.31,9.31,9.31
	c5.13,0,9.31-4.18,9.31-9.31C623.59,99.86,619.42,95.68,614.28,95.68z"/>
<path class="st0" d="M935.28,878.3c-13.4,0-24.31-10.9-24.31-24.31c0-13.4,10.91-24.31,24.31-24.31c13.4,0,24.31,10.9,24.31,24.31
	C959.59,867.4,948.69,878.3,935.28,878.3z M935.28,844.68c-5.13,0-9.31,4.18-9.31,9.31c0,5.13,4.18,9.31,9.31,9.31
	c5.13,0,9.31-4.18,9.31-9.31C944.59,848.86,940.42,844.68,935.28,844.68z"/>
<path class="st3" d="M545.5,1030.5c-116.13,0-227.11-43.29-312.49-121.89c-3.05-2.81-3.24-7.55-0.44-10.6
	c2.81-3.05,7.55-3.24,10.6-0.44c82.6,76.04,189.97,117.92,302.33,117.92c53.39,0,105.62-9.33,155.22-27.72
	c47.93-17.77,92.18-43.51,131.52-76.51c3.17-2.66,7.9-2.25,10.57,0.93c2.66,3.17,2.25,7.9-0.93,10.57
	c-40.67,34.11-86.41,60.71-135.95,79.08C654.65,1020.86,600.68,1030.5,545.5,1030.5z"/>
<path class="st3" d="M965.3,403.31c-2.95,0-5.74-1.75-6.93-4.64c-17.92-43.39-42.53-83.57-73.14-119.43
	c-30.42-35.63-66.04-66.14-105.86-90.67c-3.53-2.17-4.63-6.79-2.45-10.32c2.17-3.53,6.79-4.62,10.32-2.45
	c41.15,25.35,77.96,56.88,109.4,93.7c31.64,37.06,57.08,78.59,75.6,123.44c1.58,3.83-0.24,8.21-4.07,9.79
	C967.22,403.13,966.25,403.31,965.3,403.31z"/>
<path class="st3" d="M91.5,576.5c-4.14,0-7.5-3.36-7.5-7.5c0-169.38,92.54-324.87,241.52-405.79c3.64-1.98,8.19-0.63,10.17,3.01
	c1.98,3.64,0.63,8.19-3.01,10.17C188.54,254.69,99,405.13,99,569C99,573.14,95.64,576.5,91.5,576.5z"/>
<path class="st4" d="M543.96,967.07c-53.93,0-106.26-10.56-155.52-31.4c-47.58-20.12-90.3-48.93-126.99-85.62
	c-36.69-36.69-65.5-79.42-85.62-126.99c-20.84-49.26-31.4-101.59-31.4-155.52s10.56-106.26,31.4-155.52
	c20.12-47.58,48.93-90.3,85.62-126.99c36.69-36.69,79.42-65.5,126.99-85.62c49.26-20.84,101.58-31.4,155.52-31.4
	s106.26,10.56,155.52,31.4c47.58,20.12,90.3,48.93,126.99,85.62c36.69,36.69,65.5,79.42,85.62,126.99
	c20.84,49.26,31.4,101.58,31.4,155.52s-10.56,106.26-31.4,155.52c-20.12,47.58-48.93,90.3-85.62,126.99
	c-36.69,36.69-79.42,65.5-126.99,85.62C650.22,956.5,597.9,967.07,543.96,967.07z M543.96,183c-51.92,0-102.27,10.17-149.67,30.22
	c-45.79,19.37-86.91,47.09-122.23,82.41s-63.04,76.44-82.41,122.23c-20.05,47.4-30.21,97.76-30.21,149.67
	c0,51.92,10.17,102.27,30.21,149.68c19.37,45.79,47.09,86.91,82.41,122.23s76.44,63.04,122.23,82.41
	c47.4,20.05,97.76,30.22,149.67,30.22c51.92,0,102.27-10.17,149.67-30.22c45.79-19.37,86.91-47.09,122.23-82.41
	c35.32-35.32,63.04-76.44,82.41-122.23c20.05-47.4,30.21-97.76,30.21-149.68c0-51.92-10.17-102.27-30.21-149.67
	c-19.37-45.79-47.09-86.91-82.41-122.23c-35.32-35.32-76.44-63.04-122.23-82.41C646.24,193.17,595.88,183,543.96,183z"/>
<g>
	<g>
		<path class="st0" d="M566.26,721.12H460.23c-4.14,0-7.5-3.36-7.5-7.5c0-4.14,3.36-7.5,7.5-7.5h106.02
			c15.11,0,29.27-1.36,42.1-4.03c12.23-2.55,22.95-7.3,31.86-14.12c7.99-5.99,14.7-13.46,20.01-22.22c0.02-0.04,0.05-0.08,0.07-0.12
			c8.35-13.24,12.59-28.45,12.59-45.22c0-16.18-3.64-30.04-10.83-41.18c-7.17-11.11-17.61-19.04-31.92-24.25
			c-2.8-1.02-4.74-3.6-4.92-6.58c-0.19-2.98,1.41-5.78,4.07-7.14c9.41-4.81,16.54-10.1,21.19-15.71
			c8.35-10.02,12.57-23.7,12.57-40.67c0-16.6-4.29-30.98-12.76-42.75c-14.11-19.2-39.02-29.24-73.99-29.77H434.64v269.56
			c0,4.14-3.36,7.5-7.5,7.5c-4.14,0-7.5-3.36-7.5-7.5V404.87c0-4.14,3.36-7.5,7.5-7.5h149.21c0.04,0,0.07,0,0.11,0
			c39.95,0.59,68.87,12.69,85.95,35.95c10.38,14.43,15.63,31.76,15.63,51.57c0,20.56-5.39,37.47-16.03,50.25
			c-3.48,4.19-7.91,8.18-13.23,11.91c10.8,6.07,19.48,14.12,25.88,24.05c8.78,13.6,13.23,30.2,13.23,49.31
			c0,19.63-5,37.51-14.87,53.17c-6.3,10.39-14.29,19.26-23.74,26.35c-10.66,8.15-23.41,13.83-37.86,16.84
			C597.59,719.66,582.39,721.12,566.26,721.12z"/>
		<path class="st0" d="M562.35,534.07h-35.36c-4.14,0-7.5-3.36-7.5-7.5c0-4.14,3.36-7.5,7.5-7.5h35.36c11.95,0,21.62-2.2,28.75-6.55
			c6.02-3.67,8.95-10.45,8.95-20.72c0-14.63-6.62-19.28-11.73-21.46c-8.69-2.88-20.07-4.34-33.84-4.34h-59.66v60.58
			c0,4.14-3.36,7.5-7.5,7.5c-4.14,0-7.5-3.36-7.5-7.5V458.5c0-4.14,3.36-7.5,7.5-7.5h67.16c15.53,0,28.61,1.75,38.88,5.21
			c0.17,0.06,0.33,0.12,0.49,0.19c9.67,4.03,21.2,13.45,21.2,35.41c0,15.72-5.43,27-16.14,33.53
			C589.39,531.13,577.09,534.07,562.35,534.07z"/>
		<path class="st0" d="M562.26,667.5h-54.17c-4.14,0-7.5-3.36-7.5-7.5c0-4.14,3.36-7.5,7.5-7.5h54.17c12.18,0,21.6-1.58,27.98-4.69
			c3.94-1.95,16.08-7.97,16.08-31.8c0-13.15-4.86-21.5-15.29-26.28c-6.32-2.89-15.68-4.43-27.81-4.56l-68.41,0v49.65
			c0,4.14-3.36,7.5-7.5,7.5c-4.14,0-7.5-3.36-7.5-7.5v-57.15c0-4.14,3.36-7.5,7.5-7.5h75.99c14.53,0.15,25.62,2.09,33.98,5.92
			c15.73,7.21,24.05,21.01,24.05,39.91c0,21.99-8.23,37.22-24.46,45.26C588.25,665.47,576.95,667.5,562.26,667.5z"/>
	</g>
	<g>
		<path class="st0" d="M491.06,347.57c-15.7,0-28.47-12.77-28.47-28.47s12.77-28.47,28.47-28.47c15.7,0,28.47,12.77,28.47,28.47
			S506.76,347.57,491.06,347.57z M491.06,305.63c-7.43,0-13.47,6.04-13.47,13.47c0,7.43,6.04,13.47,13.47,13.47
			c7.43,0,13.47-6.04,13.47-13.47C504.53,311.67,498.49,305.63,491.06,305.63z"/>
		<path class="st0" d="M491.06,412.39c-4.14,0-7.5-3.36-7.5-7.5v-63.83c0-4.14,3.36-7.5,7.5-7.5c4.14,0,7.5,3.36,7.5,7.5v63.83
			C498.56,409.03,495.2,412.39,491.06,412.39z"/>
	</g>
	<g>
		<path class="st0" d="M571.4,297.54c-15.7,0-28.47-12.77-28.47-28.47c0-15.7,12.77-28.47,28.47-28.47s28.47,12.77,28.47,28.47
			C599.87,284.77,587.1,297.54,571.4,297.54z M571.4,255.6c-7.43,0-13.47,6.04-13.47,13.47c0,7.43,6.04,13.47,13.47,13.47
			s13.47-6.04,13.47-13.47C584.87,261.64,578.83,255.6,571.4,255.6z"/>
		<path class="st0" d="M571.4,412.39c-4.14,0-7.5-3.36-7.5-7.5V291.04c0-4.14,3.36-7.5,7.5-7.5c4.14,0,7.5,3.36,7.5,7.5v113.85
			C578.9,409.03,575.54,412.39,571.4,412.39z"/>
	</g>
	<g>
		<path class="st0" d="M571.4,823.89c-15.7,0-28.47-12.77-28.47-28.47c0-15.7,12.77-28.47,28.47-28.47s28.47,12.77,28.47,28.47
			C599.87,811.12,587.1,823.89,571.4,823.89z M571.4,781.95c-7.43,0-13.47,6.04-13.47,13.47c0,7.43,6.04,13.47,13.47,13.47
			s13.47-6.04,13.47-13.47C584.87,787.99,578.83,781.95,571.4,781.95z"/>
		<path class="st0" d="M571.4,780.78c-4.14,0-7.5-3.36-7.5-7.5v-56.83c0-4.14,3.36-7.5,7.5-7.5c4.14,0,7.5,3.36,7.5,7.5v56.83
			C578.9,777.43,575.54,780.78,571.4,780.78z"/>
	</g>
	<g>
		<path class="st0" d="M491.06,870.92c-15.7,0-28.47-12.77-28.47-28.47s12.77-28.47,28.47-28.47c15.7,0,28.47,12.77,28.47,28.47
			S506.76,870.92,491.06,870.92z M491.06,828.98c-7.43,0-13.47,6.04-13.47,13.47c0,7.43,6.04,13.47,13.47,13.47
			c7.43,0,13.47-6.04,13.47-13.47C504.53,835.02,498.49,828.98,491.06,828.98z"/>
		<path class="st0" d="M491.06,827.81c-4.14,0-7.5-3.36-7.5-7.5V716.46c0-4.14,3.36-7.5,7.5-7.5c4.14,0,7.5,3.36,7.5,7.5v103.85
			C498.56,824.45,495.2,827.81,491.06,827.81z"/>
	</g>
</g>
<g>
	<path class="st5" d="M355.51,650.19c-2.98,0-5.8-1.79-6.97-4.72c-2.07-5.18-3.95-10.5-5.59-15.82c-1.22-3.96,1-8.16,4.95-9.38
		c3.96-1.22,8.16,1,9.38,4.96c1.52,4.93,3.27,9.87,5.19,14.68c1.54,3.85-0.34,8.21-4.19,9.75
		C357.37,650.02,356.43,650.19,355.51,650.19z"/>
	<path class="st5" d="M416.54,732.87c-1.66,0-3.32-0.55-4.71-1.67c-18.75-15.15-34.64-33.23-47.23-53.74
		c-2.17-3.53-1.06-8.15,2.47-10.32c3.53-2.17,8.15-1.06,10.32,2.47c11.7,19.05,26.46,35.84,43.88,49.92
		c3.22,2.6,3.72,7.33,1.12,10.55C420.9,731.92,418.73,732.87,416.54,732.87z"/>
	<path class="st5" d="M613.82,765.52c-3.06,0-5.93-1.88-7.04-4.92c-1.43-3.89,0.57-8.2,4.46-9.62
		c46.23-16.96,84.1-50.49,106.64-94.4c1.89-3.69,6.41-5.14,10.1-3.25c3.69,1.89,5.14,6.41,3.25,10.1
		c-24.26,47.28-65.03,83.38-114.82,101.64C615.55,765.38,614.68,765.52,613.82,765.52z"/>
	<path class="st5" d="M742.46,617.01c-0.51,0-1.03-0.05-1.55-0.16c-4.05-0.85-6.65-4.83-5.79-8.88c2.78-13.21,4.19-26.81,4.19-40.43
		c0-19.73-2.93-39.2-8.71-57.87c-1.23-3.96,0.99-8.16,4.95-9.38c3.96-1.23,8.16,0.99,9.38,4.95c6.23,20.1,9.38,41.07,9.38,62.31
		c0,14.66-1.52,29.3-4.51,43.52C749.05,614.58,745.94,617.01,742.46,617.01z"/>
	<path class="st5" d="M342.43,598.19c-0.84,0-1.68-0.14-2.49-0.42l-65.89-23.16c-3-1.06-5.01-3.89-5.01-7.08
		c0-71.98,27.53-140.13,77.51-191.88c2.88-2.98,7.62-3.06,10.6-0.18c2.98,2.88,3.06,7.63,0.18,10.6
		c-46.04,47.68-71.93,110.05-73.25,176.17l49.88,17.53c-0.23-4.08-0.35-8.17-0.35-12.24c0-51.26,18.65-100.65,52.52-139.06
		c2.74-3.11,7.48-3.4,10.59-0.66c3.11,2.74,3.41,7.48,0.67,10.59c-31.45,35.67-48.77,81.53-48.77,129.13
		c0,7.45,0.42,14.95,1.26,22.31c0.29,2.57-0.76,5.1-2.78,6.71C345.76,597.63,344.11,598.19,342.43,598.19z"/>
	<path class="st5" d="M391.76,794.95c-1.47,0-2.96-0.43-4.27-1.34c-47.6-33.01-83.04-79.16-102.46-133.48
		c-1.4-3.9,0.64-8.19,4.54-9.59c3.89-1.39,8.19,0.64,9.59,4.54c18.1,50.61,52.51,95.43,96.88,126.2c3.4,2.36,4.25,7.03,1.89,10.44
		C396.47,793.82,394.13,794.95,391.76,794.95z"/>
	<path class="st5" d="M673.95,879.19c-2.06,0-4.07-0.85-5.53-2.43l-46.11-50.21c-1.72-1.87-2.38-4.49-1.74-6.96
		c0.64-2.46,2.48-4.43,4.9-5.24c17.77-5.9,34.95-13.79,51.06-23.46c3.55-2.13,8.16-0.98,10.29,2.57c2.13,3.55,0.98,8.16-2.57,10.29
		c-13.76,8.25-28.26,15.29-43.23,20.98l34.83,37.92c41.92-18.78,80.06-46.85,110.57-81.44c31.89-36.15,55.62-79.65,68.63-125.79
		c1.13-3.99,5.27-6.31,9.25-5.18c3.99,1.12,6.31,5.27,5.18,9.25c-13.62,48.3-38.46,93.82-71.82,131.65
		c-33.14,37.57-74.9,67.81-120.76,87.43C675.95,878.99,674.94,879.19,673.95,879.19z"/>
	<path class="st5" d="M740.45,755.65c-1.8,0-3.61-0.65-5.05-1.96c-3.06-2.79-3.28-7.54-0.49-10.6
		c20.46-22.43,36.78-48.03,48.49-76.09c13.16-31.52,20.05-65.02,20.48-99.57c0.49-39.65-8.32-77.96-26.2-113.86
		c-1.85-3.71-0.34-8.21,3.37-10.06c3.71-1.85,8.21-0.34,10.06,3.37c18.95,38.05,28.29,78.67,27.77,120.73
		c-0.45,36.47-7.73,71.85-21.64,105.16c-12.38,29.66-29.63,56.71-51.25,80.42C744.52,754.82,742.49,755.65,740.45,755.65z"/>
	<path class="st5" d="M719.46,473.25c-0.11,0-0.22,0-0.33-0.01c-2.55-0.11-4.87-1.52-6.15-3.72c-24.11-41.49-62.4-72.58-107.8-87.55
		c-3.93-1.3-6.07-5.54-4.77-9.47c1.3-3.93,5.53-6.07,9.47-4.77c45.24,14.92,83.91,44.69,110,84.44l30.07-42.54
		c-32.58-41.7-77.94-73.38-128.31-89.5c-3.94-1.26-6.12-5.48-4.86-9.43c1.26-3.94,5.48-6.12,9.43-4.86
		c55.04,17.62,104.42,52.82,139.05,99.12c1.95,2.6,2,6.17,0.12,8.82l-39.79,56.3C724.18,472.08,721.89,473.25,719.46,473.25z"/>
	<path class="st5" d="M874.65,575.03c-4.14,0-7.5-3.36-7.5-7.5c0-80.54-29.8-157.7-83.92-217.26c-2.79-3.07-2.56-7.81,0.51-10.59
		c3.07-2.78,7.81-2.56,10.59,0.51c56.63,62.33,87.82,143.07,87.82,227.35C882.15,571.67,878.79,575.03,874.65,575.03z"/>
	<path class="st5" d="M710.45,289.26c-1.28,0-2.59-0.33-3.77-1.02c-21.83-12.74-45.13-22.9-69.27-30.17
		c-3.97-1.2-6.21-5.38-5.02-9.35c1.19-3.97,5.38-6.21,9.35-5.02c25.27,7.62,49.66,18.24,72.5,31.58c3.58,2.09,4.78,6.68,2.7,10.26
		C715.54,287.93,713.03,289.26,710.45,289.26z"/>
	<path class="st5" d="M274.29,383.6c-1.5,0-3.02-0.45-4.34-1.39c-3.38-2.4-4.17-7.08-1.77-10.46
		c54.74-76.97,139.62-127.9,232.87-139.71c4.1-0.52,7.86,2.39,8.38,6.5c0.52,4.11-2.39,7.86-6.5,8.38
		c-89.1,11.29-170.21,59.95-222.53,133.52C278.94,382.51,276.63,383.6,274.29,383.6z"/>
	<path class="st5" d="M253.44,416.95c-1.21,0-2.44-0.29-3.58-0.92c-3.64-1.98-4.98-6.54-3-10.18c1.63-2.99,3.34-6.02,5.08-8.99
		c2.09-3.58,6.69-4.77,10.26-2.68c3.57,2.09,4.78,6.69,2.68,10.26c-1.67,2.84-3.3,5.74-4.86,8.59
		C258.67,415.54,256.09,416.95,253.44,416.95z"/>
	<path class="st5" d="M244.66,715.81c-2.81,0-5.51-1.59-6.79-4.31c-21.29-45.19-32.09-93.63-32.09-143.97
		c0-40.66,7.14-80.42,21.23-118.18c1.45-3.88,5.77-5.85,9.65-4.41c3.88,1.45,5.85,5.77,4.41,9.65
		c-13.46,36.08-20.28,74.07-20.28,112.94c0,48.11,10.32,94.4,30.66,137.58c1.77,3.75,0.16,8.22-3.59,9.98
		C246.82,715.58,245.74,715.81,244.66,715.81z"/>
	<path class="st5" d="M543.96,905.71c-98.95,0-192.63-43.15-257.03-118.4c-2.69-3.15-2.33-7.88,0.82-10.57
		c3.15-2.69,7.88-2.32,10.58,0.82c61.54,71.91,151.08,113.15,245.63,113.15c27.78,0,55.36-3.53,81.98-10.49
		c4.01-1.05,8.11,1.35,9.15,5.36c1.05,4.01-1.35,8.11-5.36,9.15C601.88,902.02,573.02,905.71,543.96,905.71z"/>
	<path class="st5" d="M280.25,643.38c-12.17,0-22.08-9.9-22.08-22.08c0-12.17,9.9-22.08,22.08-22.08c12.17,0,22.08,9.9,22.08,22.08
		C302.33,633.47,292.43,643.38,280.25,643.38z M280.25,614.23c-3.9,0-7.08,3.17-7.08,7.08c0,3.9,3.17,7.08,7.08,7.08
		c3.9,0,7.08-3.17,7.08-7.08C287.33,617.4,284.15,614.23,280.25,614.23z"/>
	<path class="st5" d="M263.97,766.98c-12.17,0-22.08-9.9-22.08-22.08c0-12.17,9.9-22.08,22.08-22.08c12.17,0,22.08,9.9,22.08,22.08
		C286.04,757.08,276.14,766.98,263.97,766.98z M263.97,737.83c-3.9,0-7.08,3.17-7.08,7.08c0,3.9,3.17,7.08,7.08,7.08
		c3.9,0,7.08-3.17,7.08-7.08C271.04,741,267.87,737.83,263.97,737.83z"/>
	<path class="st5" d="M711.93,795.93c-12.17,0-22.08-9.9-22.08-22.08c0-12.17,9.9-22.08,22.08-22.08c12.17,0,22.08,9.9,22.08,22.08
		C734.01,786.02,724.11,795.93,711.93,795.93z M711.93,766.78c-3.9,0-7.08,3.17-7.08,7.08c0,3.9,3.17,7.08,7.08,7.08
		c3.9,0,7.08-3.17,7.08-7.08C719.01,769.95,715.83,766.78,711.93,766.78z"/>
	<path class="st5" d="M380.79,378.96c-12.17,0-22.08-9.9-22.08-22.08c0-12.17,9.9-22.08,22.08-22.08c12.17,0,22.08,9.9,22.08,22.08
		C402.87,369.06,392.96,378.96,380.79,378.96z M380.79,349.81c-3.9,0-7.08,3.17-7.08,7.08c0,3.9,3.17,7.08,7.08,7.08
		c3.9,0,7.08-3.17,7.08-7.08C387.87,352.98,384.69,349.81,380.79,349.81z"/>
	<path class="st5" d="M754.31,334.44c-12.17,0-22.08-9.9-22.08-22.08c0-12.17,9.9-22.08,22.08-22.08c12.17,0,22.08,9.9,22.08,22.08
		C776.38,324.54,766.48,334.44,754.31,334.44z M754.31,305.29c-3.9,0-7.08,3.17-7.08,7.08s3.17,7.08,7.08,7.08
		c3.9,0,7.08-3.17,7.08-7.08S758.21,305.29,754.31,305.29z"/>
	<path class="st5" d="M868.77,640.99c-12.17,0-22.08-9.9-22.08-22.08c0-12.17,9.9-22.08,22.08-22.08c12.17,0,22.08,9.9,22.08,22.08
		C890.84,631.09,880.94,640.99,868.77,640.99z M868.77,611.84c-3.9,0-7.08,3.17-7.08,7.08c0,3.9,3.17,7.08,7.08,7.08
		c3.9,0,7.08-3.17,7.08-7.08C875.84,615.02,872.67,611.84,868.77,611.84z"/>
</g>
</svg>
