<?xml version="1.0" encoding="utf-8"?>
<!-- Generator: Adobe Illustrator 24.1.3, SVG Export Plug-In . SVG Version: 6.00 Build 0)  -->
<svg version="1.1" id="Layer_1" xmlns="http://www.w3.org/2000/svg" xmlns:xlink="http://www.w3.org/1999/xlink" x="0px" y="0px"
	 viewBox="0 0 1105.5 1030.5" style="enable-background:new 0 0 1105.5 1030.5;" xml:space="preserve">
<style type="text/css">
	.st0{fill:#6ADFBE;}
	.st1{opacity:0.3;}
	.st2{opacity:0.3;fill:#6ADFBE;enable-background:new    ;}
	.st3{fill:#434D4D;}
</style>
<g>
	<g>
		<polygon class="st0" points="103.9,168.3 78.7,143 53.3,168.3 28.4,143.4 7.1,164.7 0,157.7 28.4,129.2 53.3,154.1 78.7,128.8 
			103.9,154.1 128.9,129.2 153.8,154.1 175.5,132.4 182.6,139.4 153.8,168.3 128.9,143.4 		"/>
	</g>
	<g>
		<g class="st1">
			<path class="st0" d="M62,942.6H46c-4.1,0-7.5-3.4-7.5-7.5s3.4-7.5,7.5-7.5h16c4.1,0,7.5,3.4,7.5,7.5S66.1,942.6,62,942.6z"/>
			<path class="st0" d="M124,942.6h-18c-4.1,0-7.5-3.4-7.5-7.5s3.4-7.5,7.5-7.5h18c4.1,0,7.5,3.4,7.5,7.5S128.1,942.6,124,942.6z"/>
		</g>
		<g>
			<path class="st2" d="M84.5,982.1c-4.1,0-7.5-3.4-7.5-7.5v-16c0-4.1,3.4-7.5,7.5-7.5s7.5,3.4,7.5,7.5v16
				C92,978.7,88.6,982.1,84.5,982.1z"/>
			<path class="st2" d="M84.5,922.1c-4.1,0-7.5-3.4-7.5-7.5v-18c0-4.1,3.4-7.5,7.5-7.5s7.5,3.4,7.5,7.5v18
				C92,918.7,88.6,922.1,84.5,922.1z"/>
		</g>
	</g>
	<g>
		<g>
			<path class="st0" d="M390,53.5h-16c-4.1,0-7.5-3.4-7.5-7.5s3.4-7.5,7.5-7.5h16c4.1,0,7.5,3.4,7.5,7.5S394.1,53.5,390,53.5z"/>
			<path class="st0" d="M452,53.5h-18c-4.1,0-7.5-3.4-7.5-7.5s3.4-7.5,7.5-7.5h18c4.1,0,7.5,3.4,7.5,7.5S456.1,53.5,452,53.5z"/>
		</g>
		<g>
			<path class="st0" d="M412.5,93c-4.1,0-7.5-3.4-7.5-7.5v-16c0-4.1,3.4-7.5,7.5-7.5s7.5,3.4,7.5,7.5v16C420,89.6,416.6,93,412.5,93
				z"/>
			<path class="st0" d="M412.5,33c-4.1,0-7.5-3.4-7.5-7.5v-18c0-4.1,3.4-7.5,7.5-7.5s7.5,3.4,7.5,7.5v18C420,29.6,416.6,33,412.5,33
				z"/>
		</g>
	</g>
	<path class="st0" d="M689.1,179c-13.4,0-24.3-10.9-24.3-24.3c0-13.4,10.9-24.3,24.3-24.3s24.3,10.9,24.3,24.3
		C713.4,168,702.5,179,689.1,179z M689.1,145.3c-5.1,0-9.3,4.2-9.3,9.3c0,5.1,4.2,9.3,9.3,9.3s9.3-4.2,9.3-9.3
		C698.4,149.5,694.3,145.3,689.1,145.3z"/>
	<path class="st0" d="M997.8,959.9c-13.4,0-24.3-10.9-24.3-24.3c0-13.4,10.9-24.3,24.3-24.3s24.3,10.9,24.3,24.3
		C1022.1,949,1011.2,959.9,997.8,959.9z M997.8,926.3c-5.1,0-9.3,4.2-9.3,9.3s4.2,9.3,9.3,9.3s9.3-4.2,9.3-9.3
		S1002.9,926.3,997.8,926.3z"/>
	<path class="st3" d="M569.7,944.8c-1.3,0-2.7-0.4-3.8-1.1c-84.4-50.4-154.4-114.7-207.8-191c-42.8-61-75.1-129.9-96.2-204.6
		c-35.9-127.2-26.7-225.8-26.3-230c0.3-3.4,2.9-6.1,6.2-6.7C381.1,287.1,564,179.1,565.8,178.1c2.4-1.4,5.3-1.4,7.7,0
		c1.8,1.1,184.3,109,323.7,133.4c3.4,0.6,5.9,3.4,6.2,6.8c0.3,4.1,7.2,102.2-29.8,229.1c-21.7,74.5-54.2,143.3-96.5,204.4
		c-52.9,76.4-121.4,141-203.6,191.8C572.4,944.4,571,944.8,569.7,944.8z M250,325.2c-1.4,22.7-4.1,111.7,26.4,219.4
		c20.7,73,52.3,140.2,94.1,199.8c51.4,73.3,118.4,135.2,199.1,184.1c78.6-49.3,144.2-111.5,195-184.9
		c41.4-59.7,73.2-126.9,94.5-199.8c31.4-107.3,30.5-195.7,29.7-218.6c-73-13.9-155.5-48.8-212.6-76.1
		c-52.9-25.3-94.1-48.7-106.5-55.9c-12.4,7.2-53.7,30.6-106.7,55.9C405.8,276.4,323.1,311.4,250,325.2z"/>
	<path class="st0" d="M497,718.3c-1.7,0-3.5-0.6-4.9-1.8l-102.8-88.3c-3.1-2.7-3.5-7.3-0.9-10.4l42-51.2c1.3-1.6,3.2-2.5,5.2-2.7
		c2-0.2,4,0.5,5.6,1.8l53.2,46.4l249.3-252.8c1.4-1.4,3.3-2.1,5.3-2.1c0,0,0,0,0,0c2,0,3.9,0.7,5.3,2.1l45,44.5
		c2.9,2.9,3,7.6,0.1,10.6L502.4,716.1C500.9,717.6,499,718.3,497,718.3z M404.7,621.6l92,78.9l286.7-291.5L749,375L500.1,627.6
		c-2.8,2.8-7.3,3-10.3,0.4l-52.7-45.9L404.7,621.6z"/>
	<path class="st3" d="M360,568.2c-2.9,0-5.7-1.7-6.9-4.6c-33.1-78.4-33.2-175.5-33.2-179.6c0-3.5,2.4-6.5,5.8-7.3
		c137.4-31.4,238.1-114.3,239.1-115.1c2.2-1.9,5.3-2.3,8-1c2.6,1.2,4.3,3.9,4.3,6.8v194.8c0,4.1-3.4,7.5-7.5,7.5
		c-4.1,0-7.5-3.4-7.5-7.5V282.7c-11.6,8.6-31.1,22.3-57.1,37.4c-38.6,22.6-99,52.7-170.1,69.8c0.6,22.3,4.6,103,31.9,167.8
		c1.6,3.8-0.2,8.2-4,9.8C361.9,568,361,568.2,360,568.2z"/>
	<path class="st3" d="M569.6,860.6c-1.7,0-3.3-0.6-4.7-1.6c-82.8-65.7-105.1-95.6-106-96.9c-2.4-3.3-1.7-8,1.6-10.5
		c3.3-2.4,8-1.7,10.5,1.6c0.3,0.4,20.4,27,91.1,84.2V710.1c0-4.1,3.4-7.5,7.5-7.5c4.1,0,7.5,3.4,7.5,7.5v143c0,2.9-1.6,5.5-4.2,6.8
		C571.8,860.4,570.7,860.6,569.6,860.6z"/>
	<path class="st3" d="M569.8,860.6c-2.3,0-4.6-1.1-6.1-3.1c-2.4-3.4-1.6-8.1,1.7-10.5c40.9-29.2,78.7-67.2,112.4-112.7
		c27-36.5,51.5-78,72.8-123.3c36.2-77.1,50.4-139.1,50.6-139.7c0.9-4,4.9-6.6,9-5.7c4,0.9,6.6,4.9,5.7,9
		c-0.6,2.6-14.8,64.2-51.6,142.8c-21.6,46.2-46.6,88.5-74.3,125.9c-34.6,46.8-73.6,85.8-115.7,116
		C572.8,860.2,571.3,860.6,569.8,860.6z"/>
	<path class="st3" d="M683.5,340.2c-0.8,0-1.6-0.1-2.4-0.4c-89.5-29.8-116.3-66.5-117.4-68.1c-2.4-3.4-1.6-8.1,1.8-10.5
		c3.4-2.4,8-1.6,10.4,1.7c0.4,0.6,26.1,34.6,110,62.5c3.9,1.3,6.1,5.6,4.7,9.5C689.5,338.2,686.6,340.2,683.5,340.2z"/>
	<g class="st1">
		<g>
			<g>
				<path class="st3" d="M96.1,714.1h-16c-4.1,0-7.5-3.4-7.5-7.5s3.4-7.5,7.5-7.5h16c4.1,0,7.5,3.4,7.5,7.5S100.2,714.1,96.1,714.1z
					"/>
				<path class="st3" d="M158.1,714.1h-18c-4.1,0-7.5-3.4-7.5-7.5s3.4-7.5,7.5-7.5h18c4.1,0,7.5,3.4,7.5,7.5
					S162.2,714.1,158.1,714.1z"/>
			</g>
			<g>
				<path class="st3" d="M118.6,753.6c-4.1,0-7.5-3.4-7.5-7.5v-16c0-4.1,3.4-7.5,7.5-7.5c4.1,0,7.5,3.4,7.5,7.5v16
					C126.1,750.3,122.7,753.6,118.6,753.6z"/>
				<path class="st3" d="M118.6,693.6c-4.1,0-7.5-3.4-7.5-7.5v-18c0-4.1,3.4-7.5,7.5-7.5c4.1,0,7.5,3.4,7.5,7.5v18
					C126.1,690.3,122.7,693.6,118.6,693.6z"/>
			</g>
		</g>
		<g>
			<g>
				<path class="st3" d="M798.1,837.1h-16c-4.1,0-7.5-3.4-7.5-7.5s3.4-7.5,7.5-7.5h16c4.1,0,7.5,3.4,7.5,7.5
					S802.2,837.1,798.1,837.1z"/>
				<path class="st3" d="M860.1,837.1h-18c-4.1,0-7.5-3.4-7.5-7.5s3.4-7.5,7.5-7.5h18c4.1,0,7.5,3.4,7.5,7.5
					S864.2,837.1,860.1,837.1z"/>
			</g>
			<g>
				<path class="st3" d="M820.6,876.6c-4.1,0-7.5-3.4-7.5-7.5v-16c0-4.1,3.4-7.5,7.5-7.5s7.5,3.4,7.5,7.5v16
					C828.1,873.3,824.7,876.6,820.6,876.6z"/>
				<path class="st3" d="M820.6,816.6c-4.1,0-7.5-3.4-7.5-7.5v-18c0-4.1,3.4-7.5,7.5-7.5s7.5,3.4,7.5,7.5v18
					C828.1,813.3,824.7,816.6,820.6,816.6z"/>
			</g>
		</g>
		<g>
			<g>
				<path class="st3" d="M963.1,208.1h-16c-4.1,0-7.5-3.4-7.5-7.5s3.4-7.5,7.5-7.5h16c4.1,0,7.5,3.4,7.5,7.5
					S967.2,208.1,963.1,208.1z"/>
				<path class="st3" d="M1025.1,208.1h-18c-4.1,0-7.5-3.4-7.5-7.5s3.4-7.5,7.5-7.5h18c4.1,0,7.5,3.4,7.5,7.5
					S1029.2,208.1,1025.1,208.1z"/>
			</g>
			<g>
				<path class="st3" d="M985.6,247.6c-4.1,0-7.5-3.4-7.5-7.5v-16c0-4.1,3.4-7.5,7.5-7.5s7.5,3.4,7.5,7.5v16
					C993.1,244.3,989.7,247.6,985.6,247.6z"/>
				<path class="st3" d="M985.6,187.6c-4.1,0-7.5-3.4-7.5-7.5v-18c0-4.1,3.4-7.5,7.5-7.5s7.5,3.4,7.5,7.5v18
					C993.1,184.3,989.7,187.6,985.6,187.6z"/>
			</g>
		</g>
		<path class="st3" d="M207.1,887.1c-13.4,0-24.3-10.9-24.3-24.3c0-13.4,10.9-24.3,24.3-24.3c13.4,0,24.3,10.9,24.3,24.3
			C231.4,876.2,220.5,887.1,207.1,887.1z M207.1,853.5c-5.1,0-9.3,4.2-9.3,9.3c0,5.1,4.2,9.3,9.3,9.3c5.1,0,9.3-4.2,9.3-9.3
			C216.4,857.7,212.3,853.5,207.1,853.5z"/>
		<path class="st3" d="M1007.1,416.8c-13.4,0-24.3-10.9-24.3-24.3c0-13.4,10.9-24.3,24.3-24.3s24.3,10.9,24.3,24.3
			C1031.4,405.9,1020.5,416.8,1007.1,416.8z M1007.1,383.2c-5.1,0-9.3,4.2-9.3,9.3c0,5.1,4.2,9.3,9.3,9.3s9.3-4.2,9.3-9.3
			C1016.4,387.3,1012.2,383.2,1007.1,383.2z"/>
	</g>
	<g class="st1">
		<path class="st3" d="M843.6,178.6c-1.5,0-3.1-0.5-4.4-1.4c-14.4-10.5-29.5-20.2-45-28.9c-3.6-2-4.9-6.6-2.9-10.2
			c2-3.6,6.6-4.9,10.2-2.9c16,9,31.6,19,46.4,29.9c3.3,2.4,4.1,7.1,1.6,10.5C848.2,177.6,845.9,178.6,843.6,178.6z"/>
		<path class="st3" d="M430.4,110.4c-3.2,0-6.2-2.1-7.2-5.3c-1.2-4,1-8.2,4.9-9.4c45.5-14.1,92.9-21.3,141-21.3
			c37.6,0,75,4.4,111.2,13.1c4,1,6.5,5,5.5,9c-1,4-5,6.5-9,5.5c-35.1-8.4-71.3-12.7-107.7-12.7c-46.6,0-92.5,6.9-136.5,20.6
			C431.9,110.3,431.1,110.4,430.4,110.4z"/>
		<path class="st3" d="M248.9,216.7c-2,0-4-0.8-5.5-2.4c-2.8-3-2.7-7.8,0.3-10.6c7.4-7,15.2-13.9,23-20.4c3.2-2.6,7.9-2.2,10.6,1
			c2.6,3.2,2.2,7.9-1,10.6c-7.6,6.3-15.1,12.9-22.3,19.7C252.6,216,250.7,216.7,248.9,216.7z"/>
		<path class="st3" d="M106.3,615.4c-3.7,0-7-2.8-7.4-6.6C96.3,589,95,568.7,95,548.6c0-20.1,1.3-40.2,3.8-60
			c7.7-61.4,27.1-119.8,57.7-173.5c2-3.6,6.6-4.9,10.2-2.8c3.6,2,4.9,6.6,2.8,10.2c-29.5,52.1-48.3,108.6-55.8,168
			c-2.4,19.1-3.6,38.7-3.6,58.1c0,19.5,1.2,39.2,3.7,58.4c0.5,4.1-2.4,7.9-6.5,8.4C106.9,615.4,106.6,615.4,106.3,615.4z"/>
		<path class="st3" d="M336.1,960.4c-1.3,0-2.6-0.3-3.7-1c-18.2-10.5-35.9-22.3-52.5-35.2c-3.3-2.5-3.9-7.2-1.4-10.5
			c2.5-3.3,7.2-3.9,10.5-1.4c16.1,12.4,33.2,23.9,50.9,34.1c3.6,2.1,4.8,6.7,2.7,10.2C341.2,959.1,338.7,960.4,336.1,960.4z"/>
		<path class="st3" d="M569.2,1022.7c-42.3,0-84.2-5.6-124.6-16.5c-4-1.1-6.4-5.2-5.3-9.2c1.1-4,5.2-6.4,9.2-5.3
			c39.1,10.6,79.7,16,120.7,16c33.1,0,66.2-3.5,98.2-10.5c4.1-0.9,8,1.7,8.9,5.7c0.9,4-1.7,8-5.7,8.9
			C637.5,1019,603.3,1022.7,569.2,1022.7z"/>
		<path class="st3" d="M797.9,962.9c-2.6,0-5.2-1.4-6.5-3.8c-2-3.6-0.8-8.2,2.9-10.2c11.2-6.3,22.3-13.2,32.9-20.4
			c3.4-2.3,8.1-1.4,10.4,2c2.3,3.4,1.4,8.1-2,10.4c-11,7.5-22.4,14.6-34,21.1C800.4,962.6,799.1,962.9,797.9,962.9z"/>
		<path class="st3" d="M915.4,868.9c-1.8,0-3.6-0.6-5-1.9c-3.1-2.8-3.3-7.5-0.5-10.6c51.2-56.6,87.7-125.6,105.6-199.4
			c1-4,5-6.5,9.1-5.5c4,1,6.5,5,5.5,9.1c-18.5,76.2-56.2,147.4-109,205.9C919.4,868.1,917.4,868.9,915.4,868.9z"/>
		<path class="st3" d="M1035.8,556.1c-4.1,0-7.5-3.4-7.5-7.5c0-13.8-0.6-27.8-1.8-41.4c-1-11.2-2.4-22.5-4.2-33.5
			c-0.7-4.1,2.1-7.9,6.2-8.6c4.1-0.7,7.9,2.1,8.6,6.2c1.9,11.4,3.3,23.1,4.4,34.6c1.3,14.1,1.9,28.5,1.9,42.8
			C1043.3,552.7,1039.9,556.1,1035.8,556.1z"/>
	</g>
</g>
</svg>
