<svg xmlns="http://www.w3.org/2000/svg" viewBox="0 0 800 600"><defs/><path fill="#6adfbe" d="M300.27 436.09V222.66l25.63 12.89v200.69l-25.63-.15zm87.5 46.39V270.75l25.63.44v211.29h-25.63zm-161.81-84.84V203.58l25.78-12.3v200.69l-25.78 5.67zM395.7 294.09l-166.57-79.83 29.97-13.7 147.72 70.41-11.05 23.13c.01-.01-.07-.01-.07-.01zm166.11-68.56l-171.47-96.11L400.58 106l173.77 97.14-12.46 22.39h-.08zM401.47 493.97l-175.5-95.89 12.45-22.41 174.21 95.24-11.16 23.06zm-155.55-272.2l-19.96-18.19 174.62-97.14 12.19 22.96-166.85 92.37zm303.13 174.91V212.05l25.63-8.84v193.54l-25.63-.07zm-146.81 1.5l-11.78-22.76 165.37-85.58 11.78 22.78-165.37 85.63v-.07zm-5.52-100.38l-11.05-23.13 169.39-81.4 11.05 23.13c-.01 0-169.39 81.4-169.39 81.4zm4.76 196.1l-11.21-23.07 167.68-94.4 16.75 19.81-173.22 97.58v.08z" opacity=".2"/></svg>